<mxfile host="app.diagrams.net" modified="2021-04-18T16:57:53.272Z" agent="5.0 (Windows NT 10.0; Win64; x64) AppleWebKit/537.36 (KHTML, like Gecko) Chrome/89.0.4389.128 Safari/537.36" etag="qfuXLSv071Cur3uLBe-p" version="14.6.1" type="github">
  <diagram id="_Pl7i_hHXp13BwxScJFl" name="Page-1">
    <mxGraphModel dx="1422" dy="762" grid="1" gridSize="10" guides="1" tooltips="1" connect="1" arrows="1" fold="1" page="1" pageScale="1" pageWidth="827" pageHeight="1169" math="0" shadow="0">
      <root>
        <mxCell id="0" />
        <mxCell id="1" parent="0" />
        <mxCell id="LdLC13Cnr-siAU8TwVK--30" value="AWS Cloud" style="points=[[0,0],[0.25,0],[0.5,0],[0.75,0],[1,0],[1,0.25],[1,0.5],[1,0.75],[1,1],[0.75,1],[0.5,1],[0.25,1],[0,1],[0,0.75],[0,0.5],[0,0.25]];outlineConnect=0;html=1;whiteSpace=wrap;fontSize=12;fontStyle=0;shape=mxgraph.aws4.group;grIcon=mxgraph.aws4.group_aws_cloud_alt;verticalAlign=top;align=left;spacingLeft=30;dashed=0;fillColor=#f5f5f5;strokeColor=#666666;fontColor=#333333;" vertex="1" parent="1">
          <mxGeometry x="330" y="140" width="630" height="470" as="geometry" />
        </mxCell>
        <mxCell id="mf0w1EBOHu-Bmzb6V4Uy-31" value="" style="rounded=0;whiteSpace=wrap;html=1;fillColor=#dae8fc;strokeColor=#6c8ebf;" parent="1" vertex="1">
          <mxGeometry x="1030" y="296.25" width="230" height="147.5" as="geometry" />
        </mxCell>
        <mxCell id="LdLC13Cnr-siAU8TwVK--10" style="edgeStyle=orthogonalEdgeStyle;rounded=0;orthogonalLoop=1;jettySize=auto;html=1;entryX=0;entryY=0.25;entryDx=0;entryDy=0;entryPerimeter=0;" edge="1" parent="1" source="mf0w1EBOHu-Bmzb6V4Uy-1" target="LdLC13Cnr-siAU8TwVK--9">
          <mxGeometry relative="1" as="geometry">
            <Array as="points">
              <mxPoint x="270" y="235" />
              <mxPoint x="270" y="351" />
            </Array>
          </mxGeometry>
        </mxCell>
        <mxCell id="mf0w1EBOHu-Bmzb6V4Uy-1" value="" style="rounded=0;whiteSpace=wrap;html=1;fillColor=#d5e8d4;strokeColor=#82b366;" parent="1" vertex="1">
          <mxGeometry x="40" y="160" width="170" height="150" as="geometry" />
        </mxCell>
        <mxCell id="mf0w1EBOHu-Bmzb6V4Uy-2" value="Investing.com&lt;br&gt;" style="shape=cylinder3;whiteSpace=wrap;html=1;boundedLbl=1;backgroundOutline=1;size=15;" parent="1" vertex="1">
          <mxGeometry x="82.5" y="182.5" width="85" height="105" as="geometry" />
        </mxCell>
        <mxCell id="LdLC13Cnr-siAU8TwVK--11" style="edgeStyle=orthogonalEdgeStyle;rounded=0;orthogonalLoop=1;jettySize=auto;html=1;entryX=0;entryY=0.75;entryDx=0;entryDy=0;entryPerimeter=0;" edge="1" parent="1" source="mf0w1EBOHu-Bmzb6V4Uy-3" target="LdLC13Cnr-siAU8TwVK--9">
          <mxGeometry relative="1" as="geometry">
            <Array as="points">
              <mxPoint x="270" y="508" />
              <mxPoint x="270" y="390" />
            </Array>
          </mxGeometry>
        </mxCell>
        <mxCell id="mf0w1EBOHu-Bmzb6V4Uy-3" value="" style="rounded=0;whiteSpace=wrap;html=1;fillColor=#d5e8d4;strokeColor=#82b366;" parent="1" vertex="1">
          <mxGeometry x="45" y="430" width="160" height="155" as="geometry" />
        </mxCell>
        <mxCell id="mf0w1EBOHu-Bmzb6V4Uy-5" value="Base de alocações do investidor" style="shape=cylinder3;whiteSpace=wrap;html=1;boundedLbl=1;backgroundOutline=1;size=15;" parent="1" vertex="1">
          <mxGeometry x="82.5" y="465" width="85" height="105" as="geometry" />
        </mxCell>
        <mxCell id="mf0w1EBOHu-Bmzb6V4Uy-33" value="Dashboard" style="text;html=1;strokeColor=none;fillColor=none;align=center;verticalAlign=middle;whiteSpace=wrap;rounded=0;" parent="1" vertex="1">
          <mxGeometry x="1050" y="303.75" width="40" height="20" as="geometry" />
        </mxCell>
        <mxCell id="mf0w1EBOHu-Bmzb6V4Uy-38" value="Google Sheet" style="text;html=1;strokeColor=none;fillColor=none;align=center;verticalAlign=middle;whiteSpace=wrap;rounded=0;" parent="1" vertex="1">
          <mxGeometry x="45" y="430" width="85" height="20" as="geometry" />
        </mxCell>
        <mxCell id="mf0w1EBOHu-Bmzb6V4Uy-39" value="Investpy" style="text;html=1;strokeColor=none;fillColor=none;align=center;verticalAlign=middle;whiteSpace=wrap;rounded=0;" parent="1" vertex="1">
          <mxGeometry x="45" y="163" width="40" height="20" as="geometry" />
        </mxCell>
        <mxCell id="LdLC13Cnr-siAU8TwVK--32" style="edgeStyle=orthogonalEdgeStyle;rounded=0;orthogonalLoop=1;jettySize=auto;html=1;endArrow=classic;endFill=1;" edge="1" parent="1" source="mf0w1EBOHu-Bmzb6V4Uy-40" target="LdLC13Cnr-siAU8TwVK--31">
          <mxGeometry relative="1" as="geometry" />
        </mxCell>
        <mxCell id="mf0w1EBOHu-Bmzb6V4Uy-40" value="" style="rounded=0;whiteSpace=wrap;html=1;fillColor=#bac8d3;strokeColor=#23445d;" parent="1" vertex="1">
          <mxGeometry x="323.75" y="660" width="322.5" height="110" as="geometry" />
        </mxCell>
        <mxCell id="mf0w1EBOHu-Bmzb6V4Uy-41" value="investing-bi" style="rounded=1;whiteSpace=wrap;html=1;strokeColor=#000000;" parent="1" vertex="1">
          <mxGeometry x="350" y="690" width="120" height="60" as="geometry" />
        </mxCell>
        <mxCell id="LdLC13Cnr-siAU8TwVK--1" value="" style="points=[[0,0,0],[0.25,0,0],[0.5,0,0],[0.75,0,0],[1,0,0],[0,1,0],[0.25,1,0],[0.5,1,0],[0.75,1,0],[1,1,0],[0,0.25,0],[0,0.5,0],[0,0.75,0],[1,0.25,0],[1,0.5,0],[1,0.75,0]];outlineConnect=0;fontColor=#232F3E;gradientColor=#F34482;gradientDirection=north;fillColor=#BC1356;strokeColor=#ffffff;dashed=0;verticalLabelPosition=bottom;verticalAlign=top;align=center;html=1;fontSize=12;fontStyle=0;aspect=fixed;shape=mxgraph.aws4.resourceIcon;resIcon=mxgraph.aws4.eventbridge;" vertex="1" parent="1">
          <mxGeometry x="446" y="183" width="78" height="78" as="geometry" />
        </mxCell>
        <mxCell id="LdLC13Cnr-siAU8TwVK--26" style="edgeStyle=orthogonalEdgeStyle;rounded=0;orthogonalLoop=1;jettySize=auto;html=1;endArrow=classic;endFill=1;" edge="1" parent="1" source="LdLC13Cnr-siAU8TwVK--3" target="LdLC13Cnr-siAU8TwVK--25">
          <mxGeometry relative="1" as="geometry" />
        </mxCell>
        <mxCell id="LdLC13Cnr-siAU8TwVK--3" value="" style="points=[[0,0,0],[0.25,0,0],[0.5,0,0],[0.75,0,0],[1,0,0],[0,1,0],[0.25,1,0],[0.5,1,0],[0.75,1,0],[1,1,0],[0,0.25,0],[0,0.5,0],[0,0.75,0],[1,0.25,0],[1,0.5,0],[1,0.75,0]];outlineConnect=0;fontColor=#232F3E;gradientColor=#F78E04;gradientDirection=north;fillColor=#D05C17;strokeColor=#ffffff;dashed=0;verticalLabelPosition=bottom;verticalAlign=top;align=center;html=1;fontSize=12;fontStyle=0;aspect=fixed;shape=mxgraph.aws4.resourceIcon;resIcon=mxgraph.aws4.ecr;" vertex="1" parent="1">
          <mxGeometry x="446" y="478.5" width="78" height="78" as="geometry" />
        </mxCell>
        <mxCell id="LdLC13Cnr-siAU8TwVK--16" style="edgeStyle=orthogonalEdgeStyle;rounded=0;orthogonalLoop=1;jettySize=auto;html=1;entryX=0.5;entryY=0;entryDx=0;entryDy=0;entryPerimeter=0;endArrow=none;endFill=0;dashed=1;" edge="1" parent="1" source="LdLC13Cnr-siAU8TwVK--6" target="LdLC13Cnr-siAU8TwVK--8">
          <mxGeometry relative="1" as="geometry" />
        </mxCell>
        <mxCell id="LdLC13Cnr-siAU8TwVK--17" style="edgeStyle=orthogonalEdgeStyle;rounded=0;orthogonalLoop=1;jettySize=auto;html=1;endArrow=none;endFill=0;dashed=1;" edge="1" parent="1" source="LdLC13Cnr-siAU8TwVK--6" target="LdLC13Cnr-siAU8TwVK--7">
          <mxGeometry relative="1" as="geometry" />
        </mxCell>
        <mxCell id="LdLC13Cnr-siAU8TwVK--6" value="" style="points=[[0,0,0],[0.25,0,0],[0.5,0,0],[0.75,0,0],[1,0,0],[0,1,0],[0.25,1,0],[0.5,1,0],[0.75,1,0],[1,1,0],[0,0.25,0],[0,0.5,0],[0,0.75,0],[1,0.25,0],[1,0.5,0],[1,0.75,0]];outlineConnect=0;fontColor=#232F3E;gradientColor=#945DF2;gradientDirection=north;fillColor=#5A30B5;strokeColor=#ffffff;dashed=0;verticalLabelPosition=bottom;verticalAlign=top;align=center;html=1;fontSize=12;fontStyle=0;aspect=fixed;shape=mxgraph.aws4.resourceIcon;resIcon=mxgraph.aws4.glue;" vertex="1" parent="1">
          <mxGeometry x="730" y="196" width="78" height="78" as="geometry" />
        </mxCell>
        <mxCell id="LdLC13Cnr-siAU8TwVK--33" style="edgeStyle=orthogonalEdgeStyle;rounded=0;orthogonalLoop=1;jettySize=auto;html=1;endArrow=classic;endFill=1;" edge="1" parent="1" source="LdLC13Cnr-siAU8TwVK--7" target="mf0w1EBOHu-Bmzb6V4Uy-31">
          <mxGeometry relative="1" as="geometry" />
        </mxCell>
        <mxCell id="LdLC13Cnr-siAU8TwVK--7" value="" style="points=[[0,0,0],[0.25,0,0],[0.5,0,0],[0.75,0,0],[1,0,0],[0,1,0],[0.25,1,0],[0.5,1,0],[0.75,1,0],[1,1,0],[0,0.25,0],[0,0.5,0],[0,0.75,0],[1,0.25,0],[1,0.5,0],[1,0.75,0]];outlineConnect=0;fontColor=#232F3E;gradientColor=#945DF2;gradientDirection=north;fillColor=#5A30B5;strokeColor=#ffffff;dashed=0;verticalLabelPosition=bottom;verticalAlign=top;align=center;html=1;fontSize=12;fontStyle=0;aspect=fixed;shape=mxgraph.aws4.resourceIcon;resIcon=mxgraph.aws4.athena;" vertex="1" parent="1">
          <mxGeometry x="850" y="330.75" width="78" height="78" as="geometry" />
        </mxCell>
        <mxCell id="LdLC13Cnr-siAU8TwVK--15" style="edgeStyle=orthogonalEdgeStyle;rounded=0;orthogonalLoop=1;jettySize=auto;html=1;entryX=0;entryY=0.5;entryDx=0;entryDy=0;entryPerimeter=0;" edge="1" parent="1" source="LdLC13Cnr-siAU8TwVK--8" target="LdLC13Cnr-siAU8TwVK--7">
          <mxGeometry relative="1" as="geometry" />
        </mxCell>
        <mxCell id="LdLC13Cnr-siAU8TwVK--8" value="" style="points=[[0,0,0],[0.25,0,0],[0.5,0,0],[0.75,0,0],[1,0,0],[0,1,0],[0.25,1,0],[0.5,1,0],[0.75,1,0],[1,1,0],[0,0.25,0],[0,0.5,0],[0,0.75,0],[1,0.25,0],[1,0.5,0],[1,0.75,0]];outlineConnect=0;fontColor=#232F3E;gradientColor=#60A337;gradientDirection=north;fillColor=#277116;strokeColor=#ffffff;dashed=0;verticalLabelPosition=bottom;verticalAlign=top;align=center;html=1;fontSize=12;fontStyle=0;aspect=fixed;shape=mxgraph.aws4.resourceIcon;resIcon=mxgraph.aws4.s3;" vertex="1" parent="1">
          <mxGeometry x="620" y="331" width="78" height="78" as="geometry" />
        </mxCell>
        <mxCell id="LdLC13Cnr-siAU8TwVK--14" style="edgeStyle=orthogonalEdgeStyle;rounded=0;orthogonalLoop=1;jettySize=auto;html=1;entryX=0;entryY=0.5;entryDx=0;entryDy=0;entryPerimeter=0;" edge="1" parent="1" source="LdLC13Cnr-siAU8TwVK--9" target="LdLC13Cnr-siAU8TwVK--8">
          <mxGeometry relative="1" as="geometry" />
        </mxCell>
        <mxCell id="LdLC13Cnr-siAU8TwVK--9" value="" style="points=[[0,0,0],[0.25,0,0],[0.5,0,0],[0.75,0,0],[1,0,0],[0,1,0],[0.25,1,0],[0.5,1,0],[0.75,1,0],[1,1,0],[0,0.25,0],[0,0.5,0],[0,0.75,0],[1,0.25,0],[1,0.5,0],[1,0.75,0]];outlineConnect=0;fontColor=#232F3E;gradientColor=#F78E04;gradientDirection=north;fillColor=#D05C17;strokeColor=#ffffff;dashed=0;verticalLabelPosition=bottom;verticalAlign=top;align=center;html=1;fontSize=12;fontStyle=0;aspect=fixed;shape=mxgraph.aws4.resourceIcon;resIcon=mxgraph.aws4.lambda;" vertex="1" parent="1">
          <mxGeometry x="446" y="331" width="78" height="78" as="geometry" />
        </mxCell>
        <mxCell id="LdLC13Cnr-siAU8TwVK--19" value="turingquant" style="rounded=1;whiteSpace=wrap;html=1;strokeColor=#000000;" vertex="1" parent="1">
          <mxGeometry x="500" y="690" width="120" height="60" as="geometry" />
        </mxCell>
        <mxCell id="LdLC13Cnr-siAU8TwVK--21" value="" style="shape=image;html=1;verticalAlign=top;verticalLabelPosition=bottom;labelBackgroundColor=#ffffff;imageAspect=0;aspect=fixed;image=https://cdn4.iconfinder.com/data/icons/ionicons/512/icon-social-github-128.png" vertex="1" parent="1">
          <mxGeometry x="323.75" y="662" width="28" height="28" as="geometry" />
        </mxCell>
        <mxCell id="LdLC13Cnr-siAU8TwVK--36" style="edgeStyle=orthogonalEdgeStyle;rounded=0;orthogonalLoop=1;jettySize=auto;html=1;entryX=0.5;entryY=0;entryDx=0;entryDy=0;entryPerimeter=0;endArrow=classic;endFill=1;" edge="1" parent="1" source="LdLC13Cnr-siAU8TwVK--24" target="LdLC13Cnr-siAU8TwVK--9">
          <mxGeometry relative="1" as="geometry" />
        </mxCell>
        <mxCell id="LdLC13Cnr-siAU8TwVK--24" value="EventBridge" style="text;html=1;strokeColor=none;fillColor=none;align=center;verticalAlign=middle;whiteSpace=wrap;rounded=0;" vertex="1" parent="1">
          <mxGeometry x="465" y="260.5" width="40" height="20" as="geometry" />
        </mxCell>
        <mxCell id="LdLC13Cnr-siAU8TwVK--25" value="Lambda" style="text;html=1;strokeColor=none;fillColor=none;align=center;verticalAlign=middle;whiteSpace=wrap;rounded=0;" vertex="1" parent="1">
          <mxGeometry x="465" y="410" width="40" height="20" as="geometry" />
        </mxCell>
        <mxCell id="LdLC13Cnr-siAU8TwVK--27" value="S3" style="text;html=1;strokeColor=none;fillColor=none;align=center;verticalAlign=middle;whiteSpace=wrap;rounded=0;" vertex="1" parent="1">
          <mxGeometry x="639" y="410" width="40" height="20" as="geometry" />
        </mxCell>
        <mxCell id="LdLC13Cnr-siAU8TwVK--28" value="Glue" style="text;html=1;strokeColor=none;fillColor=none;align=center;verticalAlign=middle;whiteSpace=wrap;rounded=0;" vertex="1" parent="1">
          <mxGeometry x="749" y="276.25" width="40" height="20" as="geometry" />
        </mxCell>
        <mxCell id="LdLC13Cnr-siAU8TwVK--29" value="Athena" style="text;html=1;strokeColor=none;fillColor=none;align=center;verticalAlign=middle;whiteSpace=wrap;rounded=0;" vertex="1" parent="1">
          <mxGeometry x="869" y="408.75" width="40" height="20" as="geometry" />
        </mxCell>
        <mxCell id="LdLC13Cnr-siAU8TwVK--31" value="ECR" style="text;html=1;strokeColor=none;fillColor=none;align=center;verticalAlign=middle;whiteSpace=wrap;rounded=0;" vertex="1" parent="1">
          <mxGeometry x="465" y="556.5" width="40" height="20" as="geometry" />
        </mxCell>
        <mxCell id="LdLC13Cnr-siAU8TwVK--40" value="" style="shape=image;verticalLabelPosition=bottom;labelBackgroundColor=#ffffff;verticalAlign=top;aspect=fixed;imageAspect=0;image=data:image/png,iVBORw0KGgoAAAANSUhEUgAAAzYAAAJECAIAAABLsCZoAAAACXBIWXMAAA7EAAAOxAGVKw4bAAFLh0lEQVR42uy9SbMkSXImpuYe21szszKzlu7qBY1GY+UMwaFQZIQHCk/8wbyQB85lDuRsAgLEMgMUuru6uhZkVe4v33sR4W7Kg0d4mJuZqqmZe7x81a2fANWZkRHu5ua2fKbLpwYRQaFQKBQKhUJxn1BpFygUCoVCoVAoRVMoFAqFQqFQKEVTKBQKhUKhUIqmUCgUCoVCoVCKplAoFAqFQqEUTaFQKBQKhUKhFE2hUCgUCoVCKZpCoVAoFAqFQimaQqFQKBQKhUIpmkKhUCgUCoVSNIVCoVAoFAqFUjSFQqFQKBQKpWgKhUKhUCgUCqVoCoVCoVAoFErRFAqFQqFQKBRK0RQKhUKhUCiUoikUCoVCoVAolKIpFAqFQqFQKJSiKRQKhUKhUChFUygUCoVCoVAoRVMoFAqFQqFQiqZQKBQKhUKhUIqmUCgUCoVCoRRNoVAoFAqFQqEUTaFQKBQKhUKhFE2hUCgUCoVCKZpCoVAoFAqFQimaQqFQKBQKhVI0hUKhUCgUCoVSNIVCoVAoFAqlaAqFQqFQKBQKpWgKhUKhUCgUStEUCoVCoVAoFErRFAqFQqFQKBRK0RQKhUKhUCiUoikUCoVCoVAolKIpFAqFQqFQKEVTKBQKhUKhUChFUygUCoVCoVCKplAoFAqFQqFQiqZQKBQKhUKhUIqmUCgUCoVCoRRNoVAoFAqFQqEUTaFQKBQKhUIpmkKhUCgUCoVCKZpCoVAoFAqFUjSFQqFQKBQKhVI0hUKhUCgUCqVoCoVCoVAoFAqlaAqFQqFQKBQKpWgKhUKhUCgUStEUCoVCoVAoFErRFAqFQqFQKJSiKRQKhUKhUCiUoikUCoVCoVAoRVMoFAqFQqFQKEVTKBQKhUKhUChFUygUCoVCoVCKplAoFAqFQqFQiqZQKBQKhUKhFE2hUCgUCoVCoRRNoVAoFAqFQimaQqFQKBQKhUIpmkKhUCgUCoVSNIVCoVAoFAqFUjSFQqFQKBQKhVI0hUKhUCgUCqVoCoVCoVAoFAqlaAqFQqFQKBRK0RQKhUKhUCgUStEUCoVCoVAolKIpFAqFQqFQKJSiKRQKhUKhUCiUoikUCoVCoVAoRVMoFAqFQqFQKEVTKBQKhUKhUIqmUCgUCoVCoVCKplAoFAqFQqEUTaFQKBQKhUKhFE2hUCgUCoVCKZpCoVAoFAqFQimaQqFQKBQKhUIpmkKhUCgUCoVSNIVCoVAoFAqFUjSFQqFQKBQKpWgKhUKhUCgUCqVoCoVCoVAoFErRFAqFQqFQKBRK0RQKhUKhUCgUStEUCoVCoVAolKIpFAqFQqFQKJSiKRQKhUKhUHwvMdMuKAMihh8aY6KfTwVjDN+G5BeYKx+v5WUXP3ZnMrfwujF3GPCX4n9C3dr9lddseWslY4b/fvflZKdJXlz4FFltG/Pict9awVuO3pR/cQWzNTkSipeprFGR1QnFPR82u/h1F/f8yJkuXNNyh/2YBWeqKSCc6eN7QCmaYmLedpfX77eBXH5z1JYfu1vuoD+L147cZ5esZd7nI7s3a9tj7uW2vOC+0StTtysgstNyuDIOPdVE6K/zXqatpPPHsGdq5Aunw+/ATp/b82EH3qtF+96u/98LqKNzgvHXIToi0YH7ifuH8Jshkg3w7h7uf/zVwjNTdBsIHyR8Fsm+SH05uQrzncb3SdlCL1xfmLvzw4Z6KdQu1e9hYxa+kT/P4rhZu6lkwE/14phBMrIDmS1WODb4G/UTary5N3eaTLL75vZeP+zvcrgyS8okFDm6kB7159Q6I99rkltJ9HMhs1Qmp1a0e2RI6/0U96RJwpNof8CVP2b0GaMfMtu514Z7fjg7nov2Dpy/BaNrEg9X8XMVTyLvh2MmYzFTAdZ3DDH3sTsGhMye+c7IJajs57m/oqhtMZWnej66ztzNMns3C/57MSsq91KKdl/2J3fpDDcAydnCjTKJntjCL0TvaIyx1mbNTyYwK+k/8k72UateWXRL+PjUNsN0b7TNYY+NYUXJ192jqireJ9g3LNpp8m5khspUBwa35/nxXLx5l53Iu37up0AZreefS/6TpBVcQhbvYJ9jFpCCseEN8qxIu+7WYwjTtJ1GDcIxjIe5CHU7yezOZcbeFHYNltFlKjrl3b9mrQPhINEoNL/rlOGOnLRu+Fc47EJeFR6FmX2OIUPUdXhyIzxAez+JTkVqOkW7IklHkpuchJpETQ5jVs+7CTTOIgffgzUlc0t+v10x3JCMMe+z88tuLUzUyLp4lCdNNTxCe7k7ZtwzzHvvYeH3+aNI7hkmq5EjaU2ZSbVslZZfSomaWtGmP3om6ZT8ZCMhBPxJjj/2CS1bSfOS/L7yi081OcucKclfMTE944/UYe/d8xNUv7zy3rcx+98k44EnHNZai2gRu39DgMqYyuwwyVOUzTVhBgZjnwgPVxN6Ocve8hiPdlnAVpk1Ts6ToqSTN4+N7w3q5FzGz1xXctkayAcyTpVnqhRNcfTzonziRX2j4XoXOhaTp2o3pGwS/xQzM6MpimEjo0+dtLExOx9Fjhnj31S7Qm7i1d0cl0faEsYIATD7yvj2h37h0BjDj6hN09ysN7fbZvdDMPNZvVrOV/N5VVUhdxe6Jr3WImLve/U6ocBuVDDMov860mQlH5NZo1dirS9opJzW8KEdkjUWYg4WYW/wbkHq1tHIjdDXn3xeeXeFLtHinUKhFO3ox8Qow0j+pB/lIW3ywgJcT3+YauSZx/iVV0JcskJwCo5W7vrlLTpTZW9RDG+MNU5OH4V8qOzse2e/AkHYn/DiwlRimMiBInwF27Z9/vrqi2+ff/Xy9bZtAWFW148vz374waMfPn10slgkT1nHsEVJrDLCbd5bOuQiVVHLSu67YDgE04FuUFT/r9baMXELY+xVBSPNTatKnogk1j6en4WQdJeQCyZfXHSwUfM9DJJWKEU7roWMUpJkfsXbrrxVNTr5GUbo/irK1ZLuxWi4W9RcJ7GQh9/hv9n/a1VVwl0hl1CON5jJ7ShM26gkgzCssN+rwrMyJSXljYcsdw8V45i1uU71yqJ3CXujHy3usEnujm2Lr99df/7t83/47TedIW0xm/34ww8Ws8VHjx6YpUEAI3hkfhRlWUzlPc+72DwTiOuVLjDYMMOeCsaFzCwcymzmTgF3LYr6bSm7kdBqFfXdS0ZpdLoxcxDEgyrrcUIvRLSX3Ibl5ujwaQfevRh+3M/TsOeVYChFuwvqFi7clFZ71KFJpQUIj4zuZkmlJlC7qXuv/jRWXCFALmpaJjjkWRD5dWSMjFbxSBBatkIzKhBCd+FP5HRhjOWgQAyM6ZAxgflJQS/x46MFbKzdNu22aS2iMaZpbIstAgKAyfHzJpM3C+x8ZfMlDB4QGn0LBk/0kJB8IsYim+xeSv2xbCBFHXa8uB1lEwqdHmOC6MfMC2rTkWuX5IpRR3c04YyQWFuVoilGMbPiDY9aXgsS+CXLNyVjcQwUxyYLj5sTJg9KcrKmGg8TBsiPvNSEInMFjPAYYy//moiIFrG1aNG2CBYRh/0xlXgYZRopUFeJdr5LCCQBqVPN8YJCDvJteIxzM9e2XUyePCr2HrUbi+3fVIPHj5PQsBdufPc/NUop2vfbYEaNaT5Hr6xKTDJAvrMVu4HJXnxb8fQrFgXIkrodk7qVRdrGZ3rfQTZiAeuaZEsuUB6JBheOf0ymAYyNWV5dFFw2Buj8vXwXT54xcrO8JUEUMJHgajKcKJd/JGclFQUxYXlHqtmULLZEJKgg6WdMX0k0OCckOpOovmWNcCUVStGOwtIo4hUyBi+QgvEOFJCV6KTl1XSP3T9JSueFIxzMGrLQ+76XeKeJu+X0wXlJCkLF6PTvRaK3It8aQ1uLRHFX4o7JpddRMXfPgZ71QvufuJ0/rWc5jLlkjkPMo0d5W/SCEnViykiW7MYwhinL5OAxmyxJBRCng3gTKvdVuh92F2FScQteBH8eLjOZew/LJN270yFLYW4kx+JD6KIdK89w4ql21IKbtUYpV1OKNjH5kCy4BXVLsoosRdEvCrweR3FyFsOBsrgOo98mPzFnJahn5dvyd5zWMk/VIYWi4IxinyNVLC83uIT/7Uh+JplTTHklUZCNAd5QJ8/XLrZVh7Gk0ZEsyQQcY/njTwXCyVK2tlB2o6wGRFfsrIOucBbwnS/vYeqfRlYXlO9Qwkr2BetSsnxZcfTe7yq0jPr0jI3aDDxEQ/Wj5cxdLx61lTKbAV9pRCi8CaWShkmjEUxROyjLSFDwcourFE9ya8lWx9y9rDw2QxlzeRvVEqbw4pgIayYJJpRyYG1pyM8a989Ztagl7DzZt95KImFgYa16qkzTmDcrH118y6N5nVRyVVYVcKHZhiGFbs8nH8Gz9HurenSJHu8/LR6NUS4VLSofDqckOaYaqRRCrWjHYmbCwpfhCKZUjnLzA6hYXXcdTPKhSSrvTpg/mBSWjMrFQVEWktzCRJ1ry16cZBTl1o+XBBqOCeihxlKxkW8qMUygS2gwW378OoedCTrFDUnYddKgCwJPk/DZmaPdGOupuyjlvtmsVSV83ixxV6HXWO5ES5qRqF5KcpFkD0STuCX2KkmZE6EeGxDVNnNfdyhEkBxC02Z5qxVNMY1pLXnSHVOkb8zue8e9IUw9K35S6uA+hqVFhTDGd53wIH6MnhnDXCUbOXNKLiB2/C4o7KvEXfb/6d4x8+BUsE6uf21MjbWpDh4jx20WpUu+oPES09OO8/Erxh3sI1F6PcnQ4s821CE52hXR2Xo3G5Ba0X4fkRxeoforfylKdzEqk5v8POrXd1WnhTE60XxJSmeVmfmUDBg4lXA8nSH+FuFTS+pBUYV7qdwxynFGyU1JavMxB2VPdcmTuGPOzVny5fyt3fBtanV2m+SK5/HCKLwmn1DTmN9aqNyd5Djf38z738j4YVJ5+HEVzbOWV+mhhGejRXsgP+mSGjPJzveehZF+cH18koAneUGLkUUqGSNo+LWk2SnrZMJI1kkcNf3CDqn4Y+ah+Ha6lw0nO78uhcM79M4fw/uhFE0hWk2E55UkW4pabkJHajjuJTSizA4n31+F1yyLP002TNISRgqV4aBj5Kwo4p7b+GgRyawupeh+8onkfrGyjuL9nvLzT44FDQN6FrfVSaSSga1+KAnuDMde9CSWJIj8fZNLhFxlLSvjJ0p0GB1HRo8ja8Uu63mg3cHymxbfmtkXmFI0zLtOljTw+iqacl5mfYxqc6oVLQp1dE5sUQuXyDGiNcU29oI6M3L3kOvoYXamaKrE+zV2TqLXVSyfxtMUeThOtDOTBglhAai7V2YBWaZFWahfkVqYGTMrx4eFTTLUhT0wMoEut67RyGfPnX2TRNTJv5/rAcy9RbFZbhIzRG7Pe51fFt+mUCvasSxqvLUs64jJm16ixeBAoP3jeUmopMjQhxK1qDMHXz6PnT93ytdWz4npPktBDSsme4Pv/2KGwasH8aqVSVnOMANLoh45STH7qQQwwyQ4YY3qzFBol8jGJ5dQYYsxn+f6sOR2zWjx7LC0Jf99EBdukj9CkqYwEfr9J57AWJJfUvWLJRlUzIoUuvyozpT4AXnTlOslpLw0WepifKcxK4Ak9Da64EBmtRiFUrTpzTPAuiaj3gqm6nCSWkW5SLLybvIuQs2O4tIuZadqyTbPhy1PWzagOHOzeDGihpn89CzpjaysujHHDIqyJIfTmAU9vE7XdOsVF+j/hge6NhULgZRfnle0lhg2suIRx5SPlI8Wys0nDLfgh+7IWP5cvzzPPITDGAQZmrw7cszpSP75yBCCAk+OKqKFUEfn0QncsUVHvR8yqYvTliiZnIhM2xsj/ar3dqUoG1THeHDxqzEABu6qP9MMqd9fu/+i3zQTiUYz7g8nHKVHvVTZFu5+4fcnPEgSPl/wjsrmKeOdiFrf7/9rUvGzYqgV7ei7aXhQ5pfIMsV/YWpS9GyUq7NFOTqpGgOM/4IviseY1nkPlJcwSOW75a6SVC5t1v6XTK6keokpDCWMdwx7g+nSZDFZ/tU4/dANGgQDYZhXMho6N011/xTgCc+Gj4x9a7wnMLgX3OhdqwPxjcNF9lfnbY1M/R8mIpsaS/JyPfzbT14nd2CP+TwaDsGsCcK2MZNUovAntPNJco2pOuvyMU+5qqm1bszr8C6SdM4kdx8+3Xsqu51SNAW3T2SViBEeZMcc43JTC0fOimK5tX4PE9b7E7a8IFh7pBqTPMqwrD2SEKipjqpZdgL2ywYA0VpoGwTfYGUAACpTVVDVSdabrIfYt/zden272ba2BTBg6OB/BAC4WW9fX9+sN1vcMzWLsGnaq5vb52/erpvtrtV9PSgLALjziO7TZiowy8XsZLGoqwqIKpPU8CZGL1jbKa4gGhw+BBpjqqquTMa2On6eHmkGyUdgv1DI1+Qxy69wjXWblOz5kUEg1IFWODWmNbIW7zhKwpSivTeiBmxKfDRSWFiskDKT8CW3+Z9HT3USE5HkQBYqOFAViJkidJSQBH8OY0yYBZSOOvsy0SrF6mUgi21nniIpXCc0UGVFfbHtQUTAZm2vX0C7dYK9OmpTw2xlludmvkwGfjEx0e5ga6z99vXb716/vd1sEXFP0UzMdoYGzHq7ff7m3evrG2ttx9Is4vXt5l9eva4rc7KYd7a/jqdh90d0OaYxAPPZ7IOLsx88frRazOv9OE8mc9BVqgARb9ab69t1s2+VyyxndXV+erJazGtxwCUzYKKqbHIbP6NuxShECFePLNIQrrq5NTEpO1xZxF53bndtqJK6mcmeZ0zsXpkpqud5S2TukgX5skFMHLZCKdrEzExS+FJCnsqUnSNB0IG3Ilc+KuleZAgoP+GpjAqBUSHtOQVBclNBRWd51phwnFDZIdSNkl4DRq00lIhk3JTMCp48UVAqvgAAtrVXz7a/+Y/25tWe5+zYTTU/rc4/mT39uXn4A2NqyDkeUG1rWvv181f/9NW/vLm+tYfW4p6c+ddsrV1vt+9u1421XdNai29ubpvv2pdX7+qqHtjcIDACAlSVOV0ufvbR08cX58vZrI/vHaGkitu2/eblm19//e279XrriznD+XL5Zz/55MNHF6vFQh5zSZ1/MkR9c3gz0OXvqOtE87jlJKmsaD3VBp6VyrWy+TlYLMkhrD34XpRfyiyvGqymFO0uxhkjUn9UI7OQ1SU1KosbnNukXGZzvFcmaTmjD3nUpyguyH3sbokS9zgTxRavn29/+x/t2y8BzcGMZUy1ejR78qfV2aP68mOo60nerLX25dX1ly9evXjzrkU0rvUp5vPE/vzQf2LxZrO93W5fXt0Y/7tmZ0hzwthmdXWxWj08Pd22LQJiUlct1e0I0LTtt6/e/sNvvn5+db1uGpcVWsQPzs8++uDy4fnpcj42DSNLr0Fiu+I9bjz36ofQfditJwn/KJhx4wNO3osebHFf3ZPXrRTtd5acUaYLfk3kD09hPdpkFEI0CSBX1Ua4UgvrPiW7K2yq5KDPL/RjZEUpWbgCs5/cDso0nlE3AIFCQdICQSWO8MJazLoc+XN3kN9e45sv8NWvwBiwBswudcCefmhPHuP2xgJWqYWeV9UfPEUX/oZoEQHQ7HM0Y5Ywxxrm/hURwNjg+wbQAFow6GhytBZ3txqa6aIR3Lzba/c5okW8Xq+/ffP22Zt3N5tmwEERty3ebLYWbcg75e862sgshTDJGAaBB1Y4O5LkIJkTwHvujioAC6x/gB/2Qp2U5NznkyegyG7Ny0PywRi8HVehFO1YjE2o7MfzuehKygcuyOOHokWlxrg2JAcpxr5Imbsl2kuSRDn+jnzjRx7yksGCpClFdirlV3A+4CYr0VW+qw0esxMgsxbaNbbXOybWF8FsbtE2gNYA8qaLTK1R3JvPdjYvA4DML3rXa1dBfZhjgMNAtv5izp8R9xmfyHaOMNSpm5MW7bZpN9tm0wwpmsVN26B1zJQyqwn/ruWaXhLKVRaqH65ykpUhmRU+SXGR6HWS5zcvPow6WwqHPQgiNQvU73IDYPiLlLlHVBFNKdr0bCwZ6jitBXsSm7CXoc1I/yf5lvtNYSZmtKLoVOtmgTmwwN4m19HN1Q2OVsdLLou5erN3YFEmm+0kJu4tadWQmZjxj1AZc7FaPb28mNe1RQvGDFhVTxDRMUo1ze1mu2maFgARKmMWdb2cz5aLWWUqgKEzcW8t67lfXZmzxfLydDWrKmMMYp7zUfak5qCla+B4bzdcGbIWnKiNmRnqU6npTv74EpYmDLArnptH6opjaAhQGWxHPf0qRVNIh6ykKFBu+W1JZD3Eagl7mUTM3SVMIknOsk5OuSf7ZKuKM9jL0hSYBiRJZ5ajWRJHEr1RLmEdk7BGXY34gXEpGliACg8eyL2SGeVrk5uE57P65z/46PHlxbppcBcYxhmW1pvNs9dvPn/2/LfPX9oGwWBdmQ8uTn/85PGnH35wulikmBNUBuZ1fXl2cnayrEwVtlRYTInt7T3tiz2NkKZTDko+BXJ8AnLyoMivBvI8p/GeSqbT5B5Dxn/HlJkZWaRcUi5dktkgnOZUeElY99mzjEZznN9j+WalaL+P1O2O4zQlFGQqa//vJwUf/7X31byj2sy8MJpEk4bJlLh3QQ7ZzgSoq+rJg4uH56dhMptfNQDBGHi3Xs/q6sXVu/pF1ZgWEWpjTpfLpw8uf/bR08vTk1Bw14v/6vacWV0v6nryuYXfw7GRNX7kz6JGl3v7miYcivqWlaId15zGLCu84UEiOi/5hDrDSYohRo9xSc3uqNs0es4OD09UUULh6XzCAFigw608e6TQ+ujm20vMlmXHAEkonlAaAKbzrcSugwBgrIEKEBAqBKwGNcv3RaKKe6n/yXI+W85nYZNw/zUnTg0MwGo+n9e1I8wGs9os57Oz1fL8ZOkd8HEf6Ub1vETjnvokdk3cVWhATDJZJt8FZMr4xSdMSYwUk9YtNJtJBL2S5i7JAAt1gIVJD/JyusKUqeLZF/pSkhYv3toXPguzsnmboDAoVo0IStGOZTOjJm0yczAauQ9sRCqvD5mUaLe+zBIyGzbIKvAIdWWZOiHJyu588SV5OV7KPxjVEBJKTUaXWj5Pk+nw5G7KZOdRT0ptIXxTwwwGIWuMd77xjGYYGol4D11S/PnwW0QYUn/TV3Hq3J/ObQIu2RUVhQqgCrPPYu89GbAojHPYXWeYbmGM4948ZCaQBzM+6IKXaOY7P1wWGJG/JI8R6sdKjogjOx/ENY4kspTM+JQnkvf/1IX5MpdlVh4hlU8mxUfDZKl+Y9Y3iX1U+ZkHLaN+RBOx8KApH5plByzj4NhKhkeqIjWeSecqt8l/+L5G1/gM3KP+NjShdd5NBIIZ5Q8Prtq0gFOSd2FFmO9kNAwMZmbP1Pa1DO71kfV7evH3svhLLHPCM5LwC4w1faq1d+SWoV5OtaIddyryByN5IZ2kZ1PiaGO+IEllkNRlyloFKNsVZVd3TQKS4kuSFhb8U1bt5NzrJ8MEKQe05PrytNyC70eHEHFu3luwjPuRtBAnM3qFFayjt9j91nBEKbQtdTyJMR4wQiRe4jNlVXJ7CsEcaoR2rY09Dl+gAgQqhpJlIRSFyVoAvSxRpkBZKEjhLgJU54e1j4TVzaG0sClj2ZWX1Ev2PMQCZpiU8+QKyZQ3iA4hxt4mcW4I95FoSUCFUrTJDnYSqZ5kbAS1RVHUzf08WWXSiyeIFieRkLMwkVPisGPcmpTnYnxtEEmoRIfeoSDsBMoJyAfkMcscv2qDuAoT/wmzK0Rd80ynSWrXYFcm0zGbHb5s4lJlkiAh+QpOlWplbHno+DSTUr1JZtaFFiSVmYOYIXSaZxD3uRU4+AoWzQi59LFk788yIwlPO/JMz/CyBYV95QcwflqN6fyCEqsUAeI9zt4yIpFek+vlJvVTphpgvz9QR+dR6NrdWG4nCSyd/PojW3XfuqvMIHdn9trvj8EZgmrgAPwHo5/9eJ0moYnl5wpPuq3bSqP9hHCvgnjurA3FTPF3aWeZ/KXcsZNRUwTUinYXgyyqCC+3c1CTJHQKUPa5ZAmp8DDKFNSjDHLR0NeokZy3Onint+RBkPJ7AlsRKJkfWpABGrWM8qYIXsou6ueNdgvfyORgo14T776Rn4BTnda97p3QhlumafgUu88YlUuh/UxecSjxzUDvnjd1M/aP3tHZW8u4W/u1BjDOZc3B55lU1eKXi6RdrVi5kBmo4dvkMxLCSVemAlg2kqkkDMqwFx3ATPgK4wAtqDICAs8Gn2sPOcpqlEUtKQX8u8en1Yp2H1nayINRWahmWcUe718LgliLD2HhLlLgOpEcvJKrXu5DRfcSua2luBlj1qy+u6ILNz/kCmTlk724u7nHQwzFSzLe6RGsFnmTVz4SCgttUfFyyLVBOBnvm/2JIeKTVGe5g0dDNt1kWrPW+Pd4DEfKfRtUakVTliY6C2aVuBaWY8r6nFr+eMGLqNgb5IfWZlkThb+VBLDnmlhClSCJNSJrKUyaP6PUhAqnleifCVk71YHRkhXRZyHsTPFx5xbOdHXRkoTYO/cnVZei9gNyAB++H7cEMFLpjEBg1K6QzArqFECQKJGACFUlMvwIs23CTpNr7DGjxW2DUCoyKprIT/wso1qWOhrVsVnZEnz5+eSwL9sRmLWC6Z/QWyLRraQseVHvSu6gUoqmmP4IyIQqJxOvonHfTKaPJKWR1wmU7O5MllwZr01mdCbX2WkDGpg8j6TaWVmZasl+KTwSlFXjkQ8nedTwGGrOGx3DXM7kYEgmLIctGFj68h2+8rBUMWs0fUUGx7s5cHRGE1bkolnh2tURLD7dMkoF+DpOcim1SVztyWHGtEGSBUnl/eRGyiezHLwtQLjyJ2e0sE/GZLtH52wyB1mhFG16fgY5ZbaZVDvIlMVPUsYshUnhJMzdgz11AMlpNdpdE3KypFSs/EZMQfrJGybcyXiBSsm+KGyGxO61j0gT1fxJ6uOPrGSf6tASg+7Ig8GgwVFPGXAF1JM23VyPGKNfnSVtKlmp7kPFvLKhUlzulh858p6XUGcQiIZI+oSqrKo4KjQWbQJaRjmnkkEJ8n8tnhg9v4nSI4kuorwmFQSpBp4uNtMzcsNDUo+U1x8p+2HyGZObluRS/G/53ks+GvPXZF9J+jzVaQNXHWKktIBTGuAoScHhi4t/rY/QT704d1pFB3z4eXQW+ATLbw4WyGuMj5GVr1ryccIPVwkDoJYR/pqSldn7frHeNeRHgDFUKXcuSDYdJp6B+bnbM2F/Cl8o3zzV3VAr2nHPXlEuwluYw0OPPMggaYCJnmU9jwavpQmsYyKagBn6XHpdKOrMR+V4JhUmGdVKiSJlrgWLSmjlqWRumT/K7uh5B8qsKcx6zVxfEsISf0AEPKiwouul86QkYFfcKFt6I/f0ko7YSxkhmNi4qIcoDODjG4NINMYv4B5pZH9BT4yNsvckBRfdxSTLiBIOp6x4XEnPu16z5FCnwqGoaCqJhYzqNKrzk9fhp553TSqATzLSGCemUNUSUrnhkjUq+RYUakW7I0ub8GA0YXZnbvGiMbMiORsZAwYVvXf3VDtKl5NHz+jry0r0o/jZ5L2RxRFzeU/UGIlEwScjdieOly9O/7CThTVu+UsDAFZwHSppN+vt+9a1Q4X3YVftSO0dWdSEczm5Q8tLGLlEUP44kriRcJ0peGvjh2KywdNeWXK0KEixyjUuqriGUrT3TL8oOy0VMkkdpHorlCRInGIDPM+gVBjCk5xE8puyxsHURSQZqidc1pnVwUs3S5Ld7jtMNQJgA8P5npcU54lm5nrGy2QtqaT6RpawSPJXpkuPnI5M9Deqqiprg4kYA8BUYCpjqqqqjDGmqrrmZhIgifHbGNM1OPWkOOzi/n9NyNCqatfwgi51e8/9pje8qUjQssMVP2bklSgl1KEsdFXOKpJZVsmcA37Rji7LzGIyYUaF5EVQpZ/5pewY58/fVaij87iGGY/J8YXV+KNVgYsh/CTLhiyJG+CNUvJDoZxmFVsOhCm0wjJK8qZKvDAj11Oqq5O3lpR/GdOAO5hfuWMs/HhWV6eL+eVqtZ61LcJiXp8sl4t5XQmqEhUYV6LlsWNpmHiga24NdyMaSEL5FX4QHls0Szhsxp8ixjeYrzE1rUWTF23J4lhRNfIJZyuVyc6YnKmVVkmbUrSj7BPRY01fLzkMxgzDtviM61CJnp9sURuPezVqUnXnaUayP2R73idJVhQlqV6RaapJ1DV7aYDoMzL7KyOrEZam7o0NyXqmvZkE2AqnoSXDPSJH+7O/LAzjUXI1C6IWwYhpymUe2NXyhiq0/vbNc8oGUBmdrgwatUcchjoAGFO53btvhgnusn933Vf8bcB93V7b6qo6XS2fPrzcNO2mtYgwn1VPH1xcnp7UdQX5udWMJiKV0dw/xIC3HfjZIEJq13HoFohK16JgoqwYqQV3ZLpzIbq2JGucC88DfQ0Gr5Qw86twOoSfh9fsvuA+jrtuS2JAGWkSoS082lFu/EP4EqM9z1c1yI0e887YUXVG/hxIvZEjcX2laIo8S2/WeZpaMSWiNUDnk0Y/CXPKouFQElmy3Pj3fjUEIksgXIujmQrCSHa+TBNjc0rmTPD2pzFpvF6sTFYyFH/m7ns+uv2EXvjBZd02hJ2w/4L72nb/7Rxz+wJQgIDG7CK8KvQi4WEfC+/UWY/csbuyJZ1ckQoW/QWju+l8Pvvw4eWD09M//uEn+xoIZlZXy/lstZiDTCM0WTANAQ2Ee9Uh/N9Nnti9hb6QekdTseOn+3LqBnua6zcPEQJWYcwuP8MYg0DoegSTK/xr0pwcrYlH5RlEOaubXRSdfVTPe3dx/8nN2GAyst1bh0e+qC2KGRt8vj/1IPJpHl6fiTZjNikmZCI6AOQF3b3uTW5VCqVoxyJqk9M+yBGtCU+ZI03ZxygRzc/85GUnL0WSG8Q6siLC3Q8qZjWM6oj6sC3aFsDy4elI3XxfCxybNbTbnU7+Ti3f+ZZtoFlDs0a0YCr3kui79FwS1l1/UMAATA11vb+IFJUxq8VitVjIx0wYNuB+0rR292c3WSJobM/QDJiQT2y2bdPa/e8R0aVyBhG2rd00zWa7rWxl3JxZHN6O+cOOu5u6qr0SBQVDfUK1wqySlJP47EY+L3WKZoxMkoswtnAJu4Igm1guskjp8Y7pN/VjKkV7D4g68hi5B76E7ZgFiDnZyE16Evs8c2RkfD3U6S1ZN11o2CtYEZImEH5JKqspHjUbRMMWPdMXxMI+knHTVH16SDieEMDYzTXevMTNDaAdRRTbLb59Zux2wE729A03V/bqWfvi11DNYcwiXs+r5QWszs3i1KsKwDiAIuasUnGm7oK32+31zebqdm2tzdDA9bgx2pv15uW7603TWse929s0W2tfvn339fPXVzebakSn1ZVZzOoH56enq6WQNAhXMMbEUhyB5A17RugkPIdEU53kzSjOipgq7SBrkRHuDgWVgt3+DIMHoicWuMcFYb8fHEONjeNNFKH0EV/aD9hYseiiwPi8qIQar0BeuGKGjrzkZsbkqEbNDN73vdCW8Nn7MJRkt0heDWNNzOK+WZH4kl2q7L7UCki9Gs+5GVJAtj3YPPtvm8//A775GprbYrYBgIitffdd+93/h5s3AUdYmZOn1eWP6rOnxtRj7gLLB7MP/7T+6E9mj34EVZ3FEqIhOMkSuuE4b5rmqxevf/XVt//89bObbeOQp9CYZgJmCK4Vbdva7968+/rF6/W2seiwPWOsxZPF7MdPP3h4tlrM612aZ8TQGP7VZ6TL+ezxxfm/+sNPf/LRE0PHLUn212glR0gXb00EezCmX2E771INlaGJyWOb5CAxxo4QrtLJ3Yd5WdF34e0U/UreL0TJd8GHyqkVTVEyJ5mFiYpQBkI8gjKZUMae6OfyJKyoSDRTUBkEAq08ockSqc/yd/DxFpIS5gV5l0LGVsbwcrsx1KJMVikgtxZEALQ3L9pv/7797jO7vjJQDeLFqD0/yhEMQruG5tq/JwC0G7j5tt1ctS9+aaBiuIx3r5CG1OcfmcV5dflDeGQBar7TGH4GRS7m7hatxavr269evvr7L755d7MecKdoZ3UhahCJukOETdOut43F/bed4u6bpv3yu1ffvDSu0sYhdM35u/++Bi/JnK0WP/jg4U8/eeJlVER7ibJzZyW0ChcrRrc2t8xRgbGceercpSBss/evfNW4aHZXbg3y5JJIWRbkyzW1fzGhhPLYRKVoirEHFGr6gUyWmvckUhOSn6jhaTiXaiQPNBSdoljCGBM3xV9DB4Rw2WUMfmGmlRtmLq/BCrSHiBdAcWP8wwj3aEpdQQWV9Km93eLmjV2/xM1rR0ARY8IPfaz7PjlgwAUQEBEb00f0d3HuBgxY027QNmDe+RxlwDQgdrsBOcHNEptbwCY6/kfaQqIe/HBXQwCLuNm27243b283ezWzIfPcR/jv+zJC0fb5qmBxIPzb/8Ui3jSNacA4THafDeBebn+vnl0b9x0aBLjebJt250stsPImCwYUCNZQzgfPxC7hRpRBS1gpocDZzRhZk03KtYrxfl75AhU6LoUnxmRh4mg2MZPBoFCKdkeMTTJhqJpFSVJFpc/Is6mBdpVGL1ssh8gfyNxFgU/dZ2LUqJ0j5IuU4ZA3boWMLfrs8ugQ+WLqFc5iomdGBrLEXxNawAbsBuwaoAIEQAMVRs1b2G34CFChbyzbsYZeIqInJabjIYDWCax3Bf4NAIA1YLofOR7wAYEzBizYDaB1bEkZcTBJv4+8PxERrW0tbq2t9hIgESMgWnB3xP3XKMMhGD95YkdW0CVhu5TZ3no5IIhhSwy21lq01OGH90jyJX2FKeGUDTiMeZJwuKTGYTJLRsJRysIVxtARZsHnFyu5IwVSlQmymF8BcdSiTxS0usD0CM8owrq80+YowbB6Oj/xKCpDGaKLyWvZhJ/qV3e5Coy514R1wIpuH/7RuHoWxgCYvaSG+38HixBylzVoXK7VKfmbPW/DYZWjjp8Zx0mH++G9+0uM1dBSLGXJyCV9exAP6UormJ5oeaJu3p+6wgaOyhy41U0Ph7r+/9A1wxlEg+54GJjoDGLf0cNXMFFf8XNTGMnA3/puTC+Sx4+Wy/TGTDJtZarlLum4KGZvIyeIUOlXLWpqRTvKNKYqiIcWMj7Hk6pNHp5uJYePpPpO9JyXNFnxPlbG2Zo8RvMTdUJqlTRtCi12yTSCgnMhk2wR7Tfva0zl7OzTxeH/jYGq4wIGe4NN72EzLn3Deu+8MxUYML2SlyujcdD7wt6SBgBgqp1ohKlM5xwFNGD2p8jOQrTTWdtphHWX7u/ImiolJx+mTDVkpvXtaY/j8MVDI4zjj8Tu2Q8/OVBU03cW7IrMg1eYyn3A3UsZTEFz8EzvNeoMmZTBT15e34HveeHZie/5aJN4EyBv6gM6lDYs3MSsS5Q50AuQgJRehnDVogSohcHKfA6WpIgZ9QXqyozanNfDaktTinZEmxkIfAG55TskSycz/yXx75NUp04mTExFhSkalJXkFa7ykuQMKpiacWRQiavCdXl87/FDiN/zjJmZ2amZXyAOLWShmejwzzsFLxxcFo1toL1FbF11VmMMQIWmhmoB1azjDxUgmmrvDR1c3eCBtiCATzVmZ1AvwNQSi0UWay8I70PPKOaIxPndd4gKC7R/YViNwfHhwt6E6F/WmLDmwMEYOSgjFW1RXr5OspPDFJZj9zx13GK+WVxVD2LVBZLhZUykPMOGs+Y4FZuRfPBpLffy4nLKzJSivX+MUabhzVFRVlHgLaWCbSVBtcmg0UlKzt3N9A4jZ7MMY5QwXjKnVb5DhLRyWivjztCzOK8vfwQWzea6XLEM0aDF9Rt79RtobnySV9Uwv6xOnlTLB2DMjtghIxNB5ZRidfK4OnsC85MRyh1jh5kxsJjNzk9XTy7PV4u5kyFLNwpjjlpEC7jeNrebbds6sWJ7Q1htzNnJcj7rJGejqbTABLb1pO1suXh4drKczfjTmsRaRjEYpvTt+J6XNJj3MzC6SBJDrCQvMrosjD93UavuVDH4WQk3vBCap+843nihFE0xAQODlDB07ubqlauTF6/1bscc4KInOf76Ba7M8eezgumdDIPlWamcDwmPsEwLk17OcHeM/oHXIk72vLn8wewP/pf65g3YZtRSb7ftd59tPnsJzbXLGBDBzM6qy5/Mf/CX9Qc/N9VslHTtfFWff1idP8mtLpDsH/meV1fVBxfnv/j04/Ozk822pdiRCdJUzdAg2VrcNM1vnr3456++vbpdN217+CaCRTxZLf/8J598+OjyZDHvfKSYYqYmlhs7r+vL1erJg3MDiVJpkvK7CctijsRaGdugokHk9jmhjJnk+Mob3eWzUpImyRzYisP/+QRPfnVNlhGLZj4pS1OKdqf8TL4SgcAmzEzsqDch9DNK6njkBiIw9ezCJ2WysnO7NHm844udR30xjA1S2C2SUtnyoNos8l3wWpOPU60ewOO5aRsE28erI2ndGlCvARFrN4Ct+dUSvYdFY6pFdfJw9ugP6h/8hanmXQSbxyp2EWnOH2IMB8BUZraqZksYlseWbMwQq8cahiV52Xnh1SpjLk6XVf3o4cWZtbZXudi3vFckOfwVAzkz2FcXsK39+ruX1+tN93Xc/d4g4HxW//jpBz/75Mn56YlTvT7i/nV7b/8G+26EqjLzun5wttqnM5gx1o4yJWd+e5YbwCAnbIBRJ06mi1KuTMpkSNUCYVaYaPQYU58+qX8LqXz/ZLUS6hHCizNGPkYoFIrUQ5SiKY7Fz+QbfzKEXH6ynKra2rH7s0Bkcvx7yTXLTXKjSTAmL4F7rvmyruc7GkHkTYZuOsQhTUCwzbpaXZh6Nny5nZp9bWYn5uRBdfbE1HMwkYLgwYYEw7itXmLM7EPppdUgmEJt/LBk+MRyMZ/PZ5dnJ33SZa8Ft+dYB/+j81foGbABsNa+u11/8ez5vK7rQ+6q6XlrXVcPz04+fnR5eXbaVewwDkUbluIceIiNw9V6flvT2a/8ypBr/BCqQ4cBXpPMiCyz0PFWs9xj6pEKQE+7soU5c8K9RqXRlKLdHT/jLTcgs/mHVCwa0pScSFGdaMY4Lwl3k7gIk6uVMEBYuJQwZnzKglhgt4uKNvFxwXKHkWR1DvPdPLqQu/fI9gkDVb3POCQ6bWjxAnCMRbvmWahmuyj+QV3xPS0xFVS1qWcdRYsRwD2/qOI5C4cG9BpsNBWT53UKZ3c4W2uzy1nYOXT2hkX567GtmdW1W9vcDPM1DMCsrmd1vZjVZk/Rpt2qKT5a4ByUmMTkZBpk4fNJm30yzl1i8JYkrVPhB7ne2LLHYYrgUb9lblScWpHMKi04G/+eQHXRJjudTGKSkd9ujGrRyIkhj7EIG8knw0/bb1nn+wlvlBUdWJDVEe1z3icVfRGityBsVeoniIHYbeo+eIS3P/lklFKvrJgq4/3goJIWXsccbV4cw9xyB109VRL0nf3wbvYmIS+c6lWqp1KtaN8zfuYeRKIK+PxfmQNKNBDBi6phot+i1dCjh9qkMkU0ZIGiApSJiKIgEhsAYz+P6s959YDD73Q+F4lKHNAuaUo0SPJQ0fCO3PRYYYCRhFlGhQAlUnaBgQyNSfeDUPCJF15Ohv7IDUvRucnbVHqbYhceR7nwIo0ckFXHnxxjaUyUD//4vJahZFAxIWVT9Txz02gRzOgzRl0Z8hpKVOAa4y7PsuILA7ZAkIsa3WVAVocw9xSa1WlURpTcsqgUTTHWfBK6FIUm33BYC80AwgBeainh5230apREYciQ5CdLYSHRcFHma6FSj8YsFjzVCD3OTBIoyNI+5EE/zKKf/NesI6+c8EnOFQeqge73SZLtkVqeNGR5rgmKIDr3U/4gr2J0QYkw1jyJB5MiSkmt3LrD81pIKbyM19wSCtlI2kw5KMvymiV9yPeGUAWJ6XkYEcNQFp0iqbAnp2IgqQVM71MKpWjfbwhlA/vwWzhyeKZcuD/6k6iyPy+2dNTWwhFidXOfImlaG/OMQjacfCJvOz/YJnFgCIozkPyBXTwSIskItkFs0R4KJexDx/YB/l2QnGzLT0ZBJb3eRLsdY5oxMEJab9ohXRyXxp8/GVsj5Ks959rnYHRRprKFcZILTstswhzY4tw4hVK090yVPKMRry4oMX1RZCVpdcsqxAYxAztf0D0ZKutu0pToBlW7milvFTWeQUqJR5gcypSOSeruRt2j/MV5kgoxDQhgs09CuV3hvsU7LimvumRx93/Y/ccYnp9NsgeI7JqIYFu8fmVv34K18atXs+rsoTl7yEd8JYOpGcGXdFVycEZO5xsuEoUPp56cykQNRbksgTI4ueO2+OIFPZ9FxcZQIolVLMtqlZXXJSklJ8wGyFU5ifoxkz5NzfFUinYUu5HQJMPW28kogRfSGqZaqDDtNBplxfhVqc0mjLrLcTnF1/GktpBwvwnbQ0WYFW9dSUuhkF5QwyNU/GKWzqjrh9kUo6GTzFMz4nB7JgRBzaNB5cnoAC8OmqGOH5FvWovr6+1v/r758u9wuwkKIQHUxizOFn/wl9XP/hLZulLyw4D3QoXlK0w0zwIP+bG85BU1zsOFgj8E5j4+5AjyJcvolXneqeVUKA8mOVHD6AJNIAuulRsmqetTOf65z5U8WiQXwGhevEIp2r0wthVU1RifozRGE0g4nYTFQ793eC8t92yQkuP+mHpfY0xZiXG1U12FXdn0gVCrCQoWGcS0yVkor5VoHlp7e918/je3/+//bm+uAFtPmNfM5tX5k+rkfP7Tfw11XTBIePt0zlMMP0Nwy23yGzPfG5KhJS+mNO3kEmZv8FFiUZ0aIS0b+XSSQi/uN/nXx/eGfIEdWYYOUlnk0gPSML9NuMQpRVMcy8zGWHfH25aZ2Orwh0LzMq+jRkn+REuS8zE6QuI48ohZfAKGlD93PJVhrIxJCx9DYuBogSAjzt8GwKABY7ATyh9e9mAhSoYYS+pxUTkriHjYDtoGmzVsb2AXj+Z8y7bY3IJtAJBRnB9TfDa8zsEJ65nN9hJxO1exAWNMT3ElVFtiaePto54Rly9DSfd8IncyabV1bZDFnU/1PJ9WmSV/L+lMoY2N6r1oFnySjPKrR7TZWVlfIMj0Z6y8Gr7mQXXRfpepofxsN1XlXSplcvKz0ST87PfZsFdsDskLx3YdnQbBpIW8RqZHeH52qlXez7z/M32hgtEUX97mwJBgojZJr0aWXK1gKgOYJIW82GA/VVePzIvkLzhJxKQ8cb5gLH0vLFJH2hrUiqZIHFD6MdfHDPHRQllLCaV/E87qZMQVlRxHHXaTAmDJNlOBdAX7AV9Kj4mqkegSMdaspHpc9IKhLhrVe0JbI1+Cwv1VNEZKGHFMHa+j8ivxYEG3RAB0RjSfuR2+z1ZOZD6nrLwgE4LflU9yaouioHOoNjB17nMsqcYnkUTLPMkPiXUqmsTjNTtJcbLq9vLjR/imJHY7nuXIg2KFi5vELsicNyi5FuHw5j+XrIFhlc9ccswLwvGvg4l1VluaUrTpTVahqbZAxTu5NmXJIcq/4HoukhVLGM9IrgJhND+AJ5rRnxff0TvPMfmYUWrLLEPJbkxaOiUUn3/dBeudULlUfPQ3FWC7IxcOC0LfRLVLE0jVbmJkSKPMWDoNDfQlMg2AhV3tcac6pvQIweipgkwmKuRih2eBvRuUdpDx6YpCKSwmj5jSic3t+WSSe9Z5NSkKWCaEJkwJ51NH+c7nez6koVlneGqwCc/G8pwzYcxi2fLy+wx1dH4PTHQF/yqPxpjKxZl1d/7LBYe5kV/OZeTUAjS+M8vYdjQ2aMwizhyIs1o4SAfAHelx6AfShqNpXop4FO7/i4OWmFS/TTLMAoESr9Lp4VvdCEOM/JuwAGXZd0Y63b5fRpHJBbenWnAm7MbcFbtMlyQMTVaoFe29TWneyCT8uaT6R1bUuUSKnc+YY4yClIeioAcoTQ3eVZG0aXntTJoQhIfmLH5MLa/U4Zi3wkZdWnKTCdBiEF70cZZhMryU5+g8fKVzdVaiJZ73mDD6XoLUafS5456QYc/VTJw4JvmQMFWWClrv7WX9/+wFa7Gvpo6DclDI6xpQjS+T42LqofGFmBjTi6QyRy/BzbdfXs8j1vPS2hWUzYxZr6KeilzqTBnVGFE0ySk91G9iagZKPAnR/DNqaxBFIyhFU5SRs1DfKLfKm/DYWua9ysokii5bzJKa3EHdWeqqefE1TwpMFMWBxll3FBLQ3FdToOI4rbx4uBALTTL8gIdAA60L+ooyH0Q0Q+okrLlJSeUxLidjTDTcbMeH0GdxSW8UP81zhTaQtCyaocXPZW/kXhjlCsmNPKvz5T0fvQiwutZynbZcjiI3JjEnN4kKruepl58JmVoajFh32JOhTY5/cGZOCQ8b7gW7MsdUgj8zohSgjs6jYpIifff/uSQLaC7buAP3QRmV+R0210ucKdk9sNdF2zE5s4v2Mp5DcU86UPwixr5HQctDwnTshhEX7UiYa1tDL3+gQBVv/ASf9qkLCrHc3St4T6tN7nl7qjX8znYNpWJqRbtrEualRmZV2BBOWqawN3XEYYKUCyLuo8c1ZtYVmHyY7EgYZxgv1icbef3c708Y5DTeGJnVSM7qBqYrYrQjaOj+au/hE2RIMIkC0vI4xrt1zKR2EB4DfmCEJoFoFYHCt2wGBQZMl1YBpktlqJz2hTm8SUV7i2gErklh5/M9Dznx+/IsQr56WzFjiFqwKIdJWKoB6Eoh0U4TJgZR+fUgSE2lDKsStwCvtZa7IEsao1Ar2h0dfab6ifzgKxGOF9ZmmfARijlHbnZVMcO+49VBYpG6JwHXZdlwpGHq8GdD/OuxjAHO98W0lfhy6Bs6xvhBKO8nas/uAQAVEdQ/VcKBd9OR88VlwHdglck92zBZ9hR1KztK3R9zVLGNU+1nakW7R2M0Ke3NVPsRFpsT1hFnNpJopgITGU0VMAmvkywUyFjL+JAjKniWEQeaqpyAsM59UmZMnkufrKce3jQZMRP9LTov1XV/MiYQWlUuwjccI9WoFZ/vN7loPgZOV9y3vC9I5bENXpeOOSD1Ae+cAGzshfSe4f2L2SUMuC3pwj2pl26tbVu72TStte6sMmBms2qxmNV1JUlVSVrCGDoSLSuctamHmhFh4Pwk5EAYTsdbuSSxLlm1m4At4AtFCWcSG5h87icDN8c42ZWiKQr5WVaKgHCAMoKckCOvBTF9KeZ2vJ+UrzxYQD54oxEvSpksBFQmFiD5PKl/llzacnXPk5G2uSa36NesteumuVlvG9t2hGBW1yeL+WI+n9UGUh6i4F9DOQkAQBMs1F1VcEkgszAihzm9kCqxkaLvey5JFDUCVpwv15vTE2O/z3D3474JXtppKGAbtuHdu9svv37+t//wxXcv3m63dncVYwDgk48f/U//wx9+9PThcjnz2KSk54EtIiQxQDK2KFPU87lNYk5T0akXPXYmRy/IiiPlSsTxsr1JhbOkM1RST8LtqKysWPkhWSma4r7gbjT9CqYBE/IvVI0q8Nwdrzfuc9zDe2kbIq6b5uXVu99+++p6vekSMM9Xy48fPXh8eT6rl2Ou7TI2DIxFCYnYadduiuRRBi0z/Wuip0x4O8c7a3YBfVWQXcFrIhhj1pvt8xdv/+s/fvnbr17crhu7y0EwxsDP3378J3/0gyePLxBnvxubY5kDLnepuYOFetpbTLLmUxXQ5Y/Am2CVnylFu0fzJ2qy8g4iEjdKqLqeVWJIOFWSRr5cI1lyxeRtTuPVOpI/yX2/k9Tvy/pJUhQDcgTqbjbbZy/f/vWvfvP87VUFpkX70cNLBDxdLU6Wi1yhO4fgVLsi4D07MxWYCiARDkgpfmVJnCeaPZSJJRQ54sYwxiaRPLpQRguzT1XoUO2Mj/uL7/zXZpjx4Bc4id7XInbuTmuttbg30hlrA6NmSuKL6Xx5WaRc440kCITvfE6HJfY4/FxjBB35xSQsF8Y3kq+zxISmMMVUgHUFUN9kDIFUEZqsdU/5mVK093OkmySXk//cnVdVVfV+CiY4jNLF8GzjYYALNWmji0uohprsEMmKIDyWJZdjSOWyeYKZwBbFAlbRt6x4i9ypnaUAHIkaAbDW3jbb19fXL6+uDYBFXC0Wt9umHbq9gFXeGl7WgKlNfWJmZzufYfdzY6BemnrWETUvozOLvvdwtfeY/d633w3tUYeqogb4HVGy3/PnK3qjgroys1m9mtWe49NitZjVVWUq45TupNW2nBD73SvuqhTs/tUOskXHnCuoEx3TM1HvoTz3kKLI0TVNmGnO170Nz8PJclt8DkFWJiOfcclLUo88f1JmMN4HeryCHErRFO+TkEnWkam0iCZK1jtiZ95Zz/cr7xj1y9wW3jPDvgEEtHbb2HXTGmNaa5u2tbYNrSwZI3h1UT35I1heDO9kzOpBdfmpWZ7vbGxHGy0RbdjjjOSsmpJMH1ZVdXm6+vTxg7PVYt20LoeyiI/OT89OlnVd78xpMu02Lx9iz9cm6fj7i6MWgptWXu79Lp7jOyFUzdXST0rR3j8bk58mCzZmqmJ0qLgWNagUa8/kWqGjDgjGKyH3eJZFvicrRzELjYRCSXyLlMlKIokych9KPjttiHIj0Xu5/0EYGW+HixCDqq4uPlr8wf+K63d+ENhsYU4+qM4/hKryaJO8rldyNMZNC0OTFXYxXh6XQSiYXMC66aPmjXCaz+v6kw8e/pufw/V229qB8gYirhbzDx9eLmYzs59qosYMBwWiaxtGea8KX1DSnEkZnqmtfaTmDlXVXvK5nKVRVSUkO0hBz5cloiUTVPnKfsLlRb5p5tbdUoqmuBcHNT5fMnmggZgr4S4PVXf/c4/FFlSZHG+Hy7Wl3f1ixDVyUEvITGNfMZVZPqg//BOwjacxhlUFs4WZn4Ix72u0+BYmk7RAJcZYQfBiOMfrunp0cbZazBqL1iI4DBIBZlV1drKc15UxhatQVzVqzAvmO59XOuVXUcnUyBWgLjhwCkdXmVLrMQxX8pkusf9Fo6KPtPwqlKLdES9JljADQeFh5mvyK/dq1/00Kwg7kJupefHxLkKIiggWajwWaO1Q52N+FfO+6YU3yavUeXswVWSa0n6jskaoY2hSQ67IImVCn1gy+MbVa9jtdvOVmS+J/Wx3yV7FrY/8cwW93E88gutqQ4RcJ4zL3oluGJKfDfQs9iwmdNy4EZahRIVnLevHkvu1qqqIt1nVBk9Xy9PVcjDycGfz8wpzdrGnEKtqMLg4Hp6yK1EQZaZuPyc1yaJmp64mIyX60DVVMlu90dv3HiUhGa4bVLpMtOe92uFMPwhXTmbK95d1X1x0uPbd5SWESeQto4d27y1Q16HWPWatCxNloou8OwD66eC2Rx2jStGOws8KdLmYUlHyA1/UL+CxImY/ppKSKOYH+c5Hef8wXkW+lFaxw1SYW8p3SHRXiG4/TPV6eVfLVaDk72tfFsnZtw0CGnT07Q1Nx5mXuP9zbwMy0ZtHezK8cni455PjaHvD4c8WD5IgO8Vas5O36Ly8ZsgzvAYwLz3cIL3tMxQZdsmUTzcr5x9pFdPocdHrGjReINru+bsXwYf0ufw7fFnR5KSQsQGRe+h2Zkf13O087PnoxJGUG2f4nMcegM73dHlMVL61+2aoMOceMPg8ZXeQ8KeR6B+KE9XdhlGLEhPU4Q7CkO3x6VZqfhtwZe2CkfysjL5McuuC2ppl5TgVwuVD6IYeea/jv76DNckc48pFyM0Oy+gl497FoUkGcLpBQmlAZAyMWJ35DL+e+6fwIBSj4O9p+E18d+/AMEn7wxc33vaTHMwSF/DIOnuUSnDxPL0bjU+1oikKtxDKwMBHoEsKrTAqUJSBB8RxHpLJL6kBTBVHomzgjNp1bhn1qD+Ob6FkZ012+yTDg+m3o++RO/sKms6mhIVzgcog8Uwgvbk3WS6ashYkDa7hBSPVBYYs7fCJ4wwMTV9RW53kIJRVT4IxckvykPY/jHUXxCuW5mrKh1Mjt9wn0MXcQFZjbWQygaTwEQi8IslDO1NSD4jynck3zvxcqHPE+1XC6wv14ZjtL1p4XqFWtCMe7JLnM8btSAXQMJe1e7lJyjEx0sJHFVcORc6Eq17UHeNtZlVV8Z0Zdg6zVmYJ5BqinrQbyUedm4trToeNJDxfg4cqLl0sNdUY3EUr4SHNMXopivfz8UYQ1NXm2cy0pl9jTDQ7oQ9B2+nCOoU7vQEvnKEFVhm+GoekK6JXMCYmzIH753JMaFFmUMC3ykxBTCfwvzrGuSWr9Dt1KuCfkeGFWTnv0enGFKzL7XkvrDlJkZnVW34MUKgVbXoTmlxTm8npo+qCS3hJ1lZNHZJyEyGjgSZhTpAbpUEVvBOyySjVE9LQaEi+MMmfCscWWsioDylReOYAHRUpyN1CSCuaY1kKzWh8vFf0ZB9GR1F6BExWcu7+mv2rYZF3N2iOz2iZpMEgliqITh/+rBK5shN+h7X/9Ew3jklyTJbapJYpL8yLnxHT7vpJ6Vr51AtbWJD3KrHeUbXq+YKh4eIvCRRjlFMk648mfipFOzozi+ZRRkmMRMYptxw4ZeVm7GqSgFmeAYTfCa3clLci3AAkritqqsuF+7MqjstD9RlTZTS1M1kOiBEKB4G3K+tsSsVxg0vSUDQO+Wek8iQYr034ZpMnlt0faDkG8hEQEHdZkpHszpRxmuwcRHAeoc9clYzbMBs6+uBZbnq/bP3OUmgMkhSEsuZ6g034LMJACEmRN8atyeQSQspnCoLKK9GeT67PwpUqJH8Ux8o6SPNux6SCTFlQbHQKR5NbRZNUKZpi/DGL0j5Ino+Z8h3Cs52c6CQFjQoUbvnzGXVWC7PkCsyWucYzKC1ammugYhIS5e+USRuUlM+Tj96wqibuGIuZ4oJ5m0f8cYYiYMyg9KxFJv2TvYqF2wH7KuOkoTGpKxa0BOjiQhSbl+hXybY0E/4NDVDyd8J9XW7RLBA5yzLUUR6MLO26ZBjWVEYg5rSWZLrJNiTD14qXC8g5sUho6LSNUYqmSFsjRko/e/nJSbbExHtRoUu5OYkMvfMmG6/mFWoRFciU9BeJJpknE/Ih5pYVphQke4yv4cgbEkL+Gu1eyZ7h9hUvfkav432AuYFUDT4v6h/oasreHInW04x2hen0P6xFtGjbfdkDQxm6BnasITeCfcwZbje4XaNtPULVK47tLHJtg+12xNKwM9LtW2uMqaDq6sdHrKfhUA/tVd73DZjhserQJX7sF7g5oftoO6d6BKYIRHSsUmZjdzD07zqUGglZZlJeK+lGZ/gTswq5wexJQcHoQhcGQggLogvt9N7axVvlw/WfiU6jGGqyYqlkCkf1QahyukrUlKId15w2cpBRDIMXLUyGByULnggJZXSP94JjwkWhFwdKnm4p05Q8zE6i8caLblM9z1+cWd2E1ntK8pd5zKyXJep5BLT7Utt7RTDe+hsOfiahMilSEA/1AwS02Gzw9hrX12FKZgFxwmaLVy/w9ho7ram+1hVCnwFpWmtvrtqX35pqNvJ2B0ve6qxansJ8XlV1n4nSibKGSSrUrD9IZO3cp14YnQETBgPBsIzU/lL2kDPGKIrFXtbu1rxkY/d0Sa01GIq1ek/dPawnXRtd33IX2L4n+aXGUzKjzlqhWmwy+AEEWZCMlZoKFuSVZplTNyUOHP1cYmvkn9fTuNbQNKVoR0GBsXcqbR7h4WN8mRr+msKKImOMeUJb5iQXZJT6gQ634rti8uc9zkgGz5rmBCoZ+UiY5HEG20yzbd+8aL/+x+brf4RmCzC6SphtcX3dPvsM2q3DXxzygi1urtsv/vYWcS8aO75/q9mP/mL2yR9VD59CVXs9lutDbJp2u22227ZFa/rc00AjeEc40bx5c/3uet02dug+BjBm27Zv392+fnO92WzD/E90bZUGDJiqMvNZPZ/PZrO6YFSPHB6Tuxenur6cnUx4Xz4GkbJhezct4LiQU5wwatb1Usem7XylaIrytUYyJXi1epBVzmbOcPzRjTJ3CePoR8bDTdLPxa9G8jh8+6l0CmE7Cwg39U8WsWnbTdOgBSvhLRavbm9vtluLO+0NMMa2eLtprm5ul4uFAcdpiHtC4FXXAagqs5jNZlUFpYIUA1svALYNvn25/eVfbf7u/7TrK5YxOn5adC0+kcfFdnMgfLh7kF17rcX1u+1v/mr71d/5l3JMU4ZqCUYZWr1q2+r8SXXxCGZzyaQgJi8AwO3t5sXLqzdvr283WzN87mgfvHl7/ey71ze3W2sdTloZALy93X71Ly+sbZeLeSybwrOemeVidnG+evz48qxegTj/mrdOZS0LSSE93rYHAhdeaB5OTs/xfjpGGYCJbGb0jKiLQ06ocZKfyf0hkk5TlqYU7bjgHWEh8eLjQymPZHIl6m3I7uk8mfEuWdQkCo3JLuJ/RVkUkl4V4Xo9XgNWuEIJNzChCzirwdbapm2/ff32i29fXK+3W2sl7+VmvX7+5t3tZru7VWWuN9vPn724Xm/PVqtk8oABmFXm/GT16eNHjx9cLGY1QEbSFiNPiraB7drevsXN2xIjGg75m2GeYM/YwGJzC81t5FJmaLPa0yYTmrBcxlTXuF2DEwCXHJBEWgwiwKs31//tsy9/9fmzV6+vJR2w3W7fXa9fv7luWtszuO6yr1+/++u/+fU/nSwoQbsBQQPz4PLkx58++e/+fHZ6ssxVpuU/LDiOgli5LVeMl0rDTIq0FRwLJVRGwpyYhP2CczJzZihWGprcqqoUTVFyqhOuMlTCszCQiErnkZyQsnKyvF95AftUsd7iY2XBFXgjRFbD+NLs4fmbkcmgWijhYYxPQfirFvHV1c0/f/3s9fXN7bZN+gcRoGnb2832tm1hL4p2u9l+/er1q+vreV2n3wLAcj57fHF2vlo+ODtZzGre5iGZPrt6RW5pJpAJvOHwrw5H28tfOHzLjRjDRC+ZIc9DDNgg7u7vmNkOSQO7nxwakX8IRLy52Tx7/vbXv/nuxYu3MVsXeFUFLNqmxaa1aA90FRENmNvbzVffvKxMVZmILdL7qzHw5PHFyWp+e7tBjFddle/E/LQVDpIxJ66yJKHxJjR5uZcxT5HUe0rSu6QoWvK4LqxwoFCKdkSb2ZhBKbSyMEnaQBjwJVb6nLz99JKaxaiEq7Bcuix5Bk3KsI1hk1nLUG4zSqpOGYOIt5v18zdvn7+7vtk0XgySV4Wyq8nZac63u6wBYxCbtn17fXt1uzZgwKBBd8M2BwnU/YVP5jMDcLPZtLFRRx1FSOsa4q64e+WQNMdkFfKc7l8rmmgZw/Etn5sMqZ53O0oV5NAjGOOLnomNlu9iRoK12GztZtPerLfx6wa/tK41cZcQWiHY1oLdtMa0ziOHMnGHJq03zXZr0e55HkiFlHlbWtLnSCWwC+XNolaxLD1VuVUpKccdGv4Z0fLQ+pX01QCbviMkYckNgkmZCmXPGKFNKi1XoRRtekwiu0W5AKgpJ1l9qLSG8aJEbpvHl4iZ9psFv8p1iGSx+fHncimZ3hvStm2zaZr1tunlJDCmTBtEWxk0O2VT2zqxbOj4Cvc0xDVI1abaNq21mBxjEj19VzKCIkNRwhT+U/RXriWs53yDf8VhsLyjQ0KUkgqsa679D7kDGCNtQFSBw9Zaa53vWyDF7LrYwU4HzQz4HCLCXsvEaWpHdb3RgcaY7uUiDp6HZ9sSLUZqxZNUPUnGilF693yEFsOu+AcpiM9LSoVHC/jyd0n6kSViJXLfsTyUEAR1eBVK0aYhZBKHFJOtfTd2Psiv+S08eEFmjfACUjIte2ZWcKHJU1ildEIyJ/HMRlEZU1f1op5tZ7jbvxlDy17CoW1tbzupjKmrKlmBFgABKmPMYjZbzHa/4I0NyYdCjDc06mGMVDlCjs/JXsTB7Wlk3yfvSPd5dA1JzT5XGw5MV08VIebfdXg0Rng87sVVDjZS8Nk6L78yZspPtbJNcvgcecybNk//SD1GeVdgGMEcHXVyf0vxUyg/U4p2XLMZteV4uke5BAJo6a/oNxktIqoQJOWNCtdZRhmIP+8m8ww8mZzwV3yaZJKMegsQxSGYNxVtIZU/yzSJL0rIt0S2he928MVsdnl6ggDL+TxFMxDQtLbdNM27zba1tjMYzerqbLlYLRaSWDQwsKrrR+fnJ/NFFfQA0+0552kTuhf9TwwggKl2UmeMBc4ZtC7B6sTXENyBhjs2M6zCcLAx9YJqeChP4NQ8RdcKiZ05imHkTA/sXrGB2lT1rJ7NqkNTLIIb8t//FXfBb9bucgV243NvVavqrr58RRPPCvYJvHVd98LIxpTv2RIbVXEkBnPZ3Kj8sFRaVrILsP7E3MgQz40oF8qOhhFL2sAIQ2YJrSc3F17OWimaovAYJ9ndhVqjlBazhBcWhJNDfgEDEMR1CQtMFdiTxhQ74h+Kip8QvsdoMb7kcgni4I+onSDZA7O6enxx/seffnKz3m7bVtLb15vNizdXv/72xbv1pvvkZDH/0dMPPnn44OLkBIxnCwqD1GFWVWfLxZMH54vZDPIV6WjrU+90xNCi40aSDWKonCxLdMLCPCI9vLvjnsRO3TVoDkZMa2aYKOD/ChDA7uT/cUjwiibFyWrx5MnFjz/94PJiRdrqnJTSpmmvbzevXr/brBs73GVPVvPHH5wvl4u6JjWN92Y7ADAPH54+fXK5Ws3l9cG4sqqpJSLpPUzWJqdYWrLIadR2XlDDrTh2Ikm8mN0nWv+A38WyMmoZJT9KsoA6x+ZWFVOKpii0HktWhwI+kXVxSSr7tC5FyflJWFacp6Rj+rBsO5ywuyhtcWG4dAHqqnp0cbZYzNo2YlINhMPQWnz97vrzb59//erN1e3GVKajaD98/PAXP/j4yeUFAEZqPXqXraAy1XxW151lZpKULgNQzczyrDp7jLNVYj7CnoQNbFdgPEqJLTS32NyCUyZq0ElVZeYnZr4yTk5m/zWDEbOcG+3XhXyZAy9EqGZmeWrqep/UmV3k2x1L5+erH3/6+GQ1u77eSLrw3fXtt9+9+Wzbvm6ubdu6XXF2tvr5zz7+4NH5Yj6TvIqT0+XjR+dnpyuhYMS0UyZrckFOBGquxY6hO0fVyOWTNDuPTcHqOu3WMHlhVqVoisnsakCXcpOYTMILSuQfJbOLL05XZjuEmNJb2crIH8Uk05uPAs560ihtyipRLBdSod61JLOPcbsYY5aL+ayuD6ab/eUi+1n3oYHTt1d1VR2yBoxZzOqTxfx0teg0Gvq9OlrXs/uHynHECCO+aUoAUNVmeVI9/lH94/8RtuvRsxQQW2zW9vmv8fVvwW53FcVdHf2qMrNl/egn9eOf7ulehsBE/K6mqh7/yCxPTV0N+HFRvs7F2cmPP33y0YcP28ZKfvXy1dUvf/0v3zx7dfXupmlNZwfswtrOzlZ/9LNPfvTp45PVwoDBxN2hrsxiMTs5WVaVSYapCadMMslAHsnKJJhLnINywXDmC/x1hOsq9TW+dHpWy8PgE3mbmbw0qj3jSbBSNEWhhUYoc8UbruXexuj1kwmAwgxznhkIiwckJdySD0gFrjFn97J1CsQqlHJxhNA2RomG84WTqSt7Yb9USdDKmNozjWDM/gMAAK3FxWw+r+tqFyS/sy1VxtSVqbtqAZlHZ4nyeDJIyFR1dfFw9sM/rs4egm3D+qEYtef11Y884x8Ctq29ebP9J7RX36BthjXEoQsUM/OT2Sd/tPjF/wxV3V9/WLrdDNNg0fswoGhm9sEPzdmDrvpT6F+jHEBRdPWXLrh8CLcagalr892LN/N5F3TW+14NAC7m9cOHZx8+fXCyWg600airmsiZkJfXpsand0JLKtozn1O+zqTMB2NG4nXFQZCqTB1BKU2K5H2FblYq8R+COuuSzUhCHKkTaR9hRtUVnUQDQSmaIoNbSH4lN+DLEt8GQ7wvORxtbbEd+xiVT8bk/pTJz07b/mN0CxPhkaTOybicWCmjgSmt/5nrGZRnNQof0K1+ke66uq5PH1TLM/z4p72+/iGvE4iCS0PhNNxrxyIiNo19+9y++HXz2wVub6Os0MyXs49+uvzTfwvVbCARFssnNT0l5F94Pesdne5szRpC+62O0RQFT4u3eyATEPWq6mgiVLtsAUMdKQ+DwpRYQaJMpVht4S6DliSVYCZpm1eznDnJ8CSM957zD5i1bHrHzklCyjQcTSna++dnQHupkuk2VEwoVSU3OQGiobLJJoWXjaomFvQVb6WTG8kLlL6zaFZu7dSeao9pvDAZZURW/CGEvQu4MniUGZFczYPPDVTGVAsDC3CkONxUzH35715+AjzjtjnotQLUW7NemWq2ozAGfakKA2CMmS3MYgWzhemLJe3F0rCrbxnSXS+kqWtt/wfYSQozO6JbVT100DtfHsjJRnm425JYOdFhtsP+udwkTSfR1YTEVD4YhDZpigxlhXCMH6i5nr7iZjD2b+/Z+S0jWUIgvDh10ose9qiXIumfUM0gajdVcqYU7T0gS/mQX3r4s1Hu3j9Yu0dLzo5RWGXiKqYKXOVXge5D15IxPkN+zC4SOgiiXxBW+sp8L324u0EwxgRCWeNuJFHsTLNwYwDtITgMgzJPGNi7/GccfK13YaKjMWtC66ExgLhjOmZYodMjTe4Q8siOLCavoDjbmPkBvoaxX7KdP1vKJWqnOgZTMWThWHpfOYNR3V0m3Tuq5kNtGWPyDEYOvKm8kOrKVIp2RwyMCSAoqP7GRGxEv9wTLL4ySXjMEkpCgEzjPjeKgvF3lPEhieJRtJAoE6rPt425NVO0lCLZTMotUw2GiSMU2iEw2IEPLO1QUzLd4XxEI7O79H/mJZGCwXMYzxh0L09tw4IFgQRG/LlxIHSWtmhm1dh232xfy5xRfo96IanIqqFlzaeve3Uz4I+C/MgUdz5E7f1JaUbIDNVP/iF6ccagFY0rhVSpTapzvGEvfGreq5hcOakO9E6njAOEEqAWVijmWXI37NWWphRt+qNSaNuQTNfkQs9HHuRWB5InYI85+x6pdNJR32BBeTheCz43AI5Zl7N8rJJVkudPMBSpYJ5DIviUNQySAeOMJoKw/wc7hBnGluHBztU9/U5cDUdmcWZM7WT7cxUNxbMYgTc7xt6R2EOd8Z33vj3LNVfLGsyckfiMS371lrtQJHXYsiy40QxQStYuaRqEYwq4fE9RaRccg67lztvxYRahLY03reVGNfGaroiYfAr+1OtdP3yWCVde717uX7Mq6wnFynlqLqHOwjx8/hVQXxh0/qFZaV4ir9wX/bxvTP9fiZOF6uHwyglXqf9J+C9mWH8Sw5HJaAtnCaxHVwPvnfL5y0CHtUWIGMnQEu8rOQaYQej5+6izR/TZmYtLFj1mMkavFt59ZAgpxPLuy044yU2k72cPktWDWUmiHRv9hJn7fKV5tZ+pFe1Yp66sDT438kaShsM4krLqcgqThsoqKMjVOoptjUk/xcj3G7UhUVEv/ONLFFJArEWS1X7yJzuhjR1XQ0AD0Xj4vGMJ7yn2Nir5JieP75TOtS7CLcbf5GOH0rQL4x2jAzU3BE2icDtIF4iMjd5c2D9pSXpyUrZe4gqPro0F0Q5eNCcfDwB01QHJ2VK4gETfu7wqTDIbIOsYSZViE8Y3MwXdo0sNNezLlOeUoimy7UDJWorMwk2l2zCzsRvxnraNXFgoGsHgJpExD0g9L3NTzzPL00dhHT3qJ0zsTtaeF32JPJ2NFidmVvPoqppUrUuywLKN3CFhg7qSxviiG/xux7xrosPjUh78GBAGEghT2BJbbJ80KmOfktoYDGf1xv+OPfVywEY6jOOfmAyeITlNFX+fDxErfl9JfUe+54HNqSxrQEE8Yu6w50+5uVnn0ZNt6HYQvilq/VEephTtHtnYJAEcyenKxNoXXJzhJS7n4zMhyqZZVhwVZZpiGOokd+dZWm5wXlLYNmkJKzNPlj87AiCaIAoLHe4mCZI7nECaFjebiDHKGFNXMJtVs1mSFk8+O5kP9sxMGoY2YWv7M1vT2qaxNmZsrQws5nVdV5Okc5peY6RXUDv+DjphsvZ7dJD1mZgT9tjISxUnet8Te4dCKdqxlpusCO4kE2KMMVQKUtTiBTlRLMlTLwg8ekKDkNxoBKlKI5IDdPJN8aYmpp+FJq6sYzFf0z2roAJkVonYmVvMrl46OvXCTXB+oATKXSUk3Gybl6/XX32DN+uBfBiAmdXV2cnio6fzRw9NXcvXa8qYJ1TS8pzMfcHNg9TtnrIJSynI37hsR8e2tS9eXf/L87fXt9vWWu8xVov5Tz959ODiZDarhxVCkTnkxNNC7nynlEhjZF1H4ucVMmlhGimv5VEW+QClgSJjDg+8p7L4cFhQGmGS879SNMV9PMmVTf6yuu+5k0fYM8n4D8bm9D09Mr7fcZV4j8OcR+Ns6dlLJ2K7vl1/+dXrf/8fmpevwNFPRQBzsph/+OTy3/zr2cU5VNW06zKy+aihBc34JHX3DyMzOgteIiJsNs0XXz3/L3/3xbNX17eb1m2DRfzgwcn/9m//eLWs63pVEMZ6jOEE49Qf3Uvx8iuTjYE7WX7fy+r0vV4PNWlAKdrRR5UbrBoKKwstK8deTPkAuGSlXqBLlQMR/BFqw0qU0jx96mh/RlvCHOOoaFnmRUgCmyRaaMzGFk1B4Du2WByY29cBu6inLoa8NmgE3Jo5BLc365vPf/Pi//i/bn/9JVSHNElTmfrB+fIXP1s8fbL6w5/VM4TaAJ3hIalyIexwT2d/Vy0AezefT0ypYZCbLZEssLgf5LjeNL/84rt/93//18++evXmeuNUUzCNtT/55NGf/vTJD55enKyWACJ5wsAeuy/S6RbSmtSEk5Q+oWKqGBl9qvOzjoJMz4fibcLrUEul0G4kSXYR1kFPro3M0ZdZXsbkjUnsncrMlKLdxQnS8/tIlGypbCZIxXrLU0GFobiMZ9NtavRrwmpx1O2S8zPq8eRzOZkFS16qOddeArS6rNwx2j9aX2g1vBqvLxomygnXXEDHq4lgqk5O3yUtke2Bf1iDiG3brjf2dj1gAwZgMbfbLbZN7k4vYahRbc/dwcCLMsPdc2MgNWKKaAqVHhi+UKDrqLbWbrfN7Xp7s25cwtiivd1uW2stcCVcg02XdG1SubrRIr/ClSeU1PbU/6m5HF08mTWQXxhzI3pB4Nl0P3cLhHv0se8EqmyAvCC6fOsBNmwXBBrakqYKMz2TM6LAt6MUTXFE3Kvxl+suLMiRPOo56W56siz2tkziUr4uj/cEMfvTrK5Pl8snD87rypgKrIUnDy7OVqvZMFZM1A+HUpFdULoBL7vwfkSc4PDP5v1NQ5c1GTeVs9vyux5DY4KaTQLr11AgbZgbgTn25qOubMzwHnmX3429f3ylvvspdaHkTCnaHY0zRmID8lPZk1YxfogL65mAuCrAGKetZHHhUxaSskyS7M7cFWokP5OnRPBWw7Kb5gorGGNWi/mHDy/+1U8/vV5vOrX9i5PlR48enCzmzKnXFYKJtAfA7EPyk0woqqFPiY94pgt+3JJn9/3/8K9aPviLv7lv4bDjelpleh+0oWpzMWXIjQEDpjKmqkxVVYgH605VHW4amuKit0iWnGIsWHwUAVMYLXc5ze/5hP4iXygvak+iTNfRyjQQ6CLlRvhRdf94ZTXqFtH9IlcaKboNFVe7UYqmyKZl4GdOSaPsXV9AMvipmDQwSoPuotCFefE5UNSSJJyofDHKcC1gvCRRXx6jwZFUhGdcIfLi30CH6HndLin3GTrFmIA8YP0Ryb2t77rFbPbg7PRndd3YtqMG87o+Wy4W81nYyP7ZwyZ5QU44NKwZzLOgTbIZs/UGfKMeAoR/E4Y8Fh9yQouXcUq49y3y6r8Lb7RYzJ88vvyzP/70ow8fNo1F7EXf8OOPHl1entZ1Hf6Kqpw4YecLi29STv9Je77wC5OIe4+5CBO4kgwphvxwmtyDpXz8KFFTiqZImC7KcuD502eWLe3uH/mOrzB56mJW3SoedVWdLOYnizm6LGGi8QDIcCC849fvm9GQbOr7H3L7Su+OvDCazCYuF/Mnjy//4s9+fHO7sfYQnGbAnJ8tHz04qWfVMabJ5Ofh3EaqE+3eWjf0vShFu6NtXniykSQQUMNXriwfrWogPMNJ8uaKxXIYA0/WOTI8sSWtRJIkLP498hrZwmRS/kVL4qOBFkZnMlF4ohytPyHZJksKuRiipABE3J/M2GACzNPRzXG7KIA9MCADhh/AkPJ/RRvGT7qw/ADuegX3/bOXbsM+IxOTo7r7fD6vLy9PT04W1qLHUOu6Wizms6qieogvH5Qs9BQde0ILPbBi3cJ0AUg50JN1yqOrgbDnQRxJArKCaZTJv9hSmKwjLHm5TGoClQWSlbShFE1xFwe++2Y9OqoY1bQBB/Jl7kgGj7K7FBQ3ZGg6lcEwxo8zbe8lDsd0GJo8VD8rb9ckVdDiAfMefRv0VdTDLuHTzDGDfR3GjfI3+0QC3gYRxurNZ/V8VlOtKZgj2arIRdONiZEoXoju0gJUfHeKxWacRiZ9uqT098hhoFCKdhRU+9NnfyyoqqqMzFG67WHImiejVQ1PwG5smTdtokGpEAt3pc6jzBmLmepuC4NahGT8GfUFXrZALjPBN2NQhToVpUfVewAnoIcxaHnFUhnC4Z1EqUBDZuX1kub4g370TOwWdfVGCydtYAAQqs4kFGQUGOMHujENc8d/1KjpdVofLdelRqLxydihYmjHgEwXoX9gZ15UVt+HrpRGGC+VZQsPCOG+hbskTnR7Cx2xs2ilWoktfBBE63zePyw1XL2QUPe/nloHNUQpG2QooEiNBK/D+SngSmC4/UatUe43q5h9MQyQpWxg4YxmAnBDvRKm55NDi7FsebIgfcaPt0RQyxHTGErfLly4vI2SsaspRVOUnza8JSncPPi1ki1TQx5NwrWJiQNlxKWov7pbGs8m+8ZEGxmuOFQyqbd6hnK17hfcO4Z8xfsJRUTCCvQeFabaxptqwgfM8qeEnekNBo9ged3CZOlG32n06agF172LO7S8Kx8eARHBD3RHQ0Z6MVSD6jSJTmaMHBvfftQXjEdAgCrQgqMmSP+wWekaXLKkO2j78vadEc34dUO9QSvUSk3SCGFBcd4Bysy76B+oLB9hfgx15uT9dOHA5tc6/ngpV3Nl+keiE8tUCGTW+ajuZjipvaUvmvlE1SGMWpqpaZvMoFJU2gX3lvwJv9MfaITb24QNEHocJAQxZCRyr8EYPwLfjOT1mfN6bk9O4jehjgcTgjkPiC8RtxXdGTDsH+TNWOQr4KMGmf7hXqJLH12WRsvMJiMI7/lSljXmj2drkeR1hm92fOHz9/U4Ey5K0+4aCrWi3cU04ItvJBX5C4IMqDoeUWUQYahp6JgQlkmgjul8oAOwxdSpnS9azxvEiuTAxuFSweDM55NHZshDfSUCSPLEe+ZSlGnBP6P3rKgC2Ot8oRnIpPG3y4pGl79x5wt7KZAgtbMnYkDEO8u5V5gXklEp7hDfjyCWOGYcXpCKlx9Z41y4xEnSYuQNKOh5Zomm2pDb+VSp9WTJBN4dnDReSix5lPCksLpA9KDi7kF8sXlmN1EoRZuMnxUIYRcMx+jGmQzXjRrDk7ZlyuWRXAt4hiRc3SQbMC8ClLxRUmK7zD4kLEI15o3nHnwl6Vdh3wpzbPna9oNrwp6cucUFWOVVZmYVzEefniYtV/0fgzLqctnh6M5HxU2yVVOHbBLG5oVIOjYatJS16IX7tzB/gjmhyYlOsuf5yU5VKObPmZJVJdn54RlPGE0Y/dcuKCLcL6I9I1zAqRbyZZG93gO2yJhCKdo0CKPQgI2xnWoLZ8oGMFEdyUrhZSdFarZHDfjy+tP8QTx5hua1aimJilwlUioSltkGJO8F95BIlkvMSHK6yb/9cA8Oo/c8+9mB9uQUWpJvUcnGR0a1gVzl3NxTFhVWT+1t8jK1nlM2ywhRsPLI9R0kobfe1ZLJzpJatEDLOuYejCX8HjIjqHjGmVz0JLOeEdz2+jm6LzDHeEpXhVqBoxWrKWuZ8jMJNBZtAmuHl9BE2hIEUQtMKijDeLyWQBCYHD0l8xGm1PInOTt6dwzbIFnXorsaszokHZ38I0NOIn34ROGLo26dtdm7a2VVVRJfhsfqom5ZIRf3Mh6Y7/ePP+jhcFy5pY0we6IVT41g1xEQGozfVV5u1f2m++6o+hPkgzvRZsYYYQwfT+LD9yW8WkGxE/7EEg5XXhZfyLSYJCfhSYyq+zJyGc91oTBLOghcHEILWcgOXTYm7HkqQFOdmGpFu+8cLndxLz7pMtaOpKGCCcMvjqMKoxMKHnOq+PcJgx4kKQuc9sToO8rViZhXI99cy5fa6QKhC+qeCRqPu+gutODndaIZMR8911LBgO8a0+fDuh/uqRsWl30fk2FznNd7RIxsZMEj58rwHu+5jk2P+KRa6kyiUIp2p/SL2QxCeaHeLBS1AEuC2cMTm3f9sHlhHEB42Sid6tsZHqSiF5QUPqcE3oRHcIYGUTJmVPwKo/hFrUGhYpzn0k1pPfjDJpluEno6kos+H1mcFKYKb025pZK1UPHAgwAAKqTyEuMFoML3GxZjFYYexqKRKrM8NadP6noFaF32AwBQz8zpI7NYHcqsC6pB8xoWroIaE5fmGh0RB0elg8MYdwTO7RAmX0ciEJgc9iCO2ZdEc/LVL8LO7Hsv2ldhpAdVyiXUMwv9d4ySiyd/Q8W6RGdNVi0KqufDBSf6CbM4eB96anCeIZMXOeLPonwCR6gnqjROKdqxiFo4yChptHBf8bQTqQ2AX/2ZbPDoTsYLEfE0q/+tJ+ZJLSLRqu3eh65eYjQ8K7oKuPqK3mLBK6LxPCDsAdeh6dLWaEclj5LCOFnqCsLK1tQxAIgwF4Z5UKK7/fc9neSDk+igGbHnHHsTUOx5h4XMWeupJB3H0w4chqMZsziZ/fDPTtDYZrOjaIOr1GZ5Onv6h1DVFDNjPoGYfFSoSxebvMODkMtiDRwcnTutX0OxgShdCHdTlzUKe5hnad3g7Ic3VefNExN2rxBODfdqUddeuPwycnHhm+pbIk//CnXUeL8EpSjG1G2Tj3l38XTleYVyHtSLCBmkx8ko+ejkM0YnC9DOZaVoiruwq0tcHkxKlNxpIlFHGyN4k7x+rgeNNwjJ1XeFpn4zotZNrteVEXicdoAlqybwV0sG2ktyFIJaAqFMPhizr2RkwotAcq+SFPWjVFGGP6jMYjX76A+q00uwtsuV9O4P9bx++CGYSrhnl+UB8J3gUFyztzX28hvceJZQLr6emDA1WG7vn2T9yW1YMj9JHn6aPBSFwcd8O6d1E0ssWLnZWlndorxKKdr9ZWPJo49nRKGmem7mVDK5Sb5eyykO5SajWk5lsCfNRUkZCErah2oSw/+8+idMDwu5NSU3BYG3hTmz8kLt4xdcJveCGclJCSVe4kve3IIClyDQ+dtRofmievRJ9eBDOnPBmHoGORIzSdd/9A/cUWpQnsp45AwE9T2pmyb7WZLgUiBJU3B2Ej5jlpxyEXs2468jdAFnDXtmhYwuiUI5G/k4SeaxMZqRxYcBpWiKjDNENLI+N36fojV8oH0ZpSjby4W2tChxpILkJFZGKmoquSFFORylhCRfc0eKaLs8hpfy4gv7MLVuomGI/JjJSvDM3dcPJiGk/mEyXXLpzmeMmc0B5tMuCEJqy0y0wY514Gpd0sDgQ56VHsNndJ930Cy5Gcp8OMak9756PpERLMtXGLNfMCdJJiw4uY8oQEU33teaVVz0wwwhNy1MYiwsOGKGzRYeKJNs7HjvS16XMHwvEFO+kPcts9glbaKM9F3Y8/zroB4tb4Tz3Gy4cYyfGhPOsmPMGnSQJBC7z/fZFcagESwLTCd496Xq/95ldxXMRPlL5+MiKKWuaelLWF0XBKJi73FvEhbryyJV/HO5srrKJdSKdty1RphY58WNRivUQk61OEmB4QI7BK/yWmBrKauKPWbFEQrBR0Pjk+b3aFJYLtvjO7/3vYb/Gp6M5cIoVO2mKes89o3pyqi7iZz7epMGOVJXIFfRtR4FU0CS0pi1DUeyKR1fNpNkHb+1ORRh2H++e7KBfi0iQtQmQT6HRPvGHXsgUwMWGgin5b7u8aPPVuF9nUljPFW1SehMZyR5o4shn5eTjBGUVAhMe9KH7hoqW4vqeaFBPbk8qn9TKdpxKZokAiwMUQrLmcGkQuHFulbhFl7222MYJIpbIjk0M8qZwp3+SIPKc6mPEYeUi3SMaf3uD1VlDIBx+BgO/h0AwFTQ6dz2jxPdHgJrnPfnkdaFrHmX1EAW7kzUX3tmRjqAK1NVER3b4lAn77mSSY5yEjDhCsb4cyepL1f8BpnOFyZs8oVf+e2GSngvqCgqLCA2+YpxjGsqRVMMbBjF+6KwsDd/oAkPwWHuevSIJrTblRn8kna+Ah04pkQxI/6UG9Jbpjgw+WoVPU9jUSHt3EfAprGbDbZWVrcb9zJdA76EiM3bK3t9A3YoPNaHVjWNvb5p3rzBzdZUpr9ExCK0j8Paa3M4nxsAU5v5rJrPTF0LrQVjhgE1tJqmbdp2s7UIpQcViy3i26ub69vttrU2kmoK1uL1zebN1W01m9VVdUiRlQ/MHVE2VWWWi9l8VgOdheoJieXazLJ0EJnv8GlSU0lSF5eKZzQymf5MFhKNKtKV2SwpC6Krq0eZFbISdcvs06G2n0Ip2vQ2ntzDGSVPKnT0yI9clEwOk+jAJ4pT89l9QInKZZJLJbfJqcqWC4/jwtRdEBd3ip6/hfwAxAJpjH3O/xoiGLN98er2iy+bt+9ss5VaqUI2gdi8en3z6y9wvYlcomnbN1c3v/y8Or8wiwXsKNqARgwuiI7pbPi1+mQ5//DJ4unjxcMHQIsSQ1C8mdkVQnGv0M7k7tCttW/eXj978fab795smhbKthkEa+317eaXXz5/e71pWgQA272vPVu73TSfff7trDYXZyvj1hrKpGiLWXV+uvrJDx8/eXTuKb7yZxvmUJqUrg1FznJ7PqqCJlke+0eLXp85OkqKeUSXcU9zjhcYF8bGRYVwmZx3kAXD8DrqUVU5KuiWPxxGRUALDtJK0RQlRxNev3Q8gQjZQJTMefKq4fGLMstFV65k3mVxeQBJLyW/wwSKJS0ilJlKkhzHxCAKA/wnsT2MzFqPK/cibr959ub/+c/r337d3tyCMcaN6IfBXwkOYAwgINjb2+2339mr6x2HcC5jN9vm+aurv/rbzdfPTF2DOShymIH6l+nLe4a3RjAAOHv08Py//wszq+eXF5QhrcwdLDcA2NY+f3X1d//01X/629++vVnHfxjjlx7vRMRt03797M2Lt7fbjqPtjYiIaAxc327/899/+fnXLxeLGR13RvA2PPTG6cn8B08fLJbzDx6eVyBKGZafOqZaUac6mHkEgio3zizsWbM4y9xIhZeVHSmzbIGUl0a+2PJ25dzfKpSiHQuuDmTyVEcZySgzG3OKSu67fM5z1iRJmnb46NGkhWzyUxRTiUXu2E3avaJElud8Y5Yn/lJUISDh1bralIC4/fa7d//lr6/+/rPm9VtTGYMOZzJpebMD5UDAtoWmde1AO8ax3bbPX1+/vrr523/sPrZm95NBWLwB06c3hpTDACAsPv24ujhdfvoJ/OiHQFC03D0+N+Gmtfjy9fU//urbf/efPnv+5rqqqoFNEAcM1XlABFMB2u6zLuUBAazFprVoLQwJsjHmZr35m8++qSszsJ/hwQSJwUswgwwNBDCVMQ8uVr/48dM//8UP/9Taqq740+ZUBmyho5OR1c26Tm4zmPtSFaX4g6JcxZc/LYeOl/HLhfxkXsD2JAtjwTtViqaAgnEJtBFbIrsq2QyS+tqhi82TyBpPDqhVO1cVU/IdYTZW1qrEOwWou0gWHUbINLq+H28xGh9lteMS1tpNY9cbvF1jZcBhTmh2hOlg2orco9ddJbZY7GpQWth2bifjmpMwaJL1+Yf7r7gLm7OIAmlcefJ1nuGtC66zdr1t15umqiqLB8E3PHQtuAWeEAGg6SLJ3AqcbtrrLplz32yLsGnayuV67tUPNNozQQLsX1zXiJPNbNO0trV3acyQHJOEsg5lUbDjp4+E60hqckBpLJ189RCeDKeK5IOi8jnHO6IrRVMUbgNUerMk6CE8mVEFtvt/5Q9qubuRJL4hvKMXlsEULCreI0HmuCyWI8ll2N73c1kaX8kUBLnDTP1mzqezC+1HADQYhPlH9DI8wfuDKD4AuJJeHbfzbGFIXSegfAPLWUy2o/9SOAip4pWQioOk/jUy4/bvxCLY/5+9N22SHDmyBNUA+BUed+RdmcViVZFdJEea0zvTsjMf9sPIyMr+5ZUV2ZUVGfZ0s7vJKrIOZmVV3mfch98OwGw+wB1ugJmpqRngkVkkINXsyAh3HAYzNdWnqu8JJmNWi+8GjPHV/a9cK7ECz5SBKHiuOf7I8nEVhveQ362QWmLF4h6zOjluAJAArYWl8CxYhYaRGWgiJMKhXxWEs9o33GaqrfdgI+NwsglEugqKD6cKw4MvNy9F0sYKf5pOaIUVGy0p9Wioa2twxdSmHiKSUUU5zkT650GBWJE8EA95XVOZVvZI195Mrbnx4+30ZrB0LWSBmqgs/ajOJC6ugm/ElqBM/l8gFv8tiqhYASTLPl/w0GQfhAmttydkUUpWcjM0/lqeBi3RedDNvbqEASUoNk9sWaYdmMa8Sr9dOU4CliX/xTgsKD6n0I5AgZaD6e53CdDJ7CVZOptJpyg9bxAE2gcnJu+IIVBp5HF6P+JFgyCQyZadKAO1IbSJn8xMlQIe69pkkfJncS3YLb3BeuEG4gui9543nlmDol03ZmaCQ977saabqXhOikqxk5mgbMwVLYJrMsWUPDV1J7gyJHm/F8N5lqiOEMyAc5VlI4XCSVtMwMm5OLagilgVmeWumIBVyi+HfwoHLzqOQpQ9GC/5RYrSA6BMgWLlA4FgeS2YKL5XGfJjQr6u8hoQEtrlnUgDJooPnqsTrF7l6rSiOLjV6bU8nCrTisCr3+jFVTWKGtWFM1mf3c8Q1SjVYK3ZIN4GsddEtnVNorNx0dbo8SC0PUgCxYkUHlDM36l7iCK4hKTJKN6VVR/T9IBIaReF0B8fuhILOR7AaevSrLabQg6Ed5jSvUBk8L3VnRdReLsVbPWjvR0WBsACNQcplq4BM/8GAAQXPE7EZArpsuRMKn2HKAw6bdaOZJBH7Xe0udsQ7W4HvU7eKCCUXjxk168SCZSArSgMep1ob6sruAiChQ+WV4VJz76sPFu4SIytXv3Cw5snfDZPOBei7K6xIGC9dtQKgyAIlh4xU8E8VgbZYOnPCcYYA7az1d3qd1phyFBgAwGiSotay8VA2fK9i9+ReiZKozdyKmL7tun8eA+4lsZce/+4bACgYlbOxZSOEGZFvawS/U3jnzUu2vXhUiozoXbpqo4aUhRP5IlVyWZMhB3EGIhiJYl07RVDPVVx0iPpaerDMpnU3I5kf8qHVzvOOPpC2ubNO5C23AQI/bPulcgADMKtre7PHggAPppA4As3CsHn8+T8cv7yrZjMGLAFoMMYCMGigPW7rTu3Wvu7LAxzEQKmonS2y0QH++0bN4Jeb+EjKi8OCC14VgwA35OCINjotW/f2Prik5uD4TQIMvxRK1WqVJgVEcM05acX47eng8ksiVP5tpkA3o7Cj29v72x2W1HIpASv2pyRA3WsCEpmtmZzo33/7u52vy0pTRnp/RBP18QlBmbSCmSNqKRlWc7OlR+x5GVqlz8SyBExs5JRMm0EJmokIHQmuUrMqX5PLXXGyONrV5Y2oi6R29UIJTYuWnN4AsiqEwaKAJSVKNJ6Iby8l5gvM5G64VyIpr8iuDe948m01CmKW6bQFhkWK2xmKolzopm1IgEISmqi1aAzXppicUlfEkCw1u1b2//lP/W++FzM58D8XbT4ajD54XFydpFOZgUZKAbQboUHe5v/8Jv+r34ZtJbUtYCy1xpQtGCj13lwr7O3m5OiuWrLWhc1kkFbuO8hO9jb+s0vPtrc6M3mCWPMT2NAcDGZxd/+8Gb+TfwuGSc8AWBLqQUhBGx02//brz767P6N/kYnCJjfzsaAtdvhzlbv9s3tAPUt/AAqv8G3Vm1S6PsRE+d3G8TOEop/j4wq3eOsviu5ftHEFeyqq4sDdY2X1rhoazn8BHlctTiJEL2T2gb4Uiy6WlLE+stVCAjftLZTiR7tIR6eU1jpkaGuMUzEJbO8u080f2XQunmw2e/xJNFJEJEPzucnp0EYDP/lyxRKtBmMRVG0t73xq1/u/h//lXWLRPmuIxMEQacddjqumZ005fM4SVMuo0wMIAhYux1FUUivOgqDYG97Y6Pb+vju3oLmTKbBKP3T7DqlqRiMJmmSPnp2dDaYTuOCYysE9Dqt33x+9z//+sHuTj8sDRpTXNtyddvqfgLGwjDY2OgUBeg/UENawoesezyurUQ8iev9U0TccY/NdbiqCM5Wf0YPt8+1lqNx0ZqjHpuC8FCrfoYVl8KTlbhds6qnW4ujKX3y1ZdZCb2jdLM7JV+sY2IitrViZkBmP9e+SnyQXbcQJz8VyFWGrB2F4WYkcZsJgIDi/S8bBjOHgidJuLEBYaC6C4yxoBVF/Y1obyfodoMi5SwXAhgL6AOVyYpn2VJFMkGbckrSdDSaHZ9cjkazJOX5/QkB3V777u3drc1ep90i4g2MsagVhWHQ63YW98wYy3DJJRvasskVG8YkTaOQ9XvtVhiwZTFZxmgmhBAggjDY3Ojs7Gzs7/aDMGAFBpMFIYl0LVAJdOVuTsYCVVmVvuvjiWAENvYrhDDZJbnAq3rrkjWi8+vjMdlSJz03xIwj6Cbd2lDqdEt1vaUAUusrU6x046g1LlrNh9bTsrpE2lJ6qzvlpIbmxGVvldXzQAQphT7a9IFTuoT+mNpqXKtIlIfnRCzyBffkCz3AJeJ8tr8GLAqAAKBp1IyW3hUIEUQRi4IFIZp0rgBAMCZYwMKQRVHQamUo2qJaHiBkZdaP7LSMMghKGbtu2kMcpxdXo+9/fHN0dDmdJ8BzMl6xt7vZjqJOu91utxgNRRBCBIxBGJbKGIpDJawxHmMsjKIwDAK26AYVCx60TIFBgIAwZK0ojKIoDANT+FecXXnXp0AIGl0VnygYGIUJjILTZKKoFNdKnf+UgM3qqNEfvAoqRon5TWOlJV90tWZatUCKHUaUpk1uolPFS+OiNcd1e3XeoYMT6ylUqwDwpoT4SYOjfo9mgicR2MAqb7qmQa7xtAL12/J/MhNhx5K/dcngKvB3A+6dNIY/iTRNL69Gj5++e/LscDSaCy4EMAhAcH7v7v4nH9+4cbAFogOVx8rUJKSZdQs0SFP1DyBY3gcqAKSmXRQAXggTlB7CxG9ci0XCybTXsWCr2MwqreLE3KuV9Y1eUKv9CiJmBRUaZl1Hnk7Grr3JxktrXLTrMxYIVmzlX6bbF3rjHrGWE2wlFIBmIZ3qtChKpuDbJIFAmBSzbgrBTbusifUUSZeoCVZKoS4yPqb2YXCv3bamReSMhpbbXTMHBBRKnlReV2bXk6Zgk6b5rJKOZVKYcZzOZ8lsHgu+4nebx0nKF8/GHIFbdRVIUJZF1VHr7C5yx1lrJsvSkyCYQ7ufaVhyaApXqvBGkjzS+tYmUCuoY02kWutokVdJBPa0zdeA9ngSu/jxWV1yCsFWZgNo/seK8yHKpFoTug45rL/uo1EXeA+BXV19Kx/OPMa9KGsGpHqIvL6vI/dcC9fuT3QmE1tSNL6GeWg9bqy2l7so98pqs6BQKybWfGkqUimEAMljZP49HO6rmCjRsdZZ53R7ta/EGr0HP+15v6tUEUSpctt+hbbN0aBo67ImeM3sOuaoGudpV4gQQpZ0VAk+EOiLaJWsZGP5beBJAQQWQnAjPP7WhpjWFEwJHNIiENrhUrtNKT0QdFVQExhgpQyl97WYakco78uOTTIwUERgeCoRHjYNlFMCJfugLdcqtPMB3As6F4HycmmYFQvyr5TFHvA2IyuwbVW8cMpbqSPvl70yNf1RmEGcggdTCakpsYhIjlqnJXFT0Ap94ixidAYi3J011fiXPDYPbAw/j4r8NUfjoq0x+kSwX/p36ZaxdHLtCV1bCij8+E7fzRe8Kw1jxVeA/GB6NLpjWjEI9miANb0Iq/4B0fZZFSbow8IMzk7mpSElZ5Sib0rXBR45lOf2ch9c+otc9hyJchfq/C/lwdW8GO4/CQGqtICkJ7X4jPpVq4wHBRm1JtSQ2ajt8tN6jXI5F7FlATGS6nmQEaZ4PK6rFS9ssC5hStu+ySvV5jfp6WnihHFqHzE1yxNJBpoDmkTnOlw0byjOmbyKCF0Q6opc9W6drqVCC0Rla5N68d/aSq7leX+K6QYrSkGPQKxUw0L7I8txNfse4z0zZT+4vHmLzFETRUfNYZ7I4G5p17SWz5scU6R0oa5pZq0ZRVolnEZe1lzXAnX0zlArTEV070ojbHL66x1/LXpHeTSK3Jw3ntocDYpW2yaK95arMDVC9AUo0g6E4ncTIF9duA2vo6dAVpTWKvzBrQlZj84sJDtGic5NNChIesK1j0EblarXQurlKVbeyWei0KbI3kaBnoMZ93gi4KoWGBA9tuU48BzKY5Jqph9Gi/SUyCOjFcPRdhUALAvjGGSK6LlYASO/Jm3luxXAw+V06Zp1ODRLF2Gz4rVaxlqK3pQ1eqzysLopJ5ARpuTl1XlurX8wWQPwzZMgu4ypoqYWGqDGRWsO8Judcv6CKD3uZDuQWNnUd43s4kDO65ncPu3GrD5vXl6jbTi3dpAREQJVTkrbPIUbAmKViUq1ZU0pmnY7SsBqMugmL9Aa61v71EoUoBjmpBt5JJZQ4FALlkx07k2FO0CsrWSm23HuOyOWJVnVwErAniyZpdUmyNpgPbogTS4+cT9WJx5iH4As1AhLJgunMi9rRR3lDVpDUy1MZaXfo0c7CHJpupC6F1gLo5GqMm1LOGIHcNBOu8tUSSL/bR5NorNmLO16vEOn4MbJMFW8NNGh9JBvqvEmtbUaFXM0TkLy2uJZq3/8XqZuDbXeS0Z7wUCUWG4N3gg+pN4K8eq5cldMK2d+PRuJZZKLZdVevtnpyG/rsjx+lQzaZVVxuGpRCIDKadDqH3NqfXXKlV/PduPRuquGqY0T1qBo7x9RQyaiq6Kznyaxtb2RXrSORIoeJ0EiM9ekBhGLspbimpxFp4HVhtfW/AURysI/QHEETTYdyQSZOmoR0AgfsVy/KE8oCjC2C6jaAdqSfFxvA3SUVHqUUYjyTWT+T0BFvuWCdzzjrL1JGlbBlv4tE0zyZgUwsULWrBX0YO6LJE5C7e/V2M8kL4bD9kSBYK1JIVpXSlMzUjKhbS0HXecKIjGOw8Cgy4bjIw82AS7cDiMWErx0ILR1aVqzgyD9jT/XoGgfNLT2YdbC//VV6OMJVj8zUS+ksQ7wxrUM0eOLZattAacMnyScvGLBuL4eriQ6JeoZ1QpTQhRuTUh8aEwwYffIrbGNNT3n18ZE3Gu9RQjWnQrwrpqyGoGKfJBrMsW1iFZ5B9VVQLsGRWsO+9S0EsrTuZqskSJOIaNlNlfDXES53HqrxPZ7U9SL17OXCKK090ah0Sfy7JsCaJxsAgl2XXFTBEswoY+uz0IBR0vfzbj0rEVF+MstAUFMIK7aol5fu3yI9Ot4uZVGH1D10Vg5ESvAKJ1EgetK38L5zzRjmyU1WaZHL1b3xjI8koGE3YKNRU/70rX4HzhS0uMk+ETsEG/ZgaLaEsK6gnRZ0QHm0pmR6kN6R452OWsRWcQ8mvw/E0pnxau0XGWqmcX3O1PNGaXjB8w1xM3RuGjrdde0ReharNvVdgBBJYnCoEupCTMJQJlQbpzANvshZ9NFjCn+V6LzYZV7t8a1SH7WT9ePEr4jDjS49KCokwfJyyB7DFLwbgJLSpLnQganhFFoAHlfyEZCmRL2F2TEA5wRAlfUpLzB56xsbJUpXv5fluGsAcbQTm9KwtTKFusanFBaGYhhLcVXxkbeHGjh1b2UwadwGeLl+Yh/g/igSMOslm0byHSSxIelAIqNGoHpaBKda8eHcSvgh6VfP6CtPUl1s0W/Je/brvHkPzkEXtuARn+oqjNQe+asDIz5PMv7GED/t19BQgdJs7L1TZWKU+u9TG/64Lve8DUo+Hk8oFOodg07Qu1zoPHPGhStZncH6YimcKBbUQQ810MJs/wiFaRvztTWbkIHVT0lE1dI6TwIDoeDPZTqHCuXFc5zgQepTtTeOASI4KMmLj18lJBooTQmplemddMtWGzJ5xBGXjRTals7tZB/Eu5KlD4q+ZSk2jJrQ4A6eSi5yBX0yJalOSuyDYHUxyGZa6DRblmLE3AmPFdFICfbSHQ1cBJ/y8i7UNRSED6iTVDxbIRJx5QdJnqleEuQkzNnbQExaYhBva3ZjYvWHLjLjyDYWkZN/POuUYWVZhqvmkL24Cr9lXiGUaYnlZOexHITk7Gz/sZatmLilAK02sN0w6WnU+8B71EgcuZp4wGn96W9PVyJ0uoGlQSgFnVfeYKTZpCRbDhCwhwEVolxIa8StqyCA0mjk8FKT911IRD3PFI1/eJJmErhtrxnpq0fogdgpdum67ypfY4UNjvkKmpliKs1VgfBKv1Ed0SQNYvkE6w8wCYeR2ua1WQWtD4QabXSRriKaD29g6Q5GhetTiwNbMT3HhYcj9TpTWR1ZfroVZxWWV95xJAPeytiuQ6pB+5FFEjAeXSJZeMIWUaV0aCcxFQiQ8dLYEUTUYTTmMOkNf2zOHl4nPB4niRJyjmHDBRb9DxKftnyB8HFaDIdDKbzeZLyMvsGT8VwOD2/HAIIxljuaZZOtfILw6DVitqtKAwDZDIgwgNArJrI7kWsNEWt+pLaVYmsNb8TAspGRmISNjRV0HMIapeJFmBGjCqenlYnnjWPoa0JwbWeiNuHVUwFr9nXOtZ4/42f2DlCRGLy0RsvrXHR1uuuaU0GxVhbd3rQNd3gBaH4rkD3fkx8XUiizWRY8SyJFtEhQgU4bxPQipdLz6jtcVOxATzkLUGMWrojPF9gTWhaMQAihzjihiLCYkZ3U6aNEFIVGiMF0JT2VcaYEMC5GA4nb9+dn58PJtO5lTBDcJjO45PTwcXlKE5S2WlkDCbT2dPnh5PJtL/RoewXvV53/2Drzq29ne2NMAjAwITnxK7OsnsqwCFSG6okLknBJHDiaGLSFtmw5R9c5TQq6gJZk+N0r8IJuKKsFzAQpFUfeW0QWKXHgjg4qtNpJUeklkM0nlnjov1VOoI4YOOE9/glGijUSkhPOMXlMqnNXNtR1xWdTJvcgU/07PFXQ2nRIm5FVsGlpSfG9P6YqO29LDwuzgfDyfOXx89fHl9cjuRmheVPgknZVgGQJmIynV9eTdKFh7bkgmUwmcZPnx8fHV+2orAoa74C0eS+1P3dzU9+fru/0d3a7AZZqtVRoFZ6HCGPnWGDrTR+RMeO3gtVCj+q7LVIg2eVXiv869oMpitWdG2mBinnvTbJAbr9d+2Ta47GRVvLTDVRjjHGcuieDk2VjiBYZU/kU6lUOlYoBYk+wVDfamWL1jZvm1J7JTZ2LbJdqhjTVoNpqee1X8xHj1jskt9MVkmmxQkq8qbKt6R9FzbQSMjPrk1ayXOmNNnyCjl5SJGo11pVLd9S/n5ZrgEuc+TjZWLFK8lpLygKZ2nJoqbT+eHxZeZagSj0jQohmNA4PtngLZjHlmVfDCCO03dHlwXWEJE7RkJxp9jtWzv9zd4nD2ZCCCYEKwJppScyrVblT5KO+ipnK0p9pjLQS2lN0K4gk5+ElLGqQZfWHCEMOBS+ITBzx2iFYk1UbaaRV62ECexX2ZSQ1ET1wcfdIPluTZqnROaL0v3g5k5Cb5m8GSH1iCZ4z9p01RyNi1ZXBF9YHlp6Q2LXkuljuU9jgr5MK5xS2umE6+DfwgGb/Cm0BGOIKZGtsNYJQ1oOS+fUKjTLdf0qsacV+cP7KIkxt/rG6WCAlnKztFNqCUutb1a+DSR/hGs8i4IA1IKPFRgES/WiVWmVdG1tj632HcGyLUEI4EKkKU85wlEuBF+CYIu7Y4sz8Axqy8SVli4bAHAhfVqodG8AgqeCc5E9qgAQy3FTb0MNqGSPWQMvCgGMCcbyCriFryb5ltoN0jQBSnC7NnosLQfTYKo8q2AjAFPPiYSv8g/qylVDQS0pNz4g8mjgMmLymbn0frWLqBRIm/xO9dmR8n/rs5i2JKshstK/Wav38DNYX3HT2tm4aH8lWF3FdAYFka49Q+H6Gb+bodeZIoqExGEvuSlVcqAe3HJaDM96D0i/mPXeKNXfxrEKWNjptg720sm0mDFk4VY/2tkO2h1w6REz/Ekmx10M0+q2DVS5rOhnKY6X9LllgpQV7gSKvP+WRlKtP6TxwgECxrqdaGe7e2PYb3fa8p9SLg62+51WmKVTXWc1BbCpt4pAq9t4DTaTwghYRUVKbgVwzatWNOPI87qaMnzotDFYXU/aeGONi3atLhSl7N06Oym9XRR7qhU2ICpIEuEfa10tIvyCRFFEuI4iGAw2oiNEmdgU9oFLAS+OUFpljK3WDacpsga4xPYOCoannR6ZX8RarWh3p/fLz6L93fL3et32/TvRzg4LQjDnp0yAq3IPhttWPS7ZNVv8gy3U3VU/a4H5MRly07p6poGyipQrkwGiKNzf6X/28c3exsZklshX4lzc3t/c3epFUWCizgIzn5n2lmQSHFd6OaRl0rS4TDl9q7SdVY1Kndg48IY8pknLXBsTIikFysgjxsqpHQRX/8OdMOuSR+yVtU/Z2qlGb2VrXLTmqB/iWl8E6Qc1rc8Zxb9oxaXWJNPm+shy8ROFCG19IET1yozrMXb6Kj0AAAi73e4nH+//X/+NTyZlxyaKgq1+5/69IAqd+hiMuwgAF8D5ItEpQLA8WRkUvS6JjKNQoS+N/JLTwozCiUWGlQHwVVGb/3vJV0G7FX3y4GbUioaTOEnT4o1Bv9d+cG+/2+modYRVAC2nndvvcsQmFSeGNldX5prxG9dURkWozwMgIN5hdXUcRC+uQdcaF+36/DNXJjOT7SB2pyNZfDUjRu/5t1a8ETEtXBgACXNL5TXa+9dWSZvCWT8Dqla/WX0UMLcyEAVD8/plvKKFwiFMsX3470skpXo/xjTrAFi33bl7u3XrhuBCTekxxiAMIYqQOUw06IxBpx3t7/bv3d3rdFuLIZI9pmIJmQDgnMdxMhxN5/OEc1n6AFqtaGuz1+lEYRgaWlIXDlPGlnbjYGtvd7PTaeXNCFqUiFIezhhrtcJ7t3dvH2yVxpctPxCGURgynBPbL0wyrQJilaqJlsU684lMY9qlSiR59pj8xHlIYVDCy60o0rRWxws31LUIPVG674mD7yrH8rd5sKYVdn3ADD0cJMas14MAWxkLnVRHtaIF9bLOOg0Uzv7qpItVBW3C763korlSJOAJplqmhNuFhBBcCBCgOQ9bEPkbvBm8VLnoLMJwODk9Hw6G49k8EVllf8ErK1xWcDGdzQ+PLr7+5vnbo8vpNF5G+cC52N/f+sd/+PSjewebm11WrJUTZSSNAYNOp7WztbG/t7m50VG59HJPQiueoWJzq9L3FYbHYAUJFsCIkoIFzqFN54/Faf/wug6nSWVNnWc3Q58J+eeBprhFMezEAIl4k4Ay0Jp6/K0i60haFsz9+7gTjHiNiHKd1nMl9i6Arhu9QdGaoyaf11DKXd3hq66L8l781BofpKI/gTvN16Ok7ko05XpaP+3niqo7yM0sTDMACwPmImXoOgDZ1zc2uq1WdPPGFucirxtjBeBshUZxwUejeRQFT58eRsFVKZnZbod3b+999snt3d1+oOnhlPUFBABjAYvCsNWK/BhTNQMbMFbm+ZWTREIIrCSxYi18qX2S7iXUaJeIogt4i7pHVpHe1ehkeayBGf6wWhJvrWV7X8CEVXwZnwANWtS4aGuctXhVJsKCgbhxrjUc1rAMbBWprtJSpZWGg/lOvOrEwbFehcjHi8s0ESFDp5jVRPKEII6uKun0uWRVskdInuRNHWxqQmArFiZqfqtQXPaLKAqiqG2aOVwI2engKQ8Y2+i2wyhkwVKQU6LE63Tbm/3u9mbPxGRGcYbwvgH9NM4/xsoXks6w+hJx2VJ0NfwKAZ12d9dctqssAYLWE5n3TX0PJmnziiOP65wSSyOAQKBjtfymaemU80WuotJt4gRszdG4aGsPNUwshZSyJC0gR8wOaPc5tXS3JOKmahOp58HXnlMVhZYi1VR9RfHM1L5RokOMlPERRXtUc6PeGC68Y22IwyeMWreHbAml86sdrE7yWSX2VG1FsKsCDL0KnqgVLYQIio+/VFAvvo7iz8xxA5aZgdXkoCl7SOSDcEJoPKht6N6Ax26N6yMhfN0eZBnWQjqtsBtiN6w9mEBo0sf9KldXmNILTwyDtZGhh/9dWvh4ibBJW68pRyuvgmYIKh75PFN3JuIGsz6iMo8I2KU6m3lf0fTUiDeg/tPpBjz6uZhZA9Fj3LT7U12vvjqhneu7W9/MdE13UoqHvMdKeA0+hYbmwzRl6z6za3OiN+HW+oYaJ+lwfe/rnhKuiNdPbmo1KFpz+FgBa3N79cldV0qCztlmsrMUiB7BqOjP5fQnvPhjHU3vTuXt1gdBiDyseRYPBYsqnfB4ghsBiig+mUfGWf0YgmISJgCUUopAwJWhqKij3d3pjosHrYYp41y6YbmyXv6YVrPOY+Qp/pnaDa1tqlDrnHAzgoD69Jnv1CgDZmSUUqWAV2RaMxhAoLbG0wVgKMawJvS1FomumE7vVW9QtOaoBDx4BFgfTphynSG+a5ld7e9rTVX/Vt36Gq9YxZZ5fKuum9c+SOkD9II/j3vQp63dzyYrkpnumUhDUCPUoRb6WBeCa3uTK2CMD5HqsNL7/izvlFai4DfyJsZEJHRXR8DUh2sKS1zL/ohePkUjldiLQEmPfCB7UIOiNb4aRj9NYY+koAjE/iPElNCZFZ3a0U36uybLpX0oCm0sBcj0MG1EihAkaKbcngneUAWbiZAbHpoTYTktuEJ0ColdeGBg4aIzOFgBDFuXaKGBU1KadMCHcFxQi14gSwDflSl6i5QRBkONo6ougNww0vTgpFTrtEC0wB4+OYm1YlZXw5VEV04syL2xOGmRH49jLZ4NjuFpjRUQ2FKcrHRzNC7adfhnamDkJGRrLQKlbw94tT7ef2C1d8Q1rzqmqitWKhqlbMmmm8cblHCXBQjdiMhdISLirtsVwjbkxKeA5INMw0XXd6LH6Kof4Opwuzb2Ih2y0tlIOoZKO4FlQKz8rqW+V2+CDCuE41FLYCLvABfGbKuGOuX1IU6k9YYpQye/hXUItNRTB0mjssNTmSaecG3PkMkDIzLhmVi+tRasFmi8cdGawy1OJTpJ4F69jktA0q2GNmRRDSJRxxO3/ogYn8eZXa2kqaOzVKxjGmcrKkZn/cbtrNavdaIa1xaW5edRT4hIRlKgWWI7G4ldwhcJwD0zZCqi2+dSKsDdAtDZarSDRmlf9aPxo6DmCFhLnPaITiW+E1fEhCiv1foWiAbHZH4papiU4JMCw5uWpxWLqtgdbFrsRHJs7UaA4BdNX6d8NLVoa3TaPLQsS6eqUnyAgD1IFyo99vUYkOqu6poQ0PUZBdkzpkD6fumV6p2hVk61Wsp6QKniIuJkUI1awjryLP8fAOALXScZa6OXUtUyIdd6Bm1/ALhQNoJjxb1H1y2FvuGDgmGIQSPdFUM2EcRfR0y69k8U3bx1jLxT3rlB0Zrj+mA2vy3TlBOhZI5MqLIrYyS9o9Aau5cIoqpHe9ZbsgayWckIXjWCmBKr2BcC4FkTPWDutHIVfnUyuNoKbgQ2IIJ8UKHeEZcmxFnHqIhLAMAFW8oREKG1ip1o1lrMurwQU5WqR9FnqU5Ou/aRwUc0mlz36eqtM9YVpx09j84Dp4dF4FVT9YIporYWeGhfpTURbyKstpoRcAfaGxetOWrzxojbvN92ZVrhSGbHW2BKG8M54WrWFgFwL7zDTYAdMjEHplZEQTvC4CLDir9rbX1MKV2i9j9WqfDAZfgor9jkL9JnlLVWD6mYBELC3WHXX0g6MVniiU674MrnArQUErioyYGtwxFxPuhVEOqMReodkfJzp9VtDcNcqVaJoSBSeGdlkwEzCwZ92oNN4om4iVQXkMApwdWr0G1so6duChibo1JIijsZ1c9sim88bJz3bVyzxKdfDF0Rb6iRf44CSZqe18SJ4GG5KMNb8c3Wa0m9mdZLv9eafrdbLWl7omOIbFcl2gK68DYR3XRdPrgvW0tjIOWNUO7Q6a35Dew6zBqCJP2E3A4id4aVjrvJWjYu2geBnFECKY8VjqwTVWZHawQ96p9cd80q2ypePF6lfrxiCZfaWqFVwSOmPFzFPV0dEXo2lr5tyJegK0Bbt3+EexO/qyr1zloeVOvMEMxnzZoAPBkyUdc4ZarjWcW6xso1i2f9vHVw6OuFqKcJhnrH6i5LlV5Oj5FXr+hEouvky1Y0v9rNaB3shn+DR5PorBoz4fuca4hML9V0akSis34QNwkg00MjXUja+7TqnXsbI23tC/GhcISmCm2p31+JFUL4cxFLsK3xBpHHhMK5pS4ZoqoBHtnbpkqOmS37BMSiFq3KfqwVNqBkXVXmAgontmmPJPYIm/RbwaUOwWnwXZUZ8WwjUbOSMpkRuVsnDUq/3mft6zC5pHiWQ1XOtTIDWN1fMEtr4GsZl0upveayQdGaw9kS1XVCk5mjXLdGtTji+ek5PuKdeD8CggmZTC3CVILgQ1q7SYcMK74IurGj0/pX1M2szufuMU8Ia2yRz2SMBUH2XxAGQciCMGBBwBgDqJx7JX4Xp56v0bC4Amx0IY1ry2rV0uSrnfb0ogJrmwV9JF3fr59rW4VD2PsFAQqfNz5Zg6Jdn2dW+xYic1JbjTuYE53WolpizTtF3A0RRQEz3yzyS3zAXYseXEvfcEutBpEIgbv8Qq0tn9XnjxNmAwZOyypDZ609shJKUU7o8XRFDw0YY+2otdnv7u5stNvRaopy2NneaLdbC0fN66mty9aqWUnk+gdbjtuE4rimMvERoGAq1Z0DSie4iQ3f6SbVOUZ3tqz4GWIAkTmvsn8Tq/pMeCoRvUOIeKzFNkQ7plIzNt5F46LV6ajhvcfqVHYmAvANLnFVb5XKAdFyIXo/1VUUiQEifQNz9aFlIWfkctYXbfoKpf2KmCVHvGGP7kKK/+RqQymUzk5JYdd9XVVjy48wDLf63Qcf3eh0WtNZnDcHCCH2d7d2tzdaUegu4EmK35x4XKvARbj2l4fzhPAbO+XrTeGlVj4r+19EAAoPC13HDRdlqs5WaL1JuhGjiLxVV1cDlxZs651YHevmWA1LMyhV/Amt7+XXHm/l7NDqfiA1XqbPW50qFdCie2y4W+BKMU9p9ia2ahPdYi0SRhxhLRhGqRyyjo91VK1EHhVjU+QGKCMPHuRkhHsw1VHhn5d/maR8Op1fXA6n03maCrl/s91u7e9tbfTaURTS95JcTbJEhuLtajsl3azeGB4uIq4bPvhO4q1V3rgTf5DftHeCc5xGvq6l52SWEb63POmBBFHeJCZQrOpzbdlpULTGRavHRfP2RTyMl1p9bMXPwNwyRvS3wJfvHneS/Kxe7e+OnkrG+dLojHcVOTarqyR9IAvHNScINEImDycgTXmSpJzz5akWQgNBwFpRFARBEIA3kEZcNVafjxjY+FFeEVclhSmwnj2psnNTxUW7tpGvMnnUeJseQSE693WZeuRBTPx5jYvWuGhrd9GQLaQ6M5kHIVaVVtAPeY+vaOmISJ5TpdQ1zzqTNkNFB9o0vasjcFChaYsi24BgaZZXLEBAdnIQQiwaCIBlP1hldqzpQgSQVuVDwNb1ZvpTFXjbOrxWRwHqa5UoseDiLpcfUS3eLQvmIhDTi7bKlnjrHeMvzg+VNA3jmnBQisHRFv81Llp+NLVo14GuaWvh8ewMrvWLtCtrK28oskjqpfHdxVTlYM2l4uwbJlkYCvu/Glaaur5N0uPVnTxrYsLb8Jnun47VIY4CsRTMND9N/f+4OgXxQviHSy89v5PckUWWmLQlYFCZ1lWiNGAi3G/aCYDUDLn2x7jmpnFbQeG9wwUGKD6T9RH8xJeshCPW7yIrxdTzJKeq6yXcoRhA4sZkDS2QheZx9bWidI2L1hykcJCSs3BakNpwGTknsgxMvhdxiRJvAGkjra5DZQr6TSyprlXtyJi41vZ6OPTEopC8sMNJfZXeK0oU+1L3rVoSTN7AjKuca12w9PWADRWlrOmq1dXFOUp2xg9VAkcm6tpzjk7E1ERHFupLcfhtT9Wf1+P2TJfWYsaN69a4aPVjZirpvBqpV6/icnUR5BnvkWZSieO1D0VfyQiCiOwTCNyFBO5O9gXph7KeRAv24FIHiIqoqTXB9Rmtzq6WAAXfYHCJ9FK3XV1qWsTkpndEVNfC1/qvYGsvBVTC8jqzTh4gnN9bdu3arvfmKQ0cRCdyHQEbuEh7laZQFf+miqoscXhLSdX3O7d/YtBPU4tWC/7ht9q1+Pm6Z2eVBeAX5HlXv1l79DyuRUm+rHV7qO4BrO/3xBehxUtk3hn64BC7XAEteQZD2t3KOE+RkNcOAp7lJ6b4KRALUkIgd+Qhau5EbQA6s5rpJktxoDYUwRPr+IfVzDUSz9BfKzLDTVEl7upR6gfwae/dnCSfEw8FAa0GwSso6E6enFkqXc7ExZi/68bHyI5mIN6zG7d2H5xM/7juQajo/VyPbPxf8UxY03Sic7DV3rpFhBUp9J7X+YKuIQZb9+WcqGR+oovUr16lXgTo+gUb1nTaBglqULT3tp7pROfEtgCkXUANFhF1AaKSmvYOkZ24FCEBofbIKdtL3GBcy56I/oH6NoMgIOJDpWHBsQeEAN1k7in9H6Y5gGBOatRrzcFZRxJBcSivFRyTL+8rb+JaN60SROEtuuBOleed4/MLpSg8iMjTUSwSnmGn3z+SJXR9Oj+knNjE4zryrtO7OgsaEEg6rXIgpmaRBkUrHU0tWv1YkVP2hOLGgU2GHLFByIIxWSs6ASxR6x2xX1adYNOHtU1wiMkm4iWU4l9r25qpdLqicJD13pAWCm8KSrxEj0Jr7oRU1SUTBLqiddfWWg82hNqZOV1RcCKjven3RC4h4jxU+URcPZt1k8u4fhi/tHdvpsdjeneUW1XmEDIBIk81GLrcrEJzzaEeja9aGYd0rK3x8/yg1iSCtfVPPWp8qOpD8YGgp7i8utX//qDm7V/HpX+KOSY/RuIP3xJWuWfXleVxe7VPQicvk+IfVw/qvOdS9QRlk52rbV41Q7mmyQ1mZiYiklFdcAm/ygfYl7C+nglrDTgea17DXKKgU9f2Iug3CRUkXHGxTo8uBw+afmt3Hs7M7tSCZ6LRMq19j1I5YsSIc8q4qoUCWunhPfLI4JvIV8FR4+5DG3nitHfiLjHdA+UkVmpMSss5ZfDX7UD/dI8m0VlzHGziCkcIKq0a0niLeJVNt0qZSC2QQMUnctXsA5dsoJXozvXe1qf+hHPNewgd0s13lXha26JIvKJaCllxvnmzFSBlhdqONu2lEfoeINRxWqVNTM2PdbFheeuQqgsNSYZq4yhTTOWUJUSI3CieK5h15XFXqS7eO9MSxu8KqQGQwQXtDmXlRbLWrSI9p83RuGg1A0VaS0GpscBFjimAhJOqbmnZcM6tnNHgUrNPWXJWfQIgdwMgl8ulrJ3G1rsBFq8C9qCN1epD4BOAzpdGhAro/E848QQQ+mnwWijkY8jYutKE0pEPdY+hsLfLI0/REVI/T2k3oUcCpjlmGhA66YMHQat1veAsyjiUhdy8yQrRK3TBoCTr7dRa/Wl6+5dpdVCKYSjCa8RpbzWSzWF8Ec0YeTtnyEqwqqlQ3Di6Z2YNieRrqbrgdFFePOQCxxRJRZFjSlWsN3k6PXFjFcIi+nyIZ4OPm0cTn7WjRZ3AlM5lazKlCiGfk45Qlc7QKuR/4KK6nf/T1DXsl6H2Jt0waQEBKq2GLAe/kadA+65eqXXNOo080buqhWaIaJbp13VNSuLgnxPDIv0mm0TnCmtohqBed+29zDZ6Iv/6geVro8ZB2vf89jlirW5+fo+ylfy7TrXGfk9U7xyjD0uVTKIfcll9pq2Von3d767e8ztNtlpG3uMk3mHeBwSWEMSjarn/tVoPtbescbYaFO19umUlHin1n1bEQpu8UAvaZJ4YbRM7XdbaWuxpSp/J30KqZLTJAhMFhnzz6nkohF7ar+BMIkjdcWmUsv9VEQ6kA8ug0o3R0CPFztoqOlUQzIoEmEZDLhkxDQWxjwFhjzNhcsj0BnPWD3S0SfnI5/OzdEsmzW/5T9rP59fNU+f5DyVukVIGuSSkjRAZqHOMUpyn1rcRMWzcsCBd3tr7Udep+jjWG0PeFGKvtCoLpRdnLZzyHnkZ8HMVxqAPvrqhmAJg9QN4btTq/yHm1zTtS4ma0pZhvQSywBsXrTl8XDR1Fpo2aadgkdji50o15NGUgOu04Gi5aSOkx4VIfs0q7unncDuNpFNCwQ82oKQJTO8Ir78hyt2Y/C3X3kbtdfFqYg+CNOSEJnFSoMlAeSAidPYy4shbz0anQgRCa2Etz2sKUay2bk04HK5o5E3LRxR0Al2NbL3vXfsBJIWNL206MTtlGtANTuOirSZMMwQ1wtQeVeEensS6/c5aLqdVI7iGZ6FUseC8DOoHvIfFwyutdxAQMMD7oUy23jr5rVOi+rAgXLJO9H7vMXC9Tj62a7uEPPjrMIwfYPTu4T6ub8LUrr1WfaY12FCDol0TiobE3xT0glLrDWZeD0QACg9u6LyIHrXh2pNrq4Cd9K2RESZqRWstpvXdOdVfW0uJ5TQZ8sar2FN69TS+keA0UVYM1cM5QJKz9IbciqxydL0s75FHMr9Vtk+Evd21ndn761VI+KzF6VUG/9pGHioU1HuMPJgbb+mcRE69t/hgOsWlJtyuQdHyoyHdqBof0FeUhzds6htFVDtKdVTIrWpxbG9NG+23iG2ArnlGk2HF+2S1FsREzoTgAd7gBF1YSfv56uid2l9ppc6ieHK4d+7kNmkFvvwUZuviS4P6WgFMg0PnP/O+Z79uD7pml2tTCDFEdFoCfuJOKmeQN8Gb3+RB3pRf1tVa+rm+xh3isjUxUDYeRYOi1Yyi4Y4UEaPCwy+wlZa7lighaEcVBWVvDMOKAiLYHoVoh0IXhzxXqfYZf2qtkcJfkIesMu6PUpBaa40ahZpcNbKuagGu84HIFFARlfHg9KLvf07sXB5aDhW3Ogo/i2uq2htP8hvh2kce1ql64j3yxHu2vjVKLYo2iqaLN1AqEUt/bVC0xkWr00XzsyB+9shV7NlqYtYXvphAu/f4vjy4jrQdnfVuHn7YLeVmvDW4aiHoons8rlgIsq3SKwesTjbl0pREPIVLzFS94JrxRz5g5SsmPjgSK1JG3vTU3qNKeUFVRt5vthBfHN3Z1cpemewVwmOH3Ibrs1iXttosgheWNO0C6tEMRD1bpsefvOG6utI3cL01mz+hYKBKbvenPnV/omJ53kyz3udZ68gQCaXeryD9T2Ju0LPkuT9B0Qaod5JYSyAq3hJCzVPxWTxU4BpUqEHRrnvx50ALoDVYrgE3BTjBUyEUzTgggP9OddPq59UCee8SWu/sqrd5UhOd3vtT9TJ2vMqqOiC6DkHSdWhLUMZZbU+xrsTrgZPXd0ViGRNSdYorTlaZ4a71pk7j47oi1vGuieWq1mlPx8gpX6eIB7jWWvgx7PzVh7uNi/ahB2fEzkqTH4N/kV6X7RdBIt+igP+ItbLW08gOrunkSBG6nwiVWjuF8xVZ/WBr82MpAUGxv0RNIWsvGJGEid63RVEKwt19E23bB1U17LQXOrk1RPfUdTQQF027Ej/MjVCNeOsNOYg9kmsaeaL9r+IaeggMut6bk6OJ4AvVwey/+qNJdNZpWfySRHS1MldFnSrLXr6WE9K+plxq6U68o9j8MzXmi9+vD/FeoqxapH60nPt1rb4PfEy8O0a1T6o1PtYCjLrST2saea3pqyhI5f2YyKW1I39ts5HISug9YlZ7az0PzkPZHA2K9t7MMRIlrBstMMHd73cbszYDrikdVv3x6exEOIdILfiNx+f9uhTrehAiYkR/R6rOEn1h0jWwvaeNquqGC4SrGlw4A45HsbkV1AEDto2jxU6DTxz5XFQevKRZajdZWmU8+YVWZFmiaMnQaecqDo4qgudtJCn5dOKibly05qgUuyBKiCZb40rxR4GLkHAHMXl+3oDpZijtS64Vaa6nJVpJOsap1qLhudS6skgV+R2qeKh4T6h2R6fHymuljahyqvcVybhyv9HZpNfhqawvxgAyTr9uoi/XwV/fyNceGL/fznqnoW4OaBKd60DUTDqApuSa3/L2TudpDY01/DXl1LxzbSYaXtMolX6PpzDo3ptV7sl6zxQ14ipyRtZkDWW4/KYQ8eVq5X2sQlvrts7aBBA+Vt4RfMU9z2nV4/PTNN+cEB2oCTqlaILJBY7E1vj35WEQB//97j7aobMWjTndOVHLS71E7QunQdGaw3/3IrJ9gkt1Jz1kRDrs/EAy7UlwDi1T2alK4l9dWofSmuTRYyiEkNMuHjfshB7VOxrgonFOYZmiYD8IARVUhhitkvNIA1otzX1aANtVW4nyxRqBWL978yjxvgZkpa5LW82sh8AAJaG8pp3owymNxTXESsOFdFE0KFrjotUfu3gHoGrd2HucoDij9E/9fTnxca9v43xf5/eeY1WYAnC3nsiySxGTsPqjToy+3qob2jEx0d/48Zo6tXJbfRE/N45yCXrDtenkpuo9cNfuJMZLToPvPfIV16nTVdZdFIHcLS76h4xeQ12bH81A1BPegS1LgsxdSlZCTgdQ1gC495PKuQa8fTInOaveuETvk6pyfleMxOkD9Ibc6jeAfLgWFQHwTVDWEum5ZmadMrClb5USsqWst1/ivnQeevKoekqa8mFtqYBV8544IHTGH23qWZsrB5f8rJZihuK+OA2+n+Z6lTVFzFlby0Uo9SSmJ0VO5ZrbddVybY4GRat/R6m3nsOkZEKBK6xayHTdOkoWjCIz53QPJh5g5IpWS0qPKet6j961TXmO1Uk/xxUXRAbH7/WViO5c9TGt06kG4y4EBxDcbvuySwU6yW0VmXNCiSgomkc/o18+t4q6aHUTSh+E6vdpVQ6tKANKVNhDOh680cE8rs75F3EaW5D4GkvIFlFfFVGLzuFPrbKWdfAbBy4/omYIrseHq8Vdo/xJO+mJFWZODOCUWmD551LOgmhJraTh2mRKFRyCAtfTOYGqvGXXyNs0FLg4o8oQ4bRfOr3NWmDR6qtyNJ6fXIxeHV7M5kn2OwDltAwCxvq9zv7Oxr1b2xvdVvYQau2zE8MZZQM2FafKjl1JrsN7NtK5Fdaxa7qSl6oEPaYy37qQSKfI0Ntur0lxDqFW1j4LAnEh3p72W6WCGTzjudY51rhozWFcPCZCfCIQVZrclHogrU9mKmVFGga1VEB+2Jh2I8e1ExDdqpLFzEJAtf8AbBkcnIjf6rVoyfHx3cKpgcOqCqC9iurXIgLG+K5pqgGi1FmXBsc64eV/yte16oe6givZBzgXZ1fjr75//f/9/tH51QT5ShgGD+7s/v0v7231P9votvPTl2as6uXg4DSRUhEM+rz4O6V3PqpcDOCb4fWGtYjYlbbjBGl0cPKW8KWER4aIh0EfydJ5/AozSmvflHXxYDszGWFvoBcf/Cat17ho78c/swZV6nqrS4cRwUWsHkzFri4ijyieNrLWofv1ulNIIHFvm6LBtQ4kyW/voX8McbDwcauLCm5N6JoQggEIAdNZfHw2ePjk8Oh8WATRGEB+AywKw/ksuXOwnYFtQoD2Ik7V6CaXa02GCJ8epgqwNU1UVy3Ita4diltPJAHxGPxaHpBOmuOkvLJWo4R/svHPGhdtXaZQll80AUgqbIPvjhRjZ2XELQFmppjbxHBNQddMD+IKzjlZQyKRlTpQHtlDMBcbaX/v5BtpexK12GqOMBEBPOtbpifdiGgo5fWVtg1rMyCuGOhKQyMABIgkTSfT+dnV5PRivPoALLw1WP7QjsLL4eZoOuepWP6ljIkSE21OLMT4THMqlirxMmqRXaTIleJCWctPkQ/Q8XjTbSOTwXp+JFlcSiUj8sQULBwv7XItE7SuPjxf6eqnIoEr8TzExqa/JgKBGo+mo3Mt6EUQBCXHhQ6/awUxXQkerbbPBJI7ORyl+1EhJfnArQkCrZWGRR5k01+JWBFyfpMjhaRiS6afGBqaLqpSSpbqk5De21LqRM3KLRY/obMdr2XENwNVV1G7VzmlhJCBIn54eTOrtOXyPwAGLPsZmOSsZf6ZXoG3NA/VNy4PAhFvy2/SVPTmFGYgJ8ky2trfy2EAMkVNq95qIUvzFp8G2ntQW0ERyVdXpJM+wpmp96CPJkZ02kr87K2ZzrBWXFbvRgQBnnQmBlGNf9agaNfkrtVSDVo7CKzt2UEQODBn9CihNm7mTJfL2otcmavonfOm6iggFMWbXGeK++tt/jw+SaxT9uN6UKcE3jjs2myBG/cac6ws89Lytw/F/88kSgjy9un0LvxefRVRahWWo9c7OgFsHilCJ4WidXM3aGsYKvLjO7WVUHBKqKMxYq2AxbWl0RsXrTl8TGdF9r/qaR2wEe7jS85kU4gsD0Qbhw8F3jpU+gxFQgDQMlswZJdqMYW4NrbH5o0nLpmZKgJxysGQEHfq2TRNY6dnrzKklLeTZzaXPwgGzPAOnMmo6feJWBKncnita4V7WlWKx53cR6cRq1KY5erBIzqzlLmqCvh6+2F1PWmNr8mV/gMZZNfqtAZOa1y02lYLBS2nk1nQ64QoPBpQzJCa8h3W/gaTtULktHEaSRlI01IMmPrXcIOOlLtZzYecWjK5gNq3iVdTqckpK8Wd9cyljUH9q6mPQe0dI+o+aT+mUh/R/QxvA11lF1zdbREbW7n1kuum8eZs68LK8Ed5XtNkK13UGr0gzqL8y9JLBC9GHpNFymZpdgmnRl2tWy/z7dFHHtxLAJFo02SvKNbbO2bGDY7WKUfw79K0MZWZAioChhgKMHB5aiEM0wttjtUKbYagYuBYMRjyPnMtfZ1EhwD5Cu69UQIpPJumDXZN9+bdTG4l6cVvjzJupqr5GieetaxH/RMRwMN16NcBj1l8rGoLVu4JyP8g/zLfM+XPWS+rFf9Yk+5CXYIE1vngXSFEoc72HgRTAZyTgfVjiK2yZtftiHh0W1fchoDGWoKzE1wD9NigaM2hxw9MEZIT+SQ4pjygGuZcV+6jIjtDLUVICMOtt4HGDQrxqbUIlpbEyIoueGBRdcUe1jwa0JrXiKziFNjPitawZeIyQ9IYW7hiAhgABwAQLEPOmOykLbxD0kZrJZSngC7aDY+Yyld5+9TtkAgGU+6KAgh5y5ZrG9hx4+mkGGtNHJcemb5CPTBU1y0G0ILIWuQ78Ww4wi5J35KuIbprXLTGLROuDBqUTBxRoMlUJIHkvJCqC5Nx9/ZWZWWSWqBHbZbWmvuwEj1Q9g86W68rDmpVNaCnpL1roUxcMPj9I2o2RONbvVVCvRnMmctuMq9CyzyvvCyNiaXHJq+RhX+Gr0TryJQ+b50zJdIThHAHt0jEMkTkA9XLxcAmOKbaKGuftdaa4bzZlNWqnU50U4y/JldDhBexgDnziHu02qjVg8FYi27ihX14OnWtZIGNi/Y35JaZrFX+J1mp0GPjL1U8aHvL8e5IYmJLazfB1o9j5d8v/Uzph0ICRFM3pclgmeB3fKexlthb9zCttKgTyoL3kyKDA+RW4rwWy1QgiG+ippHXwsOuSWR8hnijsIU7X31I+0mNGJTpmlYiDHyZI0U/KoEcZeM0EYY5KaUCrQ6p+qusuBNbgXa/ogi87I/iTOCj7d2RbYqlTTaTYl0r+kaUkUHei9Z3bPyzxkWr4figZAehKIJJ7FpHmHWvZ3AQoad1jHMJKPITb1AdX1dPjvLIdDYHw+4OQogk5WnKUa1wAQABC8IwiMIgCIwdJE7Tg7KlrSNQRphL9aik/u6Rv1V1YvxY1/3QX5OrVxGxoHQBfyBMENVtl8k/9lA6N8ncVXdS1zewrgkBhEpXpnb3MJKNi9Yc14G3mdAa7xgRbJQcfmBD9UCqxgK7KhosiNGht6fhgsrglbyj4GR+Us35TV6Npu+Or96dDkaT+cpxK5wwGwe21W/fOdi6c2NnZ6ubA0baiJxet2StxHJl8Shl7iidetYyPi3Xhii5akoORwsAIElqOowq72d0T1Q9LYVoQ3U+ECDWKmVBEbPCMRtc3ttpMCl9636mA8y5V+3vtRlApBjOynOLUFci8wdpKvcwjBSckh4GuObfGxetOWoGjSqWgtYbDF2nV0pByNTfO92nt/DzhzNQVfBF/OsXV5Pvnx396fs3x2cDEyqUTc07N7b//pd3e9329laXkREU5H68RZRrXETI73OaM6YFFYU6Qs6X85tFOEOB6/yhj211ct162zaDIMBBl/cbXVNWbhVyadwtc3Vi6Bltp5dYu+1tjsZFW/tWSunhAnOhq5pacl0eSkSyQENMnf+IJo+TISYmDSm1aHj/FKAiAQi/GoUZXGVvshYI4wXICEyIXMhUfl7CbExzKfuBC3ExnDx+dfr7Pz9//vZcFPSMQGLTZ4zB5/cPNjdanz64kakcLSn39QMop4nV0SthKlZPzhWHc8JfqX4bBCuSjYKrVsotak6ArERK2wQCwvmBx0hRNh2speA0tXgzCDO2U3ESsYHaZFhcr4X3yVqnB3I568ASQUSnRhCKzK56mBq/rP1GrlBrczQuWm24C1JChFOLuRpcbe0RaOjRFx1qQueB4QyKOFdI6WeTlwnVYHNXQAIvPPIAFazFwk77ijbVojpelHQM5fdpyufzeDiZX42mYOb0ChgMp7NZnKScM2UckJYroLX4EYW8KE+NcKviScZy+m/pW4rFypA8S3k7BPkzzggW5e0TUSinMaS7UCaPv+Lga/14eicN8eT1Ql/WqyPDa62AtNK6QgVGEiB36FMqGonOMRIJA4FkxJqObxy1xkVbr5e2pnxZDpBcDiZXw+k8TrlY0gQIXthWgAUBa0fBVr+71e+GYVCa8xVrxRCfDAzbfPWxrfJFpPHK1JaIOB8ed2UdIqed21o4wgBaUdhuRa0wCAPGc0sqefQLCgkGJnUjq0GvZZ5fv4qfhrfW+Em9h+Y3qxH0AnF5nUIU14zY+po2qny3ln4L9TGJinDg0iWDVHQgSRVty/yaaA49XjHSX2zSbtE6srmDLkPsuNFwpQttXLTmcHCeiHSCxDjVRK44j9Nvfnz3x+9eHp0OpvOk0IGWO2wCOu3w1m7vt1/c/49f3N/e7IVhYIqiXONUa6Tl1K9ALxetpe8MOa1T3xzCO+VRLCLjo1XIruSP9jrR3lan343aUTiN02x2rCYkobWRAsO4vi8rvQugNB/akyC4hfaXur8yAPmcmTsrGDAPMjBkJrjuzTU6QNaRt/ILansC1C4QpMYfB6LUW8VLL/xktYgEfuuIRvCY0HXkXSNqYu8FZY5RVhxOHeyE4DYuWnPU6ah5L2wi+06S8DeHl3/6/vXTV6erZr3iwQVsdKKf3d462Ol/8cmdzb4Il+eRA5q6HrNGo+btnxGp0q1F7k40Zk6Gkj5oeHKZ8lwMoBUFG52o01pAqHxJ1io5IcCYJZOHI5Eeniil7Em7ieLgtHtZW9E7y8eAIf6qw17i4EyjOzfRUfbojKazeXkIxFkXlOvq0K6Iir3wrt6JE6uOR7mVWlTgJPxA330oHT9Wy+MUAFtrc2vBCxsXrTksS1pbRu008xCBXjnsmMzji8H09HIyHM8MLprod6LdjdZkOuciFVxYo2diMKr9vQnqt9Llg7ljnEhhYOp1wGNHa/MEHhR685wRp5NJPB4Hn4rehAgZy7KcATO9SkYF0GxIDPEdeSyoisG9xdladXDm4GK5Fk36hsPG4ZcHv55UrxV8WodtrOWGtUyt7/dWnUBQyi7gkeYz4ZqUfCJ+b9XH2U9vsEl0Ni5a/fiZU6sjZWNDVggXIk1FkqRxkmr3HyFEHAVJknLORdH/wGUArHT52h2aqJuL8xUhdhlxX0wtC2CTE8CRdlwTxlTFDC6KDkAoGabIWxmBpRXDWY6Ylc4jrG4H3glLaUBxzf9685sj4Y368cVXVqCZFj1jAmoTQbdOcjzZh3DC0dv3cMkjP8EouiSlq9gGju1V9IootRzWkfebA1apOvrIe/Amgnt+Q71z7Q/IXKVXAbqinn8LR9AMQXX/TNtmvGZRC3OEtNiQGegBgRruB+lmr3h+hMiRQvBINFKutdiulRYVCQjq+OIKIRMg5GRm8c6FdnZozTp9EHAhURMFTL1AiMmNlj8lSg6Z0ENt6grCuy/pyTIPNIvCXIO/x7WCT1XgKO0wOi29EpdNvQ/lYXZMdsav2Zx+5/mlrbNFHWctukafk4gBb0jUGhTtfXi4SzItObUnz9EgCEzLMu92kcmg5cobdcEXAsrl1lvyxdgCEeCqh1ai/srvrbSK8nq1/J+gdOsQy19K1Flab0alGpI/KYf+8mDmP6vGBenVyKtYVIgufwulp5MHwYS3gVK3gcCN2jlQukp2M+ozmrzksixmIWW34DsDYIIxWH2SCUHyz+SHKnU2lFqYEbBWJWcv4Y7Zw1rfnfX32kuUcKmlukA2CGKpNcCy4VmOoGDAGAp7m2QAtIl+Cs5nmir5GlRniEmlEXRUf1panNKw5IOWlxyor16LyZVGXv19yUiW+Gld60PwQisTA3BpxWlhePmL6siX3qzJ37KqPMknKZUIy9+Sb1UeWNVoaGXjteZaZQYu0dM49exbgT156LS0TfjCaVy05qgauCDVvtYAV1tzps/HLXgTFpgIK0FlqzPoi4xKHiRSlFayWWpxGCWsVNcY57y0Z6gfAAOjRGZT5NVr2h1LZlGrNVm6B7XSRf0rshmbHgR0OQutQc8tZimZWzoPsbZX27EouACJBkwIsWgAZkwmoWBoZ59aJFf6p+x2a6NwE21vaRBwjXkKRTC9uWH5e8EYcJ5zp+VcJMwJqEPMAtKsQ2+ys8qR4S4OzrJr2h1L607bRqAlLtYaltIXKdWlfoLuiI4WXpIrX660NvHUgdMdEpuF8xsojXxpaml9U60fqeV4w4MHrXob0v+utbcm1swGabPAQM0Q+B2m/Ob68ggs30gX/1LJzvU/CzJSQl883gRF1T9Zo8QKcYMkXsXjlmpkBSs7Q6smRRYY5oLknmk+YH3jrmqw9M2MMlAeZcilpxSkd/SBCoJ94FekrwVt0FKFx6f2Z1nr4ONlr5SvawPmugsnHMiWTd5h4341KNp7NqDand5am0nR6zAGKwqNgvQzK6S6CGK9JuABWWN4JbIpiFdzgnSxIO3YmsBzOtUZHlkC2hmqEjZSGqOQOno/WZXCKwOu9Uq09BOqsrrTlql9LsrI08+Jo0GlkSxNQr00ghAAQgAXi5SmyUcX1v1LO3XxuaQdJZOiDgUzM4mGmUbPCV9E2PPxO0FaZ3AclMLpX/oAMvj4yANNyYPYUY5YPHzwKRpiWijL9FBgZhhAZAmdvDc6Z4crrV1zNC5a/YiabCysAhdOQUzRYBlRMwVQY7LkIGLprHqCxDUs+xAqaT4S5NUYr2sTAU4WhxivW4X5kEniGu9qCZMswn9AImqqhS+qFnNPWV/WjU3NoOkhitX/rUrStOupNIyMkWYRYhy8BwEnrMc7MV3HlvjutMV2rrOuus3xm+SuvDl0bIkYXdNfCr7wPW4Sn05AEwDAAzNKZNscjYt23UCaNnaskRyouIsIhSFerLR8SnykTB/rqzVbfrZSjWW9VWusIZdHBTEevlu/S69qIvIeOQWRePs6hrCysruRNZgUvw7WWyD21eIlJh5iG/Io+THWGi/H8jYAoW2YALlqD9wEpyk1fOAo0eg61U0Yj/YO6dPeSvZBfL9+06BKaIEA+UgpFZEVkv6YxEi4VEKnFtdacUHKzHGdctaCRdMU0m461etYGhetOXz8MyRWwEnFrDN19bECr9WKHJ0BWzpmmgojxlacAmpNtxM7ttYrtbojxAtZ7T49JnbtZrCScRNjX5Xsyq/QBAlzrZrWAgQTeuckd85UWEgABGQaqrqKXdQtUwuL4s1xdBdK8VtXjqq8jyxKBQzy89ZMHEUNAt9fke2Kvofhq6nUUW7SEljb4DvAsdqUqN/gW9Wo8EFWYyS/BYKQTVrnBlL1QUEoKfGtamcoiXJT6GsF2q0Z7b/lo2kXWJfTBrWzdee7CpM3mFwbO/9PA6AAQJWZX10a2bvywI+eUesmWosCq78jKz7hJDPg7wYVxMJFTqKvddfUOQZ1JyuJbGF4ZtmpO8edxcoEo2k6f2ucutdzEjzacVWzvQaczHT16xz8eoOTaxCjrPIePfKnxIs2ac0GRXv/h4xOI5QWWmAMiaI085uBEHzJhiZ7atkPrLTRVscCKYAKmMt1reWiiM4V6LB9IhP3+shRrRkuJy0/oKkqWbEW5feFMqolxcZisuT5Ta0rr01/m6aEFgxQlwPFxNNZ8un4HC6PkRFtZNRoqxkLK3iagb0/hnInKgEePuFNQCzei4PDM4Bi2FaqfY/gJJ8GMnmkFjoFQh0C6PpCVERQiyRZ5UCII09fidaqLOLIg28bDd6kZbXYqmeMkOGBe7KVMnkav6Jx0dYVx5i6C5FJSS5fZap4IFN+UBEBChsTpbMShwldcyIIhRKle4iibYI7GUCrufGu3iDWcZsSCqWqFCuDlLkKeAGtihXiuiyV1yBwDFiZDso0aDL3pkxrR5RYdQoYPGAJ23bIioCiTFSy7IBlVPCAuOeZwCFTotB1a3eat2AumZIpta1rRLsMKfV2lBQe3WVUGVmRs3m0MliTpBWzdVbmbdViEyMEdQCd0rtqxIWUK9DfHV5j1xwL09oMQe04s0khwA8NZvo2zoInJme1dE6acWOgR9XEFF69LVpVRLUplzY9CEUs3PtOvAeHfNFSrwhjwIBwblFCZdGRd+VxXfeicxk6EEJ9UIPHCqzGCUavza/lSauM6vt6obRIleQoy1hvLYrg17aDWD/g10BD37yq3PO6KTMbFK05fKYXJZyyovek+KyYz2TFajT6QsL7runuGn5O10pnC5eEjoqMbqRKGkSmmNvVJPnVrFQp9iI8viousfBBloVpTEJdixAa6nDj4BallBsRYMbRIKvjSGNAgFVr6/L5WYlekC0apG2rivT4QOubAULGCtkO8QJ2bepZ2y4ABFpHis43TmLnV0pPXCkmDkjrTEM+SRl5QDOq1oXgMe0pk8REpYZ7wDglGwLm+TXNNI5a46K9N9etCoaktVxiJYptmPfAPO5tHc/7QWEn2lsltsH/5AyH0LT1soVjkrcSKFCSVa+z5vYXs9Ff38TTCnaYz2o8cRXKq7oex5tV4T0u+SqEpR6aKOt+IjxYhWLW0vXZ6RlqV19WS4dB/CLQGlqbo3HRfmIumpVcg5bIE9LuwjQ+GZMgE+lLlKWIYADE0iI6Z7fp5HoueALdpZXXW1u5BTrxdTybQOEZpxgya1e/SkFk6kjQnd8cK6+gpPLkYeio0mkIgKAEgHA6EN+46fGt+ASyTFcYJKu05E2CB7LquWnPo08hZNrg2CdS84RIjHhLAyFcen5oGS74KJ/KJIpqfXHWN4J4LfgWQG8XcHKDkGmvVSVGRKVxxVtixYg8FfF98Bp6XRsX7W/9MLWw0ZNZFF5myLdnfcOAvWwGVynRegB4FoNoiynWBy9Lt6YV1PMgejjWcuxSGpTiaiN9ZE6Ma9q9gVicbnXu6SYQ8ZOQHi6t3a9CtOYRpmunhH6ocyeVlZxaWYBAf0tWFSZ5KVnjBMQFQTLOYO70NBkoK18jEjv5oVCUN25y8qxNKvjge0wb08jjjedEnwlxnauMvJOQGqWOxakpGPdQ8R1B5eltvDT1aNoFavbV1grKQZmqCSx66fWhgNWfHc+alQAAiqIo/RKu7wXnClnTANbymjTbACxoWozbkvskp5daWu/5+pPIOY6oc9iKvxL1LH8nsY2KySMVQano8tZrQGoXBwNHdbIPZ5vAb7v6nWuX2LoHxClKb/KkDYr2fvwzXF6tWo2kAN0ezGwYGmXlWBNqVpvrgYdriZGsYBsFOkKaniixr5xnVMnA6Fuya2GQigdY+zZkWdilu8FEWR29jMxp/lrUFEdmMoIN4LCoq4SDlmsNDCXtVNDF2GmNkvm6oH2m6WqVS/d2xYh7oZMygQmcw0nt6QBPxdqskgqwdfABBbZdie5Mb8FEhQPkfD2FwAwcRRGArKdCoUACm2CMWnv3QTUsNy7a39xRQoZNxVVOEssGi8OWic5F18BS+mm5mQhd/M8s0Rtdg5J4q96i0QhBFG4s6I2WtF2KAQhTDpTu7HoEkXgyGt8bWEkcTPoEaJ2YYt48m0CBAjJpoR1Xyit8CuHiM6CIdeLJVlNOlrJNrkjSsnFg9kdAystKz1JK6yAbHlICZWVYdNq8SwYKt1f44OMjD46ycmArirW6WYivgwRRfgUGyDPiBgqJgtTfawfHdGmksrOUJTAV9lk3ApPisCkSs+rDNnVp6tEkOuvEz0x/Xc+EM/oIwgAOfGiwv9ZsvafFWbruNVGduQqJOlx69QML9H83ELmiN1TlVt/j9CNfmik9n2w5HUj0WkQ0t0YtsoqjWq9qEF34zqkXp/q7XgdZVzFgYGu1TTUuIqKM5tqWmNtKaY4GRath/XiEUHgwZ2q/0m6YYqWnzqAkDkVYAHSzSETsXR+caGGJOQjkumLZ2SoAgHNZliEfdCGg5CWW8AAhgGcnElD8WOGfma8ZBFjw7YQxUFCrFQCwIssrAGmi7IrZPMjFM+ePIBbzTSzL7JlYobe0N06cQjgjVwlUw6eQoMUyqyyx8mpLLdEmWQ56JSXQqNW1KIV6cgSEyydt/jKBlTrBBY7umMBayuBbMScKCoszciE9g7YhBcbkGS5LS6ymgEnpiHPJsWFyGFwOZ4KAUbIlYGv4QEoLcM8YGRAroR1ezKDilHhDMaBt6Y0v0bho7yUur+HkCF8AFNJUmX9mr3KmgNL0jZO4tbiOQO1wWsayn3Kecp6maZKkmZ0NAhYEQRSGYRiEYYCYrThOp9P5ZDqPk7TAf1L0fQRAOwr7G51Op9VqfVhLjK0ctqyKkVk+nO0vHFLOkzRNkiRNOQhgDMIwjFphyIIgDALGoILEtZP3D16iMY7TabGyBAjXdeFHblyd6NgUpWTvL03TnLU4S3CHQRCGgTdkpSXXqJ31vjooaCZW5WkqkpSnaZomCRcQMAjDIMyOIGDFKS1/N07S0Xg2m8XJPF1YXJbXcsJiVTGRnbDf73barTAM5doJ06AR2ZHQKot6TL3JDhMczdwD1lZlNL5D46J9YBhbRYfD2Jq+LB6SQzg/K29tjTaiNTR1YY99BQy82KYCDm1tRCZOmsTJPE5n83gyTSbzeDZL4jhOknQep0mSciFYwKIo7LSiKIparbDbiXqdVq/T6nZarVYYBSEs4+nxdPb28OLVu/PLwbS8ecu5DgG72xufPrhx68ZOFIX4IJfo2cClBETrspQxpEVgXybdKMoQrDQHuACepmmaxnE6j+PJLJ3Ok9k8nSfxfJ7O53GSpoILxlirFXba7SgMWq2w02n1OlGv0+q0o1YriqKQLVBJYSUfB7T3UPvUVuFnEpQrS6hlA2Cml3OVzUaWD33JO0mY50pHnPN5nMznyTxOp/N0FiezeZLESSqNVMBYKwxbrbDTjrqdVrcdtVthqxVFYZhdcDmwTAaTrFs+hRZRW8xn1ckFA/09hdcmG5Yk4XGSzObJdJaMJ/EsTuI4SdJ0HqdxHKdchAGLWkE7arVa2ci0e91Wr93qtMN2u5V5bUKAEHwynb94c3p4fHU5mJTxaClaawXB9mb3k49v3L6x0w2DgAVCaCYVXoBIKVADxgTnKReC8wzxZQbnKfOcoihkQcDM2gN0afb8l2nKORdccBAi99JAAqYX0DtjQcCCIAwY+LG6NC5ac9QG+ZS8GUotLZGmqLh/lASgLIURVo4fXO7Dw/nDAXZts55H96ucwuCccy5SzudxOhhOTs4G744vXx9dHp6NBpP5LE7ShMdJmm1bAWNhGLRbURSFnXa40+/c2d98cHfvzs2d/d3NzY1uqxUEjAVBcDWYPHzy9p+/evbs7TkX+mpAxhgI8cn9g/+TfbHR7/b7HYbeOVIpT9+b8cGR2oAXXj2TStUEgODAU54kCReCp2I2jy+vxueXo+Pz4dvjq6Pz0eVoNpun8ziJ4yTlnGcuWhS2W1EUBp121O+1P7q5df/29s397f3dza3NXrsVhmEQBEHAQE0ce0cmlIlt4sYrbzM53pznqwrkaEvBW2BO0ALe+qBd+7JmeekRtHZDWjIMQGSznQuRpjxO0vFkdn4xPD69OjodHJ6PzwbT4SRO4pSDWGHtbBGWbG607t/cvndz62Bvq/jiWIaNeg++aTRA11lMxObxtkf1JEmacr4YlsFocno6ODwdvD2+en44GE3mSZIkKZ8naZIknIsgYGEYtqMgisJWFO1tde7sb967tXP7YPtgf2uz3+20o2xILgfjP3//5quHr569OWPmCdxrRw/u7Pz3gG31u512CwJQcutG9SfXGH6epJdX48ks5ikHSW+3lMxmQrSiaG+33+t16Dbc1KGZ/yZN+WQ6H4ym8zjhKc9gg9xZlV3GIGCdTmuz3+22W1kg5yeT0LhozVGP61YRKiueDcr7QtlNW4n7eNyhvB9YFYu19QRWgTkZMikjXmh1EXJLKk/9dBpfDifHZ4PD08Hrw8ujs+Hp+fD8anx2ObkcTafzNOap4As3LqurCgIWBYwFQRQGG51od7N7sNvf3+nf3N98cHvn7s2dWwdbB7v98XR+fjl6+ub8L8+OBVfZT1ahqmDBxWASx4kfXIrDmaWd29KlCAr2KvlnAMBTPpnGR2fDzvPj04vByfno+Gx4fD6+GIwHo+nZ1eRqNBvPkiThqeBpysVy0MKARWEQMBaFYacd7m33DrZ725u9g73NW/ub925t37u1c/tga3Oj225HwbIur3ZBLW+NnYKugmDI5+R0MIXHGNnktJGPPPkpj1D4PIjpLL4cTs7OR+9OB2+PLo/Ph6cXo8vB5HIwuRxOB9NkFqfZXJeekwUBi8Kw0wpv7HT3tje2+93d3f7Nvf7927t3b27f3N/c2drodFoBueWF2PtinQA40T+xmIlzMZ/Hg/Hs+Gzw9ujy9fHV0enw9GJ0eTU+v5qcXE1m88x/EzzDn0AwyACeIAxYGLB+t7XT7+7vbOxs9XZ3+p/c2/v47s7N/e39nY1svTx9ff6Xp0eFDmAZUmew2W2lgl8MJkmSCgHrmPb5z2eX49/98cmz12fj8UysonahsACKg93+f/+vX/zyZzezIjl1oqpeoxWknMfJ89enX3//+vXx1WAyz30yUbyBIGDtKPj47t5//NVH92/vbW9tuGokNi5ac1RdLR6ri2Lc87yDtKswgGBZU7SM+6vdahXeHadTrYPTMuUijuPLwfTo9OrV2/MfXhz/8Pz40bPjw/PRaBqnS3dMcBAZa5gAwVbwycI4MWDAWMACBmEQ7G91Pv1o/xcf3/jFJ7c+/9nN6Xh2OZgMxvPBJMm6D+T6MyGBL5N5hkktCuCuZ8oxqRJcFCQnMkMrhIIJMRCzeXJ4Ovj2hzfPXh6/eHP6/O3F66Oro4vxLE4zoJAvkqdM5A0py6rH1fnZoic2YLC50b6zv/mLn9381ae3/+7ntz66uXuwv7m92Wu1ojyJBgaSNtVTQfBUuhaNnqRttXcxKNeGw5Lixso5uLoZhMQfwdXwZzent4BzMY/jwWh6fDZ48fb86cvTH18c/fD8+N3p6Go8T7K0k1hKsea6rTyblIs9lAn4McgmPOt1olt7G198cuuLn9/6/ONb9+/t39rf3NrstqMoCPTpY23ZAxFENyXuveUBFrNU8HmcXA4mJ2fDt8eXP744+u7x4aPnJ+9Oh+NZVn8KS1sgVr1WK9HaxU0xxgBYVmTZa0df/Gz/N5/d+fxntz59cDBP+PlgMpjMh9OkIKa2rEhbmmo2mS3sgDZsNsmgEcXW5KTJ2dXkd18++7evnx+fD4v5+1LzE/z8/v7ffXr3swc38qjJyQ6rr4wLMY+Tl+/Of/eHH7/68fDwfJTL/0oNTAAAURD0e9E//vr+zd2Ng53+9tZGg581Ltoa3TKk9aa6G6dGqLozrExMIdAnQ3pVnEsgtOLjo6Q2ruaaeoh8U/nqAgQTnIvJZH50evWnh6+/e/zux+cnr08HZ5fj4Xg2m6fJKpEqVixhwARfGhkABkHe/AY8237Sk8t0PEteHl198+ToFw8O+p3w7Hw4nsyzog8AAA5ymJr3hnFOTDsDmHWBZBEq1xxoyRERwEEsW0kWniUDwQSIy+H0u8eHz16fcmDD0Ww8nU9myXSecqWmDVa5QLY0/xmYuOwpyLJLw+l0lpxeTX58dfrlw1e//Pjmbz6/89sv7h/sbbXaEcsMNtNPS1z+FQFstL6CVrlSLPwvWDWjMjA4hcLU8Ij7HEAjqUJopUzXkjsKx5Pp4cnVNz+8/e7x4eNXJ2+Or84uJoPxdBancSryDtxFPXvmNYglsLFYAYxlc5ULIUScpPM4uRzOHr86u3vj9ecPbvzmF3d//fmduzd3NnpdpqnVK7gXWmgccazl91KL6kB2tuksPjkbfP3o9deP3jx7ffby6OrobDQYz6ZxslyV+UVh+c/lFBci58LLBioFASDSNP3+xenR+fibx4effHTQ77WevTkdjeeZg7JEz5fPuxxkvhoOTU2E/DjySlcdMgvoyAWETAAkSTqbx9N5UhgQufRtAS5ywQUDTc4EESGUf9bUDYNIOY8TPovT6TwRQulDYiAERAFrhSxOlpBuQ4TWuGjXA56ZqiJqnHa6QrS8f1Pab0CjOFiLN0bHvYhxGLKHOZlpLsR0Oj89Hz55dfLdj4ff/PjmycvTtyeDwWQ+T3jRwVh06WnM5WrPKvi/s5hP4+nlaHZyMTo9H232Ip7yy+EsyxZqnc8FOMFyYGbVvU8fMRNdvsnBtXlpq+xmNvTLuxIAMJnF704HXIiU8zQtKRGozkfBcZF35PxycSqSNB5O47OrybuTq7dHV2+OL48vxl/8/PaDu3t7O/1OOyrIt9Pa701k9yaSWyS8EbpAprSflUMhm3uNBxIKC0ZZNwJh2S3dP+d8PI3fHV08e33y6Nnxtz++e/Lq7PBscDmezWO+BEoFgMhDGNnVXJ12ibLkf0u5GE6zFzd9dzJ4c3z15uTyzdHFrz698/P7Nw72Nze6baSuH1c313ppVtlKZNUozj3M4/jkbPjizfnDp+/+/OjNo2fHR+fDi+FsFqdiEZsVYlghtCHtytFaIfRCXAxnV+P50cXo3dlos9caT+ZXo6n0lsGhER9NLGidXRNwK5kcsQwY5UcScuO5AFB/DTa2XtrGx6RCxyWUKI10FigyZf1ZxT2bo3HR/A8KjyWdqd/dq0Nqw1mND6jiE8QEk+mR6Zi2NYLkXIwms3fHl395/PZf/vT8D9+9Or4YDcfzebog1GBFMCT3aItBHiu0WQGTxzcLPcfT5NXxVcAYgIiTQhlakQ4t99BYEAQsWIupca27MqCqi7tNU8F5KgCY5OZniInWl4UVwcDCU1VqIhd/jpP0YjAdTeJ3Z8Onby7+86/P//E/PPjis7s397c7nYjpXHMrCTtxYpQmbbl7tMDcy8y1m2y51TAJPDR6GBT5DT+Gz/zMcZJMJvO3J1f/9udnf/j25TePD08uRsNJHKfpCrgt8MEY3v8SBtWCvHGaXgxno2l8dDZ6/PL02euzf/zNg7//1YN7t3Y3eh3KpEOiEQQc0ua4TUJPJTswnc2Pz4Z//v7VH7599ceHr18fXw3GsyThWWazFC+Bgg9LjuuKbKXESsO5GM/i+GQQBIxzkXJhmjxMVaZggGR1nRhMSLDu8rEUQ8CsXpcrA456AWFaVzJjp+6pm6Nx0a7DP9O2qDjJ5JGoL4EZMBwman1A5AfwTcDVRWcVJ8mTF8d//O7Fv3/76i9Pj14fX07jlKeF0uwl3lgoklesV0kHCVSsbhanALLjYsj7AACDIGDtVisKw/w6FcprjCNGHEYdpFrEY8UqyBbyBGIywqSChYufFz6MKJhmAZAK4CmPuZinfDJPJtP52eVoMJ799u/uf3xvP2OM03ZHmoQOEcYHNTmIfBeYZXg0m7ipnsgwV0tcKkRPFJ/2ScoHw+njF8d//O7l//zq2Q8vTk8uR7M4d87Esp94+V4kYFjoYUGhDVq4EELwZM7nSTqdx6NJfHY5Hs6S//Sbj3/5s1utVsgCjFiYQk7m1BiEf5hzMZ3OX7w5+/Lhy3/+8tl3T4/eng7GszhN89FewoVMWviiEHOAbRIshpiLOU9XvywsDDmoYUIUXGWPSM3UIFUeDbEqdMlJuBepRk2vULGvQbdS/LYLwwkVtY76opfGRWsOB4cD0fG1imGrvzfFl4bvsjxsWgJoQltGA4akD6v27BTskAj84B+Q4+8FfnZy9e/fvvjdvz/+9unRyeV4nnBWJJaQqo0EABMLmyHUdDBjYpXiKNix3OVgUEh5MdPgCYAgCNrtKIoCv8HNa9HApVLe8H4lUuPiiKy2D7byQJgsuCB7sBJzmBBQ+qv0GTmAzsq3IU745XA2mZ4OxlPBheAQMHbzxna/18ZVBOQjr1Mkuu+ETxb2ZyHFOGz1Z7Hc/xixLs0Uxnjszbnd4EKkSXp6Mfrh2eG/f/viX7958c3jo/OrSZEymS1Qn7LbkauQSHVgq2vxJWeVWBRULVk5uBAJF4NJPJxeDsczwZgAiMLgo1s7/Y2u2g/oEWKpw0URx5TPnKZiPJk+e3321Xcv/+nLJ3969Pbt6YBrxDVW7VZiObkzkyQZCggCtgTVSgwsMo4qOXiCLysGRGnBFJwTCb6iKLIjo2ckeFpe1UhNJ5ipOEO9IpHMj5UJ0LSfWfTfuEQ4TZazcdHW7KW9n8igFDMJHzfI5BKBF0OVK2ZGGb3MkxpPZk9fnvz+T0//xx+efP3kcDieJQnXqz4BMLnKvZCLK5sERSmgPLKF3IfMd1pkgmUsI6QIGMHVtjqmHuTyRfMtRFkAYdXrtWps1dl9IXlgOqim+OhLFFdrkOOUH59P/vnrl8NJPJrO/8tvf/6ze/utdhTQvHbEy0dU1Z3W8KLzdfkvIYsCST2xlGgEUP59YsVV/vskSUej6cPHb/7v//Hdl9+/eXk8mExiix3QtQ8tW4xL9FzmAcliFyEuRrM/PnwzmcXD0ey//e+/+PSjG71eW77JrJvVSSjdibleS4TGhRhPZy/env2///Lo918/f/jseDCacrlLU0EPZSSNFRf24lcLB53J9EVMGGxsvhBEcRmwQsMw2P0TBztc4Tz22Fw7zlUzAEucnlHnhmi8tMZFu77DeX4Ln0BCMGEuAUBvr/qd69afXGNBoT1DQkyhKFvPk+Tpq5N/+/rZP3359PsXJxeDKedC6LARVlYkzH0qpnNGQI/NC0OSlDHN62KLQm3GNDbJlZTSyiCl39qLXpeq2crQ3UOvViG3oxSz7KKkQ1YccFm+cDpPji9GX//4LknTdhQxBh/f3e90WvjgULy0apHN6h6ZhKWpG6Vr4OEnRFj6WJKkV4PxN4/e/u6PT776/u3zd5ejaSyEJoslAWiGKrRC0jPXpNW+fyG3hsQJP7+a/OXpUZzwzV6bAfv0wY1Ou+XxHqzpe2v3TD4N5vP4+evT3//52b9+8/zhs6PzwTRN+fI1FuaoyNakkCq0Cp6czLvBiHMFdHYGmM4lYj6hl+oe1TbtRaEkrLTESl23pd+QryD5eVzncgkBTWazcdGu5+BCJDEvkhSoArsuk1vo7BQAA5jM4nnMUyGbaCFXGSxLXxkHESd8MkvG0zjllfYvXYl94W4FQBiwTOMyUBSNwICfu/ol2Z/m8+T0fPjn79/8y5+ff/P48HwwS8WqpYrhHqqkJL5QIGHL/1kyJS30kRUrX0DJQJP6MoEXpopgb8uLADAaKFfjodnHn0lMvIyxIFOFX7SMCcGXhAJCLr4R1gp8ATBP0ndng9k82d7sddphv9u+cbDVbkV4gTm9s0/+oilTbB5V1VnxwQ/Urc4PEM0Kra5G06evTv/lT09//+dnLw6vhtNYQ2oAQgk3RCloCDIlVZDZE5imu6gwj1djkvD05GI8j4/2tnq9bmt7s3Nzf7vTjvAHJAZmHs73PE6Oz4dfP3rzP798+uj5ydnlhGdTcJG4FUqZWZ7pX4WUbDnDF/N82SvAhViQza4IAUEzucUqqltJZqnxjc3zc4KsiHCaLqtTdopUS4LQ2VjvEC2vFqp4tDBcomnnbFy0Oo9M/e1yOJnF6brTmoyx4Xg2Gs+SJC2sNpH3Ki42V87TJBHDSXx+OQ6CoN1qVUHaKUerFfa7rV6nFbQicGS+pbfrcy7OL4YPn7z9p6+efvn9m/PBwv0UauRatk55kMyEyMhqWRCwdsgynSLGIJNVTpI05owLDotG8bJ5Ero9XAhlhytidSWXhtIeq+WWBIVgXaMRZLCGjPBGMieVLQubGLAwZK0wiKIgDAIhRJKKJE3niVjIDKzUXrJSyNU2WMJkctwmScVgPPvy4esoDPZ2NqJ2dHNvM7+BrObM2v+LKGHIhVyIw6RsuUzoUcXVdqZlbVVHUkWJiEVFpQdJU84Ff3V4/k9fPfnnr5//8Oo8I53Svdgl4R1b1VnlQVTm0gUArTDIe5w553Eq0jSLCJcdh3m3iAiWMz3ITy5ATKbzrx+97ffaB7v9Trt1Y28T70xHalWRVW9C05ehDgCIq9H04Y9v//Dtiz/98PZiOM9jBplLA20BylKlEAKLAhaGQRQFUcgAIOWQJOk8TZMUuBCLrlchDMGHkPEgBvIMMULVWtk9ypzR/ZNef1Jck8yZQtz84pQeLInQhLEgWyuMBhs3XlrjotXpn8VJenhy+f//2+O3J4OUcygn5QSTcgba7jFWXDwM2SUAZnH6/dPD0/NRvCT9kjJKKwaEmIvTq8mXD18PJnG/1w7CANuuSxlSpg+PhOHnDEE52O3/+vPbv/j41p0bW3S0pmQXcG4ezsVoPH30/Pifv3r26PnJ2dUkSQUO25QMRjsM+t3WVr+z1e9u9tr9Xmtro93ttFpRyAIWx+loMh9N4uEkHoymV6PpYDwbTZZkU0uXi5nBitXVFi9b4M1oHn8CtJiX5eroTM44CE2oK/QXigLWaUdb/e5Gt73RbfV7nc1eq99tbfRarShKOZ/Pk/E0Hk3j4WQ+GE2H49lgPB9NY84tGJp8pXmSHp4N//Lk8Pb+5ma/t73Z7bQiE5cphczCZPdduDEL7CGsmCfTAhhWagkwq1NTlkbK06PTq+9+fPuvX7989uZiNJ0b9uNytVl2hAHrtsPtfndzo9Prtnc3O5u9TA48Uybgo8n8Yjwfj2eD8exyNJsnXNpa9eVXccpPLkcPnx3e2N24ub+1vdnNENC6erStH8h04seT+cs3Z3/49sV3T47PrqYJliYQCpgGUcg2Ou2tjfZWv7fV72z22v1uq9dtZVwwcZJOpvPBOL4az4fjWRYVj6bxPDc3pVMLXfxQwtEEhvvK/WRATugvh73QpYoaHKlyDuqp+CpBz8I8LbV/1d5C4581LlqNLhokSXJ0evX//NPDb54cxknKRHHPZpopyaSSCImYHpTAS2+h5gmP4zQVWlaeLOQTScrPBtMvH7399skRC/K+ewM70LKYTHsPRdbHwuPkjhVPxecfH6Sc39jdlF00XMcaeUbtDj2Pk8OTq29/fPuv37w4OhtyXrwLoxWBkLFWGGx0W3tbvTs3+ndu7Ny5sb2/09/d6u5udjZ67U4rYgGbzZLheHY5mp9fjU8uRu+OL98cX707G16NZtN5Eicp59KziEKPZ16WJnL97WVbrdIz4IOerhGgZRAwFgZBOwo3OtFWv72/3btzc/tgd3N3q7e3s7Hb7233W5sbnXY7SlM+m8XDyexyFJ9djU/OhkenV+9Ort6cLEcpzbE1DBdJBUxmyeujqz989/Kj27sf3d492O2XsmaugbUJvyF8EZhcXWiCPpQpba0TonjhpjfLhRhP4h+fHf/p4Zvvnx1fDqdssbpZ2fdYakYsc5pBKwy67XB7s3Nrt//R7Z3bN7Z3tvq39jZ2NztRGDAGnIvpPLkczU/ORycXw3fHV8/fXp5ejkbTOE7SXLNSetJF5lAAzBL++ujqy4ev/+7nt28dbN3Y3Wy1GOh60q35fadq9PzzSZIenV7+5cnhV4/evTq6TFJeKCtjKzRRSr4zxiBgrBWFvU5rp9+9c7B59+bW7Rs7N/Y297Z62xvt/kZ7o9cCweZxPBzPLoazs6vJ6cXo+HRwdDp4ezo8G0wms2QepykXC3ASikJrEq2aynmhfd34NKDUSHBD5kEIWOl4MI31FoRJiKu0rQJCPXvAspNq1a8kCtlNxnKVlsYta1y09blpkKR8NJlfDSdxljYQLKf2VqDfnIuAlSGsTOR4Vckgit9nso+nu4vyIkmFSOfxdB6vAD3ImsxV7IepPmLeXCOEABYU40a5NwGyFOFgNJvNkpQLij0CtIRIa5qFEMPx9Punh989effi8HIwmaeLShFdebtEjc+AtcLgYLv3xc9v/vaX9z65f3Dn5vbuVn+j1+60o3YUhmGW5wTORZzyOOOCGs/Or8aHx1dPX599+/jto+enpxfj6TxJi6hQvkuKgk/OxEqxr4ZYlVgLgnlhEoZbGq4AWBQGm7327b3+rz+99emDG/dv7x3s97f7vY2N9ka33YnCMGStKMxSXynnaSriJJ3M4tFoejmYvD68ePj06NvH7x6/Oj0fTDNRB2FzU1IhLsezx6/PHz49/OT+fr/XardCfJKoBePaeaUlMrC1zRqiEOHjJpYg4XxLk3lDTMlZWKZl57P45Gzw5V9efvf43dVolq2sAlvKMuCS92UGLArYzmbns4/2vvj57V99dvujW7t7u/1+r9vrRO1WwFiQmQueinmSTmbzwXB6eHr147PjP33/+rsnR8eX4zROGVfUXJcX51xcjmbP3l58++jN3YOtzY1OqxWq/oSV/wzPgaoOcRCwDLCPk/Txi+Ov/vLixbuLwXiuiARItfsFkIe1w+Dmbv+z+wf/8Kv7P7u3d/vG9t52f2NjYQeiMAhCxgRwIZKUzxM+m8Wj8exqNDk5H/7w7Ojh06MfX50enowG43muVyvK5alLCJapgbCwxhWUIE2YqcaKb0xoSeDU+IOismp6L0gRAmPqnlIw0ZoKDd/uhMZFaw7bDrgIFphU+gosYFBK1i91WUSe4Vw1DBayUZIbBAo9hDmtt/x1AAFfyoHkHD+sdOaF1ybRDEp7wErwR3I2pSYIJnLRR5HLHpEyPlpJHBNclP8mjtOzi9G3P7778eXJ1WiWcJ6PnMiDfMV4hWGwv9W7f3PrFx/f+O0X9/7DL+7dufm/2HuzJkeOLF3Mj7vHin3JBbnVXsXizu7pnp65PffaNZNMpgf9A/1QvehlJDPdGfXKJrtZRVaxlqzckNiB2MNdDxEIeKwIZCbZYyOENa1RSCAQ4eF+/JzvnPN99WZNVxSZkHzuf85dz7cdd3JkPjju7O3Ue7uXr99dn/Wn12MjEGNOPf5YdfaqNuNGxb95gyBWQWWqPmQxbogzBlCcSoIjrqtSr1t7dNR5eq/7/OHuyUF7r92oVBRFIpQG3mvRKDmOe3zQOdhr7HaqO+3q92+vzwfz6cLyGecrmYIlxLji+gRAyPXZeGF9/65/8kPzcK+lazIlZFPgMM1nm6h2yqXaEvKX2TkXWBZmZWuqrQHYNu3Fi6s88eHUePW+/9fXV+8vJ2EiL1rJXCyMW816SnFVkfc6tSf3Op896X38aP/hcbdZ1zVVViSa6YQyxh3XO+m1D3Yazbperajf/HB5dj2dmw5PpsJXLzyPT+f2d2/6R73m8UFbUyRKSTRxN2IgSpeyJYR6hYFFAYQ2mhjfv+1/97o/nokpTiiwzgSjZlU92Ws+vd/95Envi2eHvZ1GvaqqikwJjjkRcbfe83zH9QzDOdxtHO41j970v3/b//HDaDg1DMt1fZ4twpHftZS33tO0f5lzO+tsGXAvhzi1NheyjYDSiHHCsNwS14/2jgRddLz7BvJ2hy2H7dZF+6ngtJWvw1PcQ4xHnk2sKpll03+jDLQM8tMvqw6l5U7DsnikEULA+JKNM8blE63ofOHJlEACZ5wjhEOwKrcaPQ0FRadKcCmlF2fQlMc5X1j2h8vxNz9cvD+fLLslBMljFMt0BP9JFNcr6ueP93792fEvP7l3ctiuB8U4BAAD4xzy5B0RAgyKInUl2qxXjnudXz4//vaHs9998+4Pf/vwoT+dm0zI/7LE0wHEIb79r7Wzmbm5hKuRCKOjoUu/SM3KyBNPYCMcA2/X1a+e9f6nf3r2+bOjqq7IEqUEMCFChwXPxjwQwhgrirzXpZ2mfv+w+/Hj3v/zpze/++b9izdXc8sNOzlibZXLC+AsuDfPY6/PRp3vzp8/7jVrWq2qRZKmaPO6pWIljJz1ilKAduIjXCgBL0pIrb3mkhl/zrnj+R8ux3/+7vTN2WiysHwWrx7KcAuAEmhU1Hu91j98fPRPX9x7+mCv06zSACQG8BkTmyciv51xRClp1HVdU7qt2vF+s1ZR/99v3v1wOnA8lqaCC2c4IM9nr86GB6+vPnncq1XUek1fuuLZIsXF/lma2U5sCY8+xjifzs13Z/0XP/bfXExMx0PrCFkBQKK4pknPH3T/6y8effn86N5Rt1HVZCkMPxiPtQTB6noAIY4xVhRJkmilopwcdr96fvyXlx/+/eu3f3xx/v5y4hp28A2AmK/MGYucJyGtBygliFmg65rnGCX/KlKIhBIKAQUTpFM2aJWIARHoKkb70lZro17p2HPMoqfN9Mi3x9ZF+wkdNQAUdg0uW8CjhRTxhYo1TDznRHwT2g4eK4wFyFO2ia4kDnxBXtiXMhwbcYRmZqPSpwrBP4wzFz/nfDCcvzm9vhjMZqbDOEop4CU74TGGdl3/7PH+f/3lw19+cnLca9aqGiVkrZw5iO1YBMkSUhVa0WRdkzHAfGHPDXthuYEXLnTZL28BgEcRI9ywGLbMDrfZ48hp/uIIFJm2Gvpet77XrUecKYLnkZvji9onCMGKTGWZKgqVJaorEsHo1fvB9dT0eS5DZpjuZGw0td5ejF+/v97r1CsVBSOyNtFZpin4loQX8XXFM3HNtax1qLBFMe8rjCPLdt+fj75+ed4fLxyPreq7UbajQzA0K8qTk86//OLRl88Pn9zb7TSrskwLBN2DFwQD5wgToARLtI4x2K7vev5kbl6PTcv180bPY2w0Nd9fjH/8MNxp12tV7QYMXgWC8SJUHN0F89lgvPjbj/3Tq+ncdBjPqvBAYqiMKIZOTf308d6vP7v3my8eHB+0G1WNEoJgzYqLdOMwYIKRRImqSLoiUYIxxhPDmS7sqeHkEOxDOhlZLDlfJr+fPbA8ZvQTmHk8AIFVxIUiaqEiJHgtYFz4oAtrPNYtn+2xddHu2DEDLkRhmUkTvnbaokR7TrxZJlYHBgXB/6poPfTUoMTPQYq6AtZkVfMxvdKQeDk7jhzX/3A1+f7t9WRueYxDDogYmWtKcKuuPbvX/S+/ePCrz+8/Ou7KMiU5HBZrdxEA0FTlaJ9eDWathi5J0lJQ+44mT+kTpUua1qckcsSLogNjLMmUUkIAbhO/SpS2G1XlsUQD1gwEztv+eGbl7qHLUj3L8QYT4/Xp4OHxzuFeiyxTqyW1xdDNnwQkS9BSNMR5AVIZ5+xmbE8A4PveaGK8Px+9Oh3MDSe3bzAy4gTXdfnpve5vPr/3L798eP+oU6tolJIyhGTiRUoS7jSrnz3pjaaL04uR7fbtiZGlTcoRQpwhy/auR4sfT4cPj3YO95qU0hutsOTQ5U1vxrhlu5fXs5dvrq7HC8Yz2QmTtqdZU5+ddP/5ywe//vz+w+MdXZPxhlcpPjtZlg52mwvL/fPL84p2nZ9czZYLKzNRbzaZMcqTxcw9M+c/N41/vs7vFjnbumg/8RHWQoWQGECUjoiK/gUYY6V7C6JXJ2i9RZvrio8Hg6B8LKgtCm6U0LcZ2dXIjkGs+llU/gk/wThfJQ6FzYqFFkrQN1kGa8HHMOQSSRVXpRRDCyugxfcNy3lzPnrxbrAwXYhVVS9zjSteDAQYFJl++mD3n7968NtfPDrab6qKVKxbUFDaHH0RY2z7fDh3ImgBwvSGYHA4xLe07DsqqI1NMKLxNfp3pdWpoyLCMJMbevlBrdyqPCzef7oWl0qkYjEGXZWfPdzTVOr4zLDd2eKK+X7iUsTSoiCuWZj2+/Px1fXUchxZDtip1gxXmswiLW0pbrGFG2Siqyzm7mdEW1CEPaASlfKZTkA4nRCybPfD+eDdxWg4sWzXX7bmoQyyZECcg65IJ/ut//7rp//1Hx6dHLR1TcEY1vpkkOGRA6W41aw+ubf7i4+n/bExCou9AGOUSHpyxBmHycJ+fz7sD6eOs0cIDqoeCppqM59gYgnkCUkxzmdz87w/eXs+mizMZalnFBlDLJgFxBGnBD84aP32Fw//+cuH9446iiwljFIi24jya+eXWQ9ECJYooRRjAnEqjaVvlp97FTHCgiLUNLteUWQCGSRJXMjnIISCmg4AxDkTcj0oJnJWWCyYqBUrgtl4dMGQl5BJR4m30bTdumjbozjiSYSZAAhxlkpzcSS+FU7i4GtMAIJW/YFxRs2V2YIghI1teOF5BPgNGMoACKL6rcwuhmWdHM8om1h2FqzkvaO7KQ7a0gWhYu0Uinexia5J9EXH9UajxeX1bDBZOJ4X1DhHa3l5xWF3FQBIBLfq6mdPD7786LDXrWuqnNgLRROzFGXPzq6iuLQL49zzOVvqD8QiQyY40HEvZlVJw1jmFp4uuyk2gokBzM47cGErjRjkVz8Uz4GIKqNZCYjMvF6ivCZMnBFc0ZWD/dZXz49G48X789HYYAFDTDjHEteAEELItL13F+Pz/tQwnIqqYKG1M7O8LPN6xO2WCf0cqb2HI1E8MAuvEYAQnljImdRojLG1KHIZTtfgTcN0vn8/+HA5tb0VIWsChgjRcQ4ywXud6lcfHXz6pHfUa+maQsiK+zcxrxLXmXBHgq/IEtnt1J7c2/nziw+nV5O56fohJzdPQSF8YdjvLyeXw4VhO4oq0ZwassSKW4shpZ91gKKNpsbF9fRquDADCayVHeRJdkeOVIl06trzB7tfPj862GvqmpJXUJh+QJnVn2ESI1DaALws541sEY+gKb7q6I8lRDJJessQ+OU1V6G4/Fo4pVn0c1HEyFEh2JgeedHarAH5MsjQID1jUVZuUxxncV3j2+Ox/1mO7UDcHYqW0hzLJjVNbRRQGGHE/wTC7F9/SemlFE/DQqkYJ2sdxq8o29TeVSLQtN3zwfR6NJ8vbN9PU6sn/YZ6Rbnfa3/8eP/hSVfXZVxiSyi48shqcC6UFMK6YSn8Ww5LePYWdYPcR4yWrPBjP4lNwbiiKc/u7376tHe8W6+rwSMo+i3H8y6Hs4vBbDwzPd/fRLJp04BKlJQPkVeI992CINjIeXzBbEh+hjYhlwkOz/cnc/PN2ehytAhlQSFv5QEluFFTHx13fvnJ8f2jdiWFn91gJAFwo6ad9Fo77VpVk2lBQRJCpuNdjhZXw/l0bnk+K5jY5R9QHuzEOB9MFpfD2Xhu2S4r6hBACANUNfnRYev5o70HJzuVilrsHJZUC00uKShpwteQypafNpvsSOUN0u0vI2pN42Whszu70y2Ktj3KzMzQ0OcwYMbWPE9OXFi/0gSSQJQASjjiWeeBdetWbBQIE54hKrbSYoY4ypJdrA0IOHBUgjJqo84dWOYwDMs5vZxcXM9npuMxltNBEZL/E4yPdxu//eLeo+Nus1YJKqzyAZUiW5yEppZ4XSSSnvR1VphBRGoS/hMgAzzL/PXiAqySqeGsCRR7gmhFohzrsgCUfZ3FpVTp66eUtJqVRyc7//Dpie29mX8YMh/SNZOwitS5YXuDyaI/nBzsNXRNyWsoWXvLxQQuKNZWBjki9BDh2PEPZD+FMvqhJX07zpFp2IPR/PJ6Nl1YLJxbIBYYiLckS+Rhr/Xl096nTw922vWIRyaP16bkQ9RUpdOqthq6rsqYWMhjwuwWnzVijJuWez2aXV1PdlpVTZE28qfLvLnq/vbZ1WDaH8xsx2OcB7KPKzkEvrK9gfPabVR+8cnJRw/3axWVElz8u5lZ9axPJqPwJDF1aqFF/y7uUipAttAGYuqAVp1ikOTWDN6DEFTPRDQzqQTXAMAr1u4lIVy0iJat7bDaJAt9yK27tnXR7tpDW7ZHcsRCccNlNRiIs3dZHRFreI+2doQ4YnH3K05QvSqOgdX6B1jhJZBwFwBglQWIi3lCDnzCeGRHVvD9kuFNeJ3YKnjkffFEk3lhpA7rm/UCEnTOTcvtj+bThemGUkzxBJ1wWoxBV+nRXvPTp71Oqyrns9WXN5crY11EShLaYMSTRjF91+W1jDZqC8iYlsLugFIdu5AVSXAhUXszeqTgWxhAkelet/bZ096PH0Zn10Efbqz/PwasceT7bDa3+sO543gFw1JSlnuNO4IyLmIp8BVVF3ChE4+XavUpN0QFB2N8btiD4WwyN+3lOIjKYyK6yzlXZfrs/s7Hj/Z32nVFlmJBYFYdZLS6VzsipOcMlyipamqnrjdr6sVgjnI6hwAQQ8jz2XRmDEZz1/NBYPa//Sgl3vQZv+jPLgdzL3AZUa7XgjFUdbm3W396f7e305AoKX9JxQEkz4gLs5wOAOAcY4Qx4FAW9Sb1VeWJylhi9a9I7WLMbTwpSlUkxVEQGeaqEQiuIE+NEgceHySUuWVsa9G2LtqdemkYFJnutqsne81AiiTGYQordwyyyF2TExzW7AScs4XpGJbneaEGVFgPJ2DtwAEQlyjRVVlXZUwSdDQ881cF2sYYE8eyJj9hjZbMQQgCV2q/W29UVZniMoB2mlc6I24LClB8ZtvuZDI3LScUhBbo3ngCvMG4U9MOd+tH+21dk2+wTRawyALE5Mmj7U0Q5OF58WExx3o5Jb7VeQLXrbgmncfBKp7SUEYlenVvcxCMG1X90clOb7def6eYtuswLgjyLDFgvrLok7l52Z9atpcZwRdok2cCHmu1zCMqjQx9Cp5J2Zr7yMSOhOKLKe5IZZxNF2Z/tJgvbM/1w7WdwVgICHGMkCLRg73WTqfmef7CtJaXHSZIeSIWE/+GYqXiYr0d5xww2I6nK7SqSmLmlKemPSDkMz6eWVfDue366fsrkAnfaA0CgOf5l9ez69E8ociZPl9AuHO82zzYbdaraoGjUyBfkVMLH68Wgcgg8dTnOEDQWEAIwVHvWLB4M6vjiwG8PEXjLO9RqADhiT59HjXBcp5L7lMaU1y3nSWAg2Sd7g1N4tZF2x4b4BUSpce99v/+v/1qPLMYZ8k/x0wkRymK1ZWNWXpXwpeWlLKhGDtHAJbt/NvXb3/37fuLwcyyXST06olLQ6Fkt6n/8uOjrz4+qdf0EOePkV7z5H4OsSYgxFM7veDLLW8n9Jc4R7WKfLjX2O3UYuZgQ26qtC/lM74wnf5gNl9YfHVCngYJOOeU4t5u/Wiv0axrMiXZYNgmiz9DYzQTrALEeaI3hJf0f/I2+0xXo8AtS6jmQZZyOojuZda+BSWuludoAiYvBkBX5d5Oa69bb9TU64mBPJZgXRe+Dpzz/th8dTZemC7Pt9olIbT0sGTpLgCkLiM+FGue46aed7GkOgDyGR/N7PPhYmo4S9FunoEAco4AqTLRVWJY9ruz0XC8CCusIalzkXy6PCWHkbh1jgDAtJyL/sS0XOaztE4vCAy6ns8uhosfz8em7ZYc+byJVLA2fZ9Zjnc9NYdz2+csu2x96S4RjNsNrbfXaDcrqiIDFI38pu23iUUeLv0l5W3U1IUBUYJVmSqyRCmGfCWVvDTiWrb9PLu0coogFvPDMlbjpbMKa53pzGR9siQx8wLL5dy3x9ZFu6WHhgjBrXrlV5+dMMZ/+p+DmWGNZ+b37/rX43nB1kow1HXpyXHnt7940G3XCwSq7+rAAIRgQnBOTmD9npowWADAGGeMmZZ7PTEMy83eVPgKM5cp2WlWOs2qqsTYjza1v3dhI+7GypR0K7NsYjr6R2j9fZVm8ShxIkpJvarutardpv7ufGIiL+E4RJkOzhHjaGE61xPTtByew11exj8Tt8CoGS3ni7msWgDrp8TdKtUEZ/M9f7qwhxPDcjyv2J5whBCyHe/Fj1ejmSkRDCkk5xYXg1zXP70Y9ccLN8mZktBxR5zz2cK+npiW5TLGEr14xZWXZeDJ4IXneQvDnpuu5fjFo44ByZTstKqHu42qrhBC0n2F5Rf4Jh9OOvoEAyWEEsCFagGJf95s3fGMuc1zPsbX+UjZke3tZ3uK+wAKCm23x9ZFuxvDihDCGBRpabsYj3gtgpRB+d04d93wlZCw50uSRDHGPBnvJ6pEAGOglKgK1RSq5Jfx3vba4teZSUafRrAKyqsTHlvAVzma2obl8RXjW1KFPgj9JUrbjUqjrgUU4AU/EezfNzAKaa1mnuvowI1nVDFvXEElX5S543FML1H2HrUv8HynMk0flTmMUZN8+jMYgySRvU7loFP7C70SZlL0CEFUR/QZd1zfclzP86lES3pCietMULWhlOROAuLmsdFLTPOM55jJC5+JfKS3n4INOMAeXN83DWu+CNtaM+G95SVy22WXI2Py9TtCiQD7FUw8nge4xCDW5b9d13M93/X84BeDfGuYP0Wr6ssA6nZd33E8z/MlCdJMWgWwYiZ0lD4cx5vPDdf1eMrT4ylrrMqk16ke79VVWQrTkBu6PmVAdxAaSngs38CjehPIYRlZ2wC00bRPmSEQbTFKtLwsq1ai/rY82ftETWdJFsZowONfgWA/zJNR3x5bF+0nddQQwFL6N4KRRNMgAgeAeCZJTcFkFaqvQobLJZ00FwOmZbqShew8AIAwAMGAS5WdroixUjJw677IWaBrmWl3ysRhOX/ins8s15+bjuX5yfbDuH8hYVzRaKep1SsqxjhdE5PZrLQBNMVXhphnqKaLte/psmIoGaCnvdu8CytsTc2+mNi7gDhHOOHJ5YxAgYpo8ZMFDM2a1mnolOL4bpp0EjAgxrnv+47juq5HCEGkdOdvTrFzcWDAwnW18s/Sm9qyTyTXVU10UGaSjpZ7+pxzxHxmO65lu74fdB/l+VuBThRnHndch2cxUyFY75vlPnjB6kBkslaEqJAQQGGI+4w5nu/5TJKyp31x/1BxxBJovS8My/MY58nlFumn8JDMFgglzbreaVRkCZfExgroiNd2UEYjElV3xP0iuBkuXmbaQ7rPFkW6AcmVFucjjJjWeeadlqGSKdkgjAACXBzny6jfGObcumjbYz3asQkMzYXmms0LMIssBRcWHyTwr4gRCmATsHwzkA3d0uikD8aR63mW7Vqu7/kcYxDvgcerrCQKFVVu1bWqLmeyq5e/gI0Toxn0jatW32I2pp/JGBXowpTZrm9xVKtqUA3JuVDPmPWznCPfZ7bjuZ6vpLycAjaNmz44njODV7V6xWvils8uHTb4PrNsz7JcxvJys6neFEGoJPKlUoBK4Rjg2BSOaskBeBkQjnPOGfd833Zcz/PXTumCbGbB8Po+sx3XX9Gogth6kkCMKSUVXalWVULo7R9N0R1lT+f1i0ikbC2T0C+QREsIFBddS0xhhrMYqFU0sW+U7c0wj9kVslvPrPDYUtfegaMWBTTpiDmTR35TDsOCb8GKaRNA/Fd8JayqyAsLQcQtMJPVvUxEdWtFzthPW7Zn2W4kTrXqX1+2fEaK5QRjRSa6JqsyzbOQeZ2kZdw1SGaSYhAHJB8KFxS4sh9lpgjMWoYtlCNLUOA+Ji8ybG1YyVLEILf8pxyhd5m0/pmXCghpiqRpMuCgoRlCYqbwJKt6fM4RZ9z3mW27juvxfDb24v0s7/lm3Zc4sRPQJ3DhORf3Y97MgUv/lXHu+b5pu4bp+IxlKiktu7d5LApbPZr03fF0LCUOPg+bp9NWhsfnDodlCgsENblAeokz7nmebTtCInIN/JOYS+LNZjlwnHHu+1xUekpT3ATnwAhhDLIsKYpcps4kT04j5+KxOMDBV7mAWEFImsgRWlMbmLkpZApPFaCwgp+XWvccIFY3yCO1t/Q+UQDMFzS5F8CKme9ynm0NN4UYty7a9riVh1HgcPzUHuOahfKTXcNPtqg4Y8z3WSkddwBCiEQpIRj9RLeJoBTlMECJD939I8jdV/KvGW4xz0sqmlNCZEpwHjUURB4AB8QRZ8FxM0h3w3lYSDSdTWdwZw8rW3mKI8/3Xd/jPA/64oLsXHRxRTpstzBlm3yWcd9nmUJYtxca4Rw5jjszLM/3C3tsw8QrBpAlKssSWeeiba4McbN5ucFK29SWgsCBwiPmytz1DRwyuJ/WEtbcdDOKzUxcgrH9DmVp/nMc20Tn3bhlxe30qASKm8lAUwb14Sge96bKtNJ4XnHxQd6l5tFQleG4v+UuG6qHZmHjCIr808zGhWJq09I1GZC5m4nBvSg4UTDs6YeSV7qbeF0sS5C3tQS1MgIZeNwHhVLPJTPzmKK4W/mOy3JKLhKgc8SDvgYQ0eA4LlJy+aSR4NJBOU8AilFFfA4/SNECz6u8LvbSxNJ3LvwvRYQTv+jlmog+uGx3WAlcxTv4ojaR2CYKwFCGnyfyq6EVly+PK7qms2w8w5plri/xRZ58ePTCdrzpzPRcn688sVjJQwLKopTIWYy1eSurOBUQ52tcPai0AQjFR5IWGJbFahsXd64PhJJE4iG0mVDvFBmCUFYEkO6s37RaN8NdDm+Ho8TUE6fjNsW5ddF+BgAjTyG7yO0oo95TUK+Qiuc4rEQkeQkHKK/gIO/C8j7wUyywbMgdCU13EKNoy8g05nszdxLFQj6xVGLTSljbMvkvkeWywEW4WV5g9bwgiUjwYBKVJvTKa9MTumWT/JVRvhhWG/9KiioPuSq4/eKApyjkCN0LwWMR04WAijnh82g/UWly3QwPJrWmV1zxELtG8ewY4kl34Y7CSrQkqfJqU49rKiBR2iPG3xj9l+wUDvUoVigO4iXbJzcS7wq6J/hyFvHU7QDExM5BEF7NbA7INNFlHhxH3GcskJZf2aGk5PLG+HTaSqzN4K+y2wREzTkePZqM+mMuTAYoiGML0LXklfDc2juItwnz/I3pZrUEWxdte9zcaft7o7U/ya8XF0bcHjzLwyo4rKxPJpqVoCD5mUrw14wyT7M43sxq3+AksIJWOctmHofyT2QjjtabilYV/fP250/fc9KlTlPbhrX4sOpq/Almfl7UBWLXSdaQYAwEB9wyhX25SHSD8xQnoXBW8JwPcMSBEJAlSinBGACyBXRvY0KD0SWEKLKUx6QTGgmhD3e59O6Y/4wj5DPm+8zzPD8uchCZg1VrcKxri9+AnbGgazv1J0hexppdgYtqbzcLU0svtewR/ynFTbYu2vbImdmZuFfmOxv1PaU+H9TFplNV0TotuwDSkWseCF/w+Tw+qmJiKlQCKUmUuid512AJMUSfz7nvDRIHKSgrs8Im+DGBfADEkm1Aouw9lIFhCmi08sLo3NA/g4WBx4ETtCKUyIt81z2agukdZ2ziWcAMF5o9UEwpMuwIgQIIoYjmo4DcIafhhvO4Tiekq8eXydAU0WgBnLZZuiq1z4LoXqXuCWOkyLSqyYpEMCZ/R6NHCKgyaTV0RZEI4DR0nUicZYKgeRYmeqEpUqumS0vJkGX5ecZsDZA8nzPGGMeASnMgZ1aVpAStEGPcdT3H8f2AXJjzlRFeTbQEocpKUiwR85TH1PONFULLovK4kQwWE+ci5MpDujaEYi5sSTw+O8ECmbFqpDQWdiqkDLO47LbI2dZF+0kBqxR5ZrHpKd7nypV2cUGCLdbJLPBulEvY5ac+S1IHoXWVUjfmjwYEhBKJEoE5PVDpFjNiq/5O5jPH833G0kFccd1DAYdW+fal5Q6EmJCKKqNzstbpKXb3M8cNAWAMOOi/A8R5pid2N/2JxexuHmOe7/NkwVKKem9JBEowxgQ48LSLj7JYYcvEEqsvZrlqkCRCTt+PKG5ZFswrKCTNS2aJilNLAbaMBwcIKZQ8PGh98bR3/7BTq2h/17gUEYLbde3B8Y6qqwHfjTj46VLFtK+2ttQPMBApAOpWRWHLqsr4ZOaIMebYjmU5RFcJwZl0rHnqk8VVdOH5wyvmkGb447HaMDF4Lxkqp41VXr4+q40XLfFSvpS9Ss1miCDi9UTixcFhvjVcNt6H8SqOIg0obGnbFqVtXbS7dMv+7pdQYDY5gv8EgwYAEiWyTAnEsPN0Pggh7jNmu55pObbj3YDeqwzzFkdrhZaSXtBtHkPJdHnGxwBRAhIlhBACgTRQUuJ9HUneBjzshS4sd1zPst08ebSopDDAqQjBskwlQuAnM9mccyg9D/mtZ/JGNQ8YgxTEJDi3ayOEbTBq1/WPH+79w2f39jr1m3cabmpaUIbEJwCihCiKLFESwcl3azQIxjLFGANalzHkKKCXc03TUVVZkKS7e+MLWQBSsLK4qNAMN1g7N5cNjbPJZLmKPIiR4FaLqLAROttQZiFpW59s66L9/GFlqQT/pppISeQg7rAIbWibnefGRrNMP86mNXlR48WSXggpoQ4xCfvnI6lkFG8qQ8jzmWG545m5MG1eVMEKxbtpXpKRZYFzKMWUtmmJxQ2GKC03lN5DJUo0TZYlggnwdfTy5X80M74vninzhT2bWz5jiQoVHtVIhUMHgYumyJIkUQCcKP8qLmFeu7fFUGoB6Ih35Ynp6eAKI1ILuJlHm1kDkDfIlGBVlXRdDhXektUNqyt1PW67vsuQqsiNmhbl2kL6K0AsTHRlzMYIn8slZA2ENMIhWEVBkMxgR95IMLA4C0DauBI8DbYBIIlisRYtU3chRJUYYj43THthWPW6hiRahiQ2XTyQkzTgmVRzqdFFCPCqGC1FAFZGC2vTaY+y6kyzbxySO0LexRSMRvxNSAfQXNDriLTm+Dr4cEuNtnXR/gM5beV3x1guhmciEUUhcfk+6p8CNivvhcSXK0IICCEVVerUlOGYGk6QL8uqcuXI9dnCcgcTczq3GeMY36SzobDzq9TYAWymZn0nkEPqjgBjLBFMCC6vWl2MPBZIPhff3fV4cXE9c1w/az+BgPo08oIIwbIiyTIVFNb5pktpbRFYvHCoYNlkl1PfAF8sqJyL/oQxEIoVmaqKRJYsIDypRxt+mDFu2u50brk+A4wJhsRDwVEKsHTRnngEZNGIQ4KupXh/LfAqbmV5AMmSVK1oUS1aLnoT+q/+ZGoMJotut66Vb6ct83Dj66WQdOKGCztzZRWarDxUNL+9im9gnYqbc4WCsqVtzsdet90BWxft5z7WlpuUXL/FlU9xdCea8VmbKy9lAoodqZKEYXnS2iifbr5giHKwEE4w6CrdbWnn15Lp+DxG8r9a+BwBZ8hy/MHEGM8tz/MxAZwjnlimLzXr1hBkEoYnhO9if4G1+1nBr69FywotJiCME5Xy0VkEAi3gsUB4Te3URlOCc+56/uVwfjaY2SGjFYcYzYMQ9gNIFGuqpCkSpSTOIbEZTT+K85WgnC0sgSzGEL2wQSDZtVDwBNdWU62daQCcEqKpsq4qAdVvlDPKKornhmkPRjPTdBhjGHCm6Bla14qbC5AsPcLSgx/XId7QeOaRk0UTT5ZprarKEsEAfooiRNTtDAQ9r8fG1WD+4NgvyABsVFlYOIlWbUxohWUiQJvooCewQF525HlcVAmK4gQQSzUEgpUiMfUNukrTffc8oj3MbTMtY5m3Ltr2uDN4rAzpK1rX4VUQRYUi6gghxFbhS7KbutRVpXusSsJOJeHxMuOwFsTCAKoiNeu6pspoagkETxxSbpDvs9FkMZ4ubMelEiaUpi+swBaszYGm7bPwVjy9EDaWsTKcTOWdtrVo5VJ2msVifcQT0f/azGfxk0pnOZOizgAIIc/z54Z1PVoMJmbEUMAjIi20pLVEKACsGrqy36poqoQQTu/3xT0BKO6Oi3mleJ+BQJQaD3BSxLNlQY60O5vGHhIcrdnjiYFSUtXVWlWjEl0WNOWWw80X1mV/MpubrusRLPO4R1UQOhbYmfKOZuqTvIwnVCY4zDAsCFGJaJqiq7IqU99yWcSMCrCKVyFM0boeux4b54OZabsRRV95xe6iIRIIayGFDcGKNXilVFfSFyluMiv0JjNIVsJwMjMJu6SWYxwoTi7h8rBo0pTxuMhr5ufXbUzbRGdGtLkdgjvH1TIj7I10LUoy9GS17EMaUYZb/EoZf2utKRcl+aKvpBdnZm0TxlhTpVazomuyEJcGxbjxelxArudfXE/PLiejqeGmM2uFQGbBO/mM+yth1FU1WhaXRPGv3CZCyHT4IFvaeX2XL091RGQ+lDIsBpwjw3LP+5Pz/mw8Mz0/BvUGpU7iNoYxtOra0V5DVyVRlqBghmRW7aR3mixqDFi50YmBS2rnrEET8+ZMgRBc3sUDQpTgelXpNnVdpZSE/mteVfbMcD70Zx+uxqPpIqHpmWdzMq+fZ1VKbbRH5um3pk+efid9MdkbFWBVovvtSreh0VgHAI8eJSAejJjrs6vR/N35aDBeWLabpyUg/qg4u9apu0J8vsRnaaQ5m2hqggy/J3M0Mg3j2vRLeiFnmgXBSdygMjXPOKfNYcIZXMZCUeWwQKoMpUzZ9ti6aD+Vl3ZLTK68VHa8UJMveV43u+DbrI2NhMnLUBWIn8EYNFXutmpVXVmmctL7VviO67OLwfzN2ejd+cgwnQK4Pm1xylbLoRy8PvvJ4PX6XTnB/e0w/yzBoCTFPFrCV3cwt9PvM8YmM+PV2/751Xg6t7wQ2MugIQmSIRigXdOP9xqaIqHSucKNKtDF8vNseCrplvEbT+YCND2/MBwRgltVbb9TrWuyTAkqXMiG7V2OjFfvrk/Px47rbWReClD8W0ZuGw1LQfiX/hOl+GivcbBTW7loK387psfEGLseLd6ejz5cjKczU+wm/hmcAFjpRIlVKVDmrktO42J4Msf+r4iQWY6a6kahe/rSfM542C61ivRiGn2AEISUyxAXgNq6DXnHNtF5W78E5Su+3cn5cxbMipEnxkxYzoEokDcpuP68ypW0+FUx4WoBEpP+LsZIleXdVq1R1RSKmc8YTy17HmL6zOeW7Z1ejP783Wmv22jWK4Ss2dQztyVBv0jERRBDy2qO2KVGPaZBLQqggNZhmVQrs22jwiL3RIhZgsOJZxnnTLsNBd5dmYxenn/muP71cPHty7Pz66nleMuqlCQQsaqdw1CtqN1OXZYpEina1ynGlmmOy6dxEmUDggqiGCEZv6lNyHwnj+p2NdsBajV1t1Or1TSJUmT7qRUhqhwhy/FevO3f67XuH3U1RSYECuhAM1vIy1eUbnS/aUyugGQLret2D6M1gjutaqtRCShZVjpdPKoRDR8Z43xuOmdXs+/fXh3uNVuNKiYrRdKNvMbUP5O+fXz1cVEmi+f7hcUM5wUzJOs1T/GgiCySSSIhxrltO5bjShLJvKriFZeYwwCAGGM+dzzPsj2fcZTaj8TgUCJEkSVFoZTgiD/lxsSZWxRte9wBopaZCsl7v/yJi4MmXuKqbuZHlqyjusND06TeTn23XalqcmCdc3RLgAO4jF8MF395efbmw/V4ughKoAqAejEkzUuCiIEwIIQhRvyIgmaFMHWQaK8qVZFzG/iqRPYhg05uNRrJHrANoJG87AznyPPYYDx79f76zz9cXA4XrsdyiP1DVE0ipFVVd9rVdrMqSxSt6ON5ebg3L2GXDzYka84gU2iVl3LVxPlTsto6A2DDUNXVnXZ9p1Wp6TJAJIYepc9AdKRt13t7Nnrxpv/+fDgzLBEZ4amj5OwSM8UlJcjyEnaRc1bMSFLSFmHAO+3qXrtWUeWQgmeVKF/xVwePzPHY9Xjx5xdnL99cTmYL3/dvZrpT15a0ttlNKRD7JORRlGUNzkZzXnRVKQmaTMQJnCH07jE2XZiLhekzttEukJeQDda7abrTue15ftqMiA0KAV+jTAnBeIudbV20vxuuVmDX1prv0u4az1yNeVK1NyjDLLmA1/YcZEZm5U2zpkgHu/WD3Wa7oVOKRceCJzARhBjnw5n14u3gm+/PXr+7Whg2y2GM3+jJLsumgEFakWcVMkdeWbh5xFMSm7rFm+qxZM4HQLkKB0F1c0KmsXg2lsnF+IzNDevVu/7XLz/87c31aG6y7H1sNZC6Qu/tN072G636UuQnR20pc2YW/DOvwCjryrHgugEXZxjP/qHMKZ0Hm+XdS2JQdE3udqone812Q4sUKTM+zhFCyPPY1Wjx8l3/Ly8/XFxNHNfjG67uqPV1LdybV3qxrnKrrGXLcwejfxIMO+3awW69U1dVmSBIglVRmUfwzmRh/+n78z9+d/rm9Hq+sDOr5QqmUO615dTgB0yOqyKw/HAnb54UhBPFF48QogRXVKqIwBhkTR1Avudfj+aD8SKpMVoE1BUdjHHLdsdzczgxnDUVwAAYU4IpDaTCEMZ4W4K2ddH+nl7anQJyGSBE5sYMqFQJcyLYXVupelsXp1zNafq7skTqdX2/W93v1BSJZu5VYuLMcb3hxPjTi7M/fnd6OZg6jpOzy5V9jnwtjsKTQSvfcIbcsicDrWueynTT+Hp5BNh4enNkmvaHi9Gf/nb67auLhen4fpGgc/BYFEXq7dS77ZqmJqWyN5owmSn70sEJT+AgIABtiZr39C+WBMXXXgbGUNWUB0edvU4t6YFkyFtwy/FPrya//+vpyzdX46nBfFamE/MG1G7x12Wj0BsbySygETVr6k4nmCdyKg8NS9AxfNv32XRhv3zT/9237z5cjEzLyZO42MQepRa3SGuzVDnKtM5lSvRuAJYHf5Ip3m1VmlU1ifWlvud4/vuL8enVNK+hqnyJWPB3x/OG08X1aDGeW47Hir9CMFBKJIkQQsrDtP9/Pra1aHfvpUX8+AUK2QVwWv6Oks0tmiCSFmohigK4tcQZG7qP61GWGy9CQoiuKYe7jYeHrR/eX0/mtpB9XP1fZDwZ4wvb+e7NlaLQbquKMfR2mzKllOKSxKdZ23y4Iy6bOBESiOdjlhAQ8LBNANBSCOZGKsW32Pby6hfFacRXSpmFopAlG10Z477vL0zn/fnwj399/4e/nr75MFxG6vG8Zax2GkmENKrKvYPWXrcqSxQggx9LhBkKzHoBllZmFgcaB0lPV+C5Qfk5ygRUnAeTFFxttO1pqnz/qHPSa9Z1ZbKwvSyvKwwKGPIQux4Z3/xwudOu1qrK80cHrbpGKYmsT3HtV54VCtC1zFnHGPcZ8zzfsl2Mka4qwc/l3doNquMzXUNCiK6re936g8P2WX82nJiMI4hRDK2k5zkChpDr+W/Px//+l3e1igoYjvZbuqYQDCE7RmHuPpvwFiX7K8U6uBWDXaG82tpS3UQtYDGoGXxDVeh+p9qsKssy2ajMFBJAueN67y4mb89GX3xk6ZpMKY40u/KqEtM/HZXhMsYN0z29GJ31pzPLZTH2My6ybwSccbJMNU1SVYWmhLm2dBtbF+3nOMo34hVbrvW1unFjHVEGZtKrluSCT19D5hnufC2t9d4owfcO2p886f3+b2dXo4XjsdhXUt/2GR9MrL+8vPA9f27Yv/rsfm+nUdVVQjDGsBETbORq+0Glz6oPIPQKo072iE9LolgmmBLAca3UAo8hk8U7GvO1lUCpE64+z2Lt98sZwsVsLfCICAPBDeZ28AOe509mxuv31//29Y//+vvXb8/Hk4XN49cTul+CJ0QA6rp8tNv46OHewU5dyjHcZaCpNEEx2kTZAgA4BxQKjMVBK0AbOffpn472WkHfLLk8o3/KEuntNB4cdh70Wt+fDicLW9how7ETE7C2650P5//6+x8Xluv7/Nn9vU67qsg0c7Wmu0rzmCay3kGMM9vxDMMeTYx3ZwNFps8e7jXrFUpptLJ+sugXKTI92mt89dHhjx9G7y7Gru/7PkIJPmseC1qHM/Ob11e27Y2nxn//zbPDvVZVV1DpNqaMov4kdL6Ke+ISMLyAsaW42TwzCCmOTCRKOq1KtaII17ZS51q+xwGB7bHzwezt2eDsclzVlEZdL+gPWCvM4Hn+cDz/7oeL04tR4DDH9p/IZ+acI0QwrlbUVr1Sq6iSRG+MsG5dtO1x99DaXZ2kKOeWjpqyrmFTpbzyYXHellP+h/K+iDFuNSr3DjsPj9r90fxiOGe8uHYKOZ5/PTG+eXXJEYzn9ieP9h8dd/e6dVWRMS7tqorXsDSxIvdcJhljVaWNiqzKlOBbFRLkybpvNLyQFAGK9onQx2TMd13Pd33GOCWlOvgSEyCgqL3oT169u/7ziw9/fnH28t31wnRdj/E1q4ETjPfb1Scn3XsHnWa9AsKI5TUbFiTXIpf6hgkU4OuxyE3WeLqErsxaIxjXquq9g/bzh7uDqbmwHMZjlCkJpWqfIcv2Tq8mGBDB0B/Onz/au3fQaVQ1wNn4X/ka0wg5c13PMO3xzDi9nH64HF/0J/3h7N5h+7DXatR0gKK729QA5jHKEozbDf3J/d37B62Xb66GM5OxvGxd+ML12HBi/s3rM8Rdn3/yaP/BUbe329A0+ebLE6DA3EbKW5kKGTcRRy/xFUWWOq1aq1FRZeJ4vs9yqzM8j41m5uvT4bffnzVqWqWiBrDihjgC4hwxxvqj+fdvr757278cLgR90uyLlCm5t1s/2W9oSrKe4ZYTZuuibY+yC6lYULwEZL3ODcpdrjwPUrrllf9sPmiBMQKEVEXa69Q/fbx3NZpPDXthuQWVJcFQOx7rj80/fHd2NVpc9ieD0fzZw/1Os1rVZVmilGKMARBeIpBcyJfyiIHbZ5wz5nPuut5kbtmOE8BpiX7IUJybcwKootCaLisywQTuapQKAtl1aKvIZgxpn9+y3evh/N35sF5Vq7qiKpJEl4MTqdkLcysgcOecM5+7nu+43ni6OLsav3h9+c0PF9+8uji/nq140FKTV+QYAQS6Kj04bH38qLfbrqmKBJBLwl7AWJFwg/KacyG/3y0JSad2+ttGVlkq3XnCOxiDItODveZnT3tvzkbjmTkzXbaUnV/Wm8bSe5xxy/beX03MP7iX1/PBeD5fOMe9VlVXVIVSSggOFKIgHVWsigaCJ8tCFQbGUJDQdD1m2s5kag5G87Oryd9+vHr1/ro/nHEAQqnjxIoNb+CL5NHYZnppmqbs7zaf3Nv54V3fedN3PYtxHuOfgJgbgRByfTaaWd++vhrPrQ+X48+eHHzyuLfTqdUqiiyFgxNN9CVnXjjILEDNAfmMM5+7rjc37cnUMG3H8xkCiLTU4umLWHI8E0rPG7G1TDfpQQsKdjvNyl6nttPUryemYXuwJEOEeC0G49yy3NPL8R/+etpu1WoVrVXXZEXCpRsFAsPoev5sbr748fIPf3v/6sNwtLDEcgmIU+wE56uo0qOj9oODliLT2yR5ti7a9rhjv23TkKjAf4oXxggfW+3CPBNmLxmyZLL15O2Ixf1HaJ3aTPoniprdMG7Wtc8/OuqPF1eD2Wl/trCcKGjLHBTOuefzycJ2PwzHU+PFm/5xr/30qPXwpHvU67TquqZKEiGYAAZYmWWEGOe+z30WbE6+aVrTuTkYzb7+29llf2LZbsB/Jm6W0WUzxAM6NyxcU+Z4prftTLd+rfBRGScbEgka4dvDmfXHF+eDifmHv76/32sd7TV2u41Wo6JrkkSpRAkmMWV4n3HPZ47nz+bW9WB6ejF8fTp48W5wfjXtj43x3LIdjwmaiXEQj4sEVqpMdpv6J496X3x0UKuq4vXniGyWWkRi4Vpk/dNTi2eKDBbWERXkpDL9rXRRUZToTBd+iU+QYLzfqX/65PDV+8Fwarz6MLIZQ4Kmz6rwlK9ANdPxLgcL0zq7vJ7+5fuLZ/e6Hz3av3fQ6bSqukIliRKMASMCJIauIc4Q5z5njIV1Zj5zXc+w3OnCHI0X/cH0/cXkx/PJ9Xgxm5vXY3OysJjPGnXV85Mtjisdd+GmEi/yctDFuenQfwWoqPJnT3qD8Xw4MRamY7k+ioTOAgsYFKhxiMoRfM6npuudTyYz+/t31//+zbvHx51Hx93jw067oeuqrEgkqIIQK005B8/3GWO+z03HMwx7MjMu+uPvXl+eXowWhiNQ6gmuGYSlELFooJB5BMUJYjKz4cUbCsa4qqvHvdbjk675w5Vhe8JoxOMNzhlC1xPjz99fKDLlvv+rzx902yHZTcmF5jM2mixe/nj5f//+h//x57eXg7nrMhSPXCM0MXigioSbNeXooN3bbVFC8ugzg3vZeg5bF+3uj9tkOm6EUa0ybQK/wt8NALsNtFDmwAC6Kt8/7Hzx9KA/nJu2Z9pOcYdWkM3zfTY3nIXlXE+M08vJuw/XR2+uerutbqtSr2oVTZYlIlRXI86R5/u27dmuZ5jOxHAXhr0wrPFkcXo1vRrMbMeLxpunSGJBbCorNHl33m0uWD2xdIYD4iwLbw0Oy3LP+tPxzHx7PjrsVvc6tW6r2mxU6hWlqssVTZElEs0SjpDjeobpzg1nNDX6w9llf3LWn364ns0N1/EYK5QrAFi5bRIlO+3q508PPnq0v7/TDBhr75BwPJPfq/ALmWgfL0Cmb9xts7bADgBXdOVgv/nV86PhxBhMzcHE8Hye9LfjjF2McZv51xNjurAuBrMPl+M3Z6Oj/eZet96u69WKoikSIViSiCzRqFPE9X3PYz7zfY85rhc+34U1ntvjmTGZmcPx/HIwPx8u5objer7tMsa5LOEaQzx/HqZzzTeITjPHU5LI8UHr82eHb89GC8t9fzUJPh3rSeGJ9hhgPp+brmG7g6nx/mry7nz08m2/t9vsNCr1mlLVFF2VZJlAXPPXsl3b9WzHm8yd6cJaLKzBeH7Rn55eTRe2mzlzCmHamyc0is0FxlhT5aO95vOHe2f9+WRuOr4vwIuxqIMjbjv++WD2pxdnvs9dnz8+2dnbqdcrqqpIRKgHTfwoY8yy3YVhXw1nr95f//Gvp3/42+mb87ERRK0Zoi/hM8EY2nX90XH3cLdZq2rFpSZbRG3rot29w1FMx18QFGb27BSzkC+tAmRmY1ZFRghKLoA1JOz5RaOZsNDNGrjSTXzpbxFKmnX92YM9w3QuruejmWXY2enOoNYqOmXQD285rO8Z47n14v1Qlt41KkqrqtarqqpKsoRFsjXH8QzLMSx3btjDue24jHHGGHc93/F83+dRZT2kNvYCHjK0OY1F8ZCWkFgWlZ8SHgcEjgjnyHF9z+eG5fZHC/K6L1GiyKShy82q2qipiiytQBfOLdubLazh1JoZjmG5juf7PvN832dL4ReAdZ0HQAnp1PWn93f/6asHD4+7aopro9hMlykbSDcvZ30+6O1LEPgGqw8KaOyKYwwRDcoTulmX1OMYQ1VXPn16OJya7y8nrutPFtayKC0c4eBlXBuRB8Sto7k9Mwdvzse6KrVq6l6n1qprFV2RKFZUWZFlDOHccF3P9TzP8x3Xd2zXtJ3pzBpNzfHCMSzX832PMd/jHmMs7NLhGJKZ1nRRVp5KQXF7ezqmTT81gnGzrj883vnVJyfTuTWem6bteV5EbC/KeCdDk6BKdTyzF+bg9dmY0vcVRapX5EZVrVdUVaVYgIw9zzdMx7Acw3THCycorvA85vme63OfMTGdF60sSHV583ycFRVqvZSxIVFyXKK4t1P/5FHvxY/Xg/F8MDNZ2JmTodrMEXI89u5qatreaGZ+8nj/o4d7R/vtTlPXVFmWlhJNy5vwGXNdz3K84Xhxdjl++ebq21cX37y6vB4bluOFXnEcfo5eY0CaTO/1ml8+O9jr1GWJAOBIOyRzQW1dtK2LdpdHOkxMtKyvFWMpE1KkrBWsTLLA/bBiIkebUezceFUUKJbcAMwrOBUGkCXa22n6H6E3F5OZab98NzBtj2dRxkUwe2Q+OGLMQ67HkO0BoNncvhrOJYlQgjHGUfMRhLk83/N9x2O2E3WPColklIyVo3ZOhn4+gp8CDZ/YLEkECZAUPOYIccZ8hmzXDwYNA4wmWJGoJBGKccQ1wjn3GHMdZrm+6zFfqDjjaUghYzJDxFX7ycPdf/783udPD3c7NZLyz26AVyUSmjeLxaPUGKyIhzfzsxPWoMxl5BF5SJTudmqfPuldD2eu5798d205/lJkByKtAYg3EAQ1D57PPJ9Zjjc3ncnMuhwsFJlKEsYAmBBKIKyj4sC4zxhnnDPGAm/bdX3HZbbruT4PiSWQmNbnwsSJwCIGgDfxQYvMXbECEiAEhOy0q19+fDScGv3h/M3FeObbIWjERZ8bkNjbE0JBiCHm+QwhDyE0I9ZgSmRKJIlIGINAF8wY93zf9ZnvMcdjns9WAQ/EvDEePRAQ5R8E7fSsxpc8UeaEA7c2hA7NI8GdZvXpg73PnlwNJ/PpwrZDJ5KncC1ACHGGLMe7HC0M27sczv/6+rLTqu53avvtym67WqvIeClXwDmfza3+eNEfGZeD2eVgft6fXo7mw6mREg6J0HYI7oMjRAnZaVWe3d/95MlBu6GL932bRqiti7Y9NkhVFIBqZQTXCkC4PAPHk6SWKM8rKy/ZWebuUAmdu7XnuXHzFwBUKurxfvtXn55YtssYf3sxni1sHu1aYglU5kCERGXI9nzL87nhLLlpsbDnrfY/vIqS02BBipkfyo345p4ruqk+WBaaBYnbSBhMzpHHuef4hr2s8lkqbPIYp2tIRhEWVC9THTxRc7/aMjkAkgiuV5UHB+1//PzeLz89Od5vappSDE2tpUVYW+NYOLrFIwyJAbpBTHLjfCghWFPlk4P2rz+/b9oe4vzN+Xi8sHwWpNMhKizkKDOjFeAffGF7c8uNGmICj2ppMXDwXJZPNHx4GFYnX5Z7xiIgyByonJEv5qwvqb4gbOwIEFQ0+d5B56vnR5OZAQA/XozmhuMHk43HJJe4QI6TPjyfu763sNw4n0kUUXAEohGIkvWQZXshUw0X1k3OvLK8MqG7GMHqmtzbbXzx0eH1aHE5WlxPTMfxeNpLFQBXy/FN2xjPzB/PR5oqdWp6r63vdqr1ikopCZsnOJvMzP5w0R8bw6k1MSzD8txA66nI8gNCiGCoV5WPH+198ezg4VEnogW5PTSwddG2x6021OKVVp47LWPpLs1yTOEDkjtweu8pKZd+hwBbyS1z09I0WSGfPO5RghWZ/uvvX79403dc349ILFf+VZa6kZDYgoiaNNQ/BGH/WYKUiWtOxeiCyYNgx8vu57gR9cBNUcxM3mMkSIMXiIRFOzIP/ABAHC9HholZrYBoIR0cQIycL9TFQcA5IgTqFeX5/Z1//vLBb764//BkR1FkgNgcy0sLFrBrFjhMBdI6UPyAeKnnkgd1FC/8kg03wVU3qtpHD/clinVV+j//7Xv3A5tb7pJTAfhKkyj0swTSh+CmwtcYVmI7gAgPG4t4kHXiYdp76ZkJ9KTReZCI1XHxliBhWzblDc7rpylOdqsK/ejhniQRAMAYfjgdGJbnR0KdfAkf84yu5CWHEQ/F2gAy+PghXAMoLlkO6ZkQDRbnAAI79PLN4g6qROfymk7kQrV1VZGfPz4Yz+2LweyvP171RwvXZ4FrmcB3ozNgQD4H2/Ed1zcM92Iwk173MQYQSsZ8n7k+c33f8xnzOWMcQ5KAM2qVWCqpI4Khokone43/8uX9r54fNRsVSunaW9seWxftLrG0wPozxgr8szKSLKgkuXzuZyBaGOnCzbUmr/hPqHROFq2rJ1trdtkyd1aQ+iQYt+r6k/u7gJHreoD4u/Px1LA9n6efQWLcwlqpiFxD9FnCqBlFzp6Y4gzdjiDrk34gPCTQLkgxZ6JBxT32ebv+WtbvhHChwCiSdDMzfk3YyaJitqi6fNlVv6SsFZIn8S+uzheAbACoUVE+f7L/j5/f+8fP758cdKq6WiwllN7vCzC2PLAqUyI24YXFc9nLYRBkJYq3j7xu3DxHJNHbWHxaSkmjrj+5v+d5zDAdgvH37wem43l+olYuAop4fO4DQsnca8JCLOO+9cQ9q9GOoaRrBC7LgME30JIiBDfr+uOTHdN0ZInIEv7hdDicWRERBuf5TxzxtHnJfmQQ85iL5OB45P8hzuMcHLDZDa7l9stD3SjB7Ublk8f784WFMf7rDxeX44XjsVTeBcWiK84C39ZxfQChuT1ZUIdEBzdhQldVJQghAEqgritPjjv/+PnJZ08PertNRaaJErStT7Z10f4jQmsbgUzJbH0OSAPrGG3R2rryHG6CtXBFcQFBmQL5gl/MOyehpNOsKNKB6/gSwX/UPrw9Hw0mluP5PmMlFj5fy0yaJ/0N+aeDqDjw7w/e5z+R/L+tufBYIln8FY4QhpxkOwAiGOuKVKsoDw/bv/3q4a8+O3l0b1dX5f84gVbaq09gBOW3kmJBiEwlq/VmmuBWo/L0wZ7r+4RgSvD7y8loZtquL+IzyX03/5nzdLY7Ivbiaw1avCEJEF8XVKyFkG/c6k4padS1z58dKApVZSpJ9NWH0XRuWUFfT9FkL3P+pAOWdxMJzD4hJBbCdBsWWpX/fDx4Q7JEjvZbGLDvcwIAry8GU8t2XN9f12QaTAEu5CAA5cW8BQfGIFPSrusPDlu/+fTkN1/ePzno6JqydQa2LtrPfURtAWlmI7SutmZV5hlnVM/8lVwrBqLg4hIz4cALl30BL1c6cZN5eZnuWqYAdoJiMb2TJS4pTYqTzTiFECGkWlG/en6036k9Pun+j6/f/O7b9xeDxcJikSe7+sWorwJjQct0ZVixkNZZ5elCqc1lryIKXRFAGDBiAgARET9iAclMP8ToiLrjxN06T2Y+r2e2oGcQYo1mAFjkIwtLokUgMCDdwkLKV4DaAELbjTBeUU8lH+jy5JDo8Oe8okr3D5q/fH70D5+efPrkYK/bUGQaZFHS9cLpR5+rOlWISqaVPZMFUuF5ADBEj3eVrEEstnWBOFyQF+2kc3yJBJZI1ZZeHYna04S316xXvnx+vN+tP7m/83/8X9/95dXF1XARKXhGyc4VY1o44xgEMyA2GsvpjIV5FcxiiKaoOKoxl0UsW+NRJRvPRdDFwc/sBBeL/BJjIjLJpUeec04Jqdcrnz493OvWj/abv/v2/R//evruajoxGMJLfTYWexYZbVfBDeKV4CasUGRh8XIOGFIVDqH3Bkl3NdFaFGJpecnuRLcZymIIS+dME4Y0eF9X5eNe63/57Ue9bq1ekf/08vz0amowLwDAILrlSIwNQseMI4ZSFRGAAACnYhjBzohjiLhEcKepf/5k/3/+zdPPnx0e7rc1Vc6kBhTXJtq2C2xdtDs/ovzmirk0ladL26xisrRMJoXcMDRRApQFY/CsEL+g+gHlS8hFX0kss8RorEmRLP0w0SkMTogxFmkbC6xYYBYowfWqLklUUaiqSO165eXb/usPww/9qeuxZe0w5ytoHnjIEQZCLbRYvRaMGFtFvwgx8YmwkFQCCRJUIBQGAsaSRGRZIoQAWo0PS9Htp3evNP6fJ3ed9qoT58YEFIlWVEmTJQCLCy1/KWCBs6VPywUeVJEqYKVbzwW8gHOGeBJFWJY1IUASwapMe93ao6POZ096nz7pPb63s9Ouq4qUmHgF2G2eiGRBqXXBBA67IUTqkXBGhIluYcVALCvGS0E+ee1pCSqQteXhmWVDlOJ6VZMlKsvU9fzdbu3lm/6r0+FwarLVoxCUvJdKjRwhBEzgWI75DUvaGogeSMp2JV4AQpxgaFSUZlWWJRx6J4Dy5mqmi4yycqAF7BsFg08pqVVVWaIYULWidBr6t68uX50Or0YLw3YiOV2hio4n8MXwKljkWsVKA9jSXRUHVoiAxOAunJsYQJVJTZNlCeNl6FNGcjfhxBQEMAXEvxhjVZF2O/VPnjDGWadde/mm//37/vXIMBwvIipaVTHGKdR4WNKxjLvizy5Yjiwq8oMwhgUAgqHbqDw8bD066X7+9OCrj48PdpsiflZy2m+PrYv2c2RMbnyGErlRsTJcKKtaQkBre4j+I9zmnRyAQVPlw712RVcPdpv3Dy/+9OLs6+8vxlPTsBzb9V3Pdz2foYxUDyRcXJTVPh5XuEykijBAIK1DKJEpViRa0aT7+62D3YauyZjg8gNyp51NnBJSr6r3D9rXI0OSqOW4tuPZrh/SxzPGWBwrAiTWlZWh0IjjA4hxhAEIAYIJJUSTaaOq7rT0Tx7tffbk4NMnB7vdekVXaLkxubGwY5rLPnG2SFSAJxWxhUQeD+vvCkv24Jahf5ritQw9h6rKB7ut3/6CHO21Tnqt6tdvX58O54Zt2q7r+o6/1G/KmbEpIxLzUfJ54BAgwBgoAUWiikJbNe2j+937B21dlQPUp8w4pD+W+TqPwTivUj7wpmSJHu61axV1v9s43Gt+/fLsxZv+xXCxMB3b8RzP94IaCL52Sm9WqQAIAQYCQDAmBEuUKBLRFPnBQeP+QbtR0wgh6RTELRGjtXQVQRZ4r9vQNLm323xw2G5/o/7wbnA5XMxNx3Z9z/d9n/mCBEiSPxHWLMnAE6UEKKEyJYpM61Xl8Un3158cPX+4f++w3WnVElpPa7eAbYPn1kW7yyMBI5WfXnn1+2tJy0TsJ2VP4km6/B+9zZWjWzOrFTd1FvTnFzSEyjJtNSq6qux26s8f9f7lYvzyzcXr0+Hbi/H1aD6eWYbteoyH9TarLs5sRYbYGHIeS/FABL8BICRRUtPlii7XK9pBt3q833x03D3qtQ73mvvdhkTJzUb4ZuMvfACrinS03/5f/9unXz0//nA1ObsavTsbv72czAx7YdrTuW3aruOxSMMzTlqS/AUAyIBnhdELKFUxgZom1ytqp1l5fNR+dn/36YO93U6t3ajUa5oiUYxho2JEtK6Xcy14lkh6ZnqYqfOsNv5Vmx+EVdJri8yK4ediTCjdcJOxLjiXJbrTqVd19XC/9fzh/qt3/e9eX/74YfChPx1MDNPxljhmHFZf5bohFuSFSAmKBFKXsUksLUgIqqpSq6b2duuPjrofPdh9fG/nuNduNSpitjTDZJVASoqT3SU9P4xBkmizrquK3G1VP35ycDmY/fDm6m+vL99ejC+H8/HUMB3fQyw+C0Ekw8v0z0TzK1YDB/2eGCGJ4KoqV3SlXlF229Xj3fq9w/aDo+7JQXu3W5clGjVHpjtFCh565owqzRsAAEiWaYtUVEXe69afPth992H08s3lt6+v3l9OpnNzsrAN2+U8YsxZLvS4ridPY9sQUibLEq7pcquuHXTrDw7aTx7sPTzuHu03G1VV12RKqCgkkGfe01K8W0dt66LdpZd2s4/dsEI2rbUI8QLhLB7XjVylku1pN4j2yoD85TsPEocsUVmi1Yqy160/OOqc9JpvzgZvz8Zn/Wl/OBtMzMnCNi3btlzDcg3HY/G9Ol0+Jo4nR4ggJEtEV6imSoosSRLRVblRUdoNrVXXW83KQbd2tNe8d9BqNauqIt/GYQ0OUadyw2FElJJ6TatV1eNe69nMuOpP319O3l9Nx7PFeGZeDxfjmTUzHNNybMd1HH9m2abtc8jx73nGGxiAYtAUoiuSpiqKItWr6n5L3+nU9tq1h0fth8fdk4OOLNMor13M/5f5p8ws5xrerJTdT0f/cX2OxMLMAJNS7Aq5WywqlLFKY295rQN5blxQ6qfIkiJL9bq+363d6zWPe83X7wZvz4cfribDqTmZW4uFvTAd01mqRvEc74Nnl9QHgycRrMqkosk1XW3WtZ2m3tupHx+0Hh11Hx23u+26piolcZHMXGeewmlmM3imbGvqyXJKaZXSakXd32k8PnFO9pvHvda789Hp5eTiejqcmnPDsWzHMB3Dci3H94M8NxcnRhHGhgEkinWFaIqkKrIkUV2RarrSbmithtZu6Hud2uFO/bDX2m3XqhVVrOIqWAUbWYY8dY04Iht+UpKoJJFqRd3v1o/3Wye95lGv8+581B/NLgfz4dS0bde0Hct2Lcd3HM/2snX18HI+qDJVFKrIkqYqrZrSbVX2OrWT/eb9g/b9w+5Ou6osK88KGA3L0+ZtXbTtcfe42p27fcI5ARNMKZElKkt+nimRJCxRQgiGzX80r1BmreRO3k5TUCWduUQ3Sv2kLwNjqOjqk/v7R73O58/MwXjRH04vh/Or61l/OB2MFlfDxeXEdFwWVCExzvN6mAIkHwFgQJTgui7vNLXddrXZ0KsVrdOodpuVdkNr1rV6VdM1VVWoLBFC8N1OmJIVG/EHEe6/EqWtZq1e1Y+PdkzbNQ1rMreuR/PB2BhMFoPRfDIzJjPrQ3/Wn5rM50GeLKhWSbPKRVXlgBAlRFNIt6Httao7nWqnVdvp1A66tZ1WrdXQK7qiKpIkUVQogIbyWyAzt+0EeSwqpHjIFS4DSAOouQQN+SQLZQS4yrgviSLOvBqsmO+ypEiUJam322w1Ks/u714N52dXk4vryYfLyYeL8Xl/dj01bdf3fc44YxwFOmZhjjvOxAwIYQwYIODDIgQwxlVV6ja0Xrd+sN842m8d7DT2u7Wddq1aURWZkngIkUaJMhGgtfBnopx3867G1ecVRb532N3tNL4wrOvR/Pxq0h8trsfz6+Hssj+9Gi0GUyvoimV8xToS59PhEfMbQhDoLFVVaaepdpuVTqtaraiteqXT0DvNSquu1WtqRdc0RaIEE4I5j/LIuY0Ua8UqMoerZJNsovGrWa/omnrU60znxvVofjGY94fz0XQ+HC2GY2MwNYYza2a6vs8R5yzsYOWBFSQE6wpp15ROQ2/WtWa90m1Vd9rV3U6t26o065WarkoSIQQXRC9rN7iti7Z10X7a46cueMQY6rqy36nZtrOw3JyaM6QqZL9bq1U1QggqIaC56d1t6jndba3V2rNhDKoqKQqt6nK7oR/uNRemE6ihG5Y7W9iThW1Zru04juvZjud5fkYWD4NMia6rlGJKsKbIuibpqlzV5QBI01RZUyVVpqoiyRIhmACGvEvNy1/ksZ+gwhLyMghoJN6HEUiUKCqvVRSvru243uFe07Q903INywpeTOfW3HBsx3M9z3E8y3Zdzwu6TuO0nUiSqaJIskQ1VdY1uarJNU2uVmRdU3RNqemKqlJZkijBkVgBz3Kt8rbh4rRmXjxQhqg9a2NASSxVKP1ewmkZS7qg3QcVytqm5aGKo528vpDo4YZ+g0RURWrUK73d5sKwp3NrMjPHM3M4MaZza7Ew54ZtWM7CcAKtSddnYtkhIKAEGrrcqMi6Ktcqar2mVStKvaI1a2q9ptWraqOqVXSlosmqIlGKOc/FydaOfLHmb8HAblRdHmC3RMGyRKu63KzrvZ2GYTmG6RiGPTPsmWHPTde0XNt2TMt1Xc8TCLBX5yEgUyrLkqxQmVJFobos6ZpU0WRdlxVZ0hQpsAOKTGWZUpIsb8jrPi4GkNayIqejkaIFghACoJRQSlSZ1qpKp1U9PnAXpmNZjhlIkVquYXu243s+cz3fcVzOOcYgSRIlWJKoTHGQRtBUqqmyriq6JuuqpKqSTGliVvx/7d3JciPXmQbQm4kEwKFUlMruwW6FwmEvOnrRvez3f6LelEIsEgSyFwBBMJF3yAEoSj5n4ZCsKiCR45d3+G/2OMbmQglqIto8rWUld4reB0l2lHHvq9WhjuWi/uUvP/3vf//y95+/PG1eYifycrH48nD7t5//dHuzqpMru10uX3bq0J5mtctdgZ29vVw2TbO4v1v/Swj7hQjbtn3Z7l4222/Pz0/fNt+eX56eN5vNttN+Uh0qDDWf7tdN0zRNfbNeL5vFvqWhOrSthSpVFyLTaVXe4DrPSMFQVXW1WtXLZXN/e9OGdtceHh67XbvdtduX7dPzZrPZPG1eHh83m5ft9vVBftqctlo1NzfL9Wp5s17drleLRVXXVV0fll0+lNxIjimc9/eOvqG35/94bFjqXR9r8mUydEmPIV+0789qPt3d7NuEdtvd88vLb4/PX399/Prr49dfv/32+PT1t+f/+/r06+Pz88uuDW/zV6uqahb1j/frL5/W93erzz/cPvxw+/Dp9u7ucNYv6rquqpM6Nm87KNYEfoUjWPzhYblsmqa5v12FENrDgqTtdte+bHffnp4fn56/PT7vX9Xe1j99Pe6LRbVuluub5ma1XC6b1bJZLpv90Le67iyt8LGiRew9p6qr9Wq5Wi4/f9pPGWp3bdi1bbvb7ULY7drttt1sNk/Pm7bd1VW9XC2Xy8VysTisrL7/7dVxMfR3lVmmdDoNXWZGRGOeXFKe83pHUJ5aLRf/9fd/+9tfv2xetonPrqrQLOr9692xANXE9r+hKxNMbzkbMS8h2qheVYuqXYTQtm3TLMJqeXe33u1vS/FJXtW+ANq+a+81glTv7kvjo/zQOU3nbTOJUVCZvbefoNepe7Jq7m5X+92xi5f/3feIVdUhlB3X0Kq6xTr7N6OwqSC2TxKVSrJfcfZD9mv1tP09ntXb0klD80S6Uy979sYK9Jy/4PUNawttqOq2beu6aRY3q9XDD3e73Xa7bbe73cu23e7afUY5FMCrD1P56qpa1FXT1ItDR2fdLOp68XqMXyuohXjdkOw9rfMHShbkDQWLahTedg4vVSGEOtRt27ahCe26Dbc3y4fdXbs/5Xe7Q9HAQ2NadVjA9PVs30/ePOzlwwe2Q+8GnR0YDVJ9a0OFgplVsY6LzkV0HHjXVu3hZ7RvzWC7ttntbqqT8aAnIwTa44JZg351yeWvCU1Eu5TYekdhyCp1JeO97m9X+9fBcW8q435ISQopXA55xISAiSnwmNJOv2JxsdNgUIIcdODGLeOd2MjT/60vsDcKa8qX946FXI9YVdxmXHWbyA6hZZYDnbgDjPiB2d3YLcn7+lRdLMIyLEJYjml6en9QYk372cmYJf3yQ7Na+g/HFgk9/YT6tQLtYtSFc1wxLFvpLVboeEh3/IC734g1CY7touEtcYbF4X7QnWHStu0+6aartPS+PXbGJSeSvZQmol07vRVO+BrUrDU0co1+qA8KBNM7Pgr3zyUS9lx148qDQmwbsqumZj88e3bF/sp17o8XOrjp0ehn1UPO5kd3n0mZODV023pLEJ82vU8/Ftmm1uy82uosn00880fH2SnhuPx86w1z1dghvIX17Ya+Nhfu2GmXVU8R7N4RbyHZrTllG/RyimjXe9KPuDGVd0cmCpullzEuD0npVYlGfH5nhZP0IvSJ0JYoNlZYQyvdRZh41IWyfrR22mCswnQ1dIX7ku0smSwW4m3GvYv89OaSkuM77gUj3Zr7mpPeurffFo1+HZ31frJjmz06iSaBklaxREHX2IITQ5vns8k+WzZ2xM7vrGqVaE3MniGDdn7it2Tb89LTWQbd2EOyOFz5nk/v/PSCfrG7bmE7aIhP6Mm+JfYvCdO3beV93/+EarvgygHu47wltO+dX1rl4/pn/FFX2D9DFzMe9IiacfjdlBvW6JGFs/zM05Mq+0y9gtOKrIcVN9/XRXtXqfP1T1ahGnHUev9TybCq6z+cEinhAz4pL7qA47xFvC+3bbN/44Vua5KWVrQPKlHBf1wTS6Jmd7pDJzE2buLv6m3KSgzfTjeWnL9Qjq5eGwqGIpWPtMs+VmfvFkz0WfQe0MIjmx04XBITS9odB/Xklg7qz23h0GdMVb1W9Qxhv9B1dVpXpNqvLXHs96wSteZj5/b5iO/ESVV4XGLXzvkfKx/iltjzsRqzI3Z+ydDMdNNX+o0lVoqit58hVl0vfVl17rq9a3+lz+pBo2xLrutsR0FitkGsLyJdz2xE02as1E5sIwU7Ee06b+r9Z/+47sLC1o7sEsXlTS/TY9DQF+IpdQtLtnnQUlfl3dPpqVjZ29mgWQWjBz+F5PSC3hR4fiaXD2Ee/TZS0pVT8kVFG3ay+HsVeoulVSejodtxF+ygB0/nUVqyUkLhahPlUyzHXV/D9ny87E7vfovNNxoR5RNXYvlPmDJipPcTym9c4+YhjXumlKT55Ood/RWjYgtpTJ//9Aemo3P+xo9BfzFRcnMKgy7nvdXOtdt/p8dl6MzcS2/ApK9u29fJAT2Do09T3Gs+q6r5SqP93s+NuWY4XaIi4JRfdIUu1Om7+vueIe2QGSTZ1TIopBVtznN3ltoQ6erzhU1liX6KMLBGWvm8v1hXRWGbUGISfmwk7PkajtWQOr3n8/PDqMIfoWzYdWyua7p/8/w/nS9WmB68H3JD3M53QqKlpGRTYw1I2aHNoXg03nkHU6eb5riXutdC6CwofrKkUnhrVquOC2tXqZ1QWKoqdqXHRnb3tpOVDCfPTmo5raY2+54PyQW4EgUXEq25x3+t67oz7/V0vlEYVdsolh5i8wPSA/nTl2HnbBw0giV7j41dTeFklsDxH7JBKt0dH5vCkn2Xi7WlyW0i2pXyWTZvjXjrKm8NSgxdyq4l0HmgDupoS3ToxL637lvdL/GkSUxfHfeqOmJSZPlE+sIjWF6iNnbr7NzyClfU6fQ79D4mY5s6okkgO4qu5CWhEyyyj7REAq6Og9Ha0Ia2eq2G1r4vw9kemtnaENpQFX31oA7NxJO4d45teD/xMz1c6fx86Bzo9HHvfVonqgcPvZX1Lm/VmfsZckVcz8eEpa/lktew2GfGftR5qZSheyP7rpV90YqNLTu/xaWnvp6/5JTvyc79JNsiEHv3QET7cMHuuyuvs/B9d8XoEFb4RbFX+dFx5PrH8aJ//mo/Nj1aZfpPq0JYr5o/Pdz/4+c/P3y6aY8taO1JrfQ2hBCaRfXLX37688P9arkobPUpGeE+ethNrNVqyqmSWNK0vDkqE4hzTeaxV9zy0jMz7uSJp/TQqhxTNiM9wAsRjbfLctDr1NBgkW7vyXZylbwAFf6VEe18ide+EF/rJtsONOMejt3u0+Wasm1gYUKh4POKpum5bNkVKeZ9fox+mJVPaom1pyYWjOosWX3sF+vOGqurL5/v/uc//+NmvXz89nyMZK/rMlavCS3Udfjx8+1f//Xh0/3N6daWzDtOLyje6fNKL9fb2zyW6CbrbW8rH4QQ60Hr7aY8v1g6l9Kg179EfbJQNme89++ez6sYuud7p4X23kjPG6oH3Z97e58LV0nq7fZNLPecOIjZPT/0QGQrt2VPSxGND9FOFuuyKV/X74Nk1gu1F17z0k08JArfpK922nzfk3zigOhEa8rEMuWxdZ/ub1e//PuPP32+fel7szpZQ7taLhc36+Z2vQwF45Zi61nNUms+e1Ilokb5ASqZeD7iNB6X0uY9RS/a4lvY6HXpe/XQE69w/09Zk6bwtNHdGT0iGki/SxRLt+iEIcXSBj0ABn340GFwvYPSYhd8tvUusaMSfRzZyluF74vnN9/zER6x6R2FbVrpn5b4hMLpAiOOb/kg8exDqPfVPPuUir3ipwd6Zqsudbczed0e66IdpgucDFIbunB7+cS33mkHiaHl5dUH087bGrN7ryRnjMsiI351YrWAki2MnbfpQf3ZWmUlPzw7SSi958/b56ak/MIVU7J/q/cYxdqzz1s3T6eGiBYi2mwRLd1aXjIN8NJtWhd6g4xdvYMi2vQ3+xE3we+10z7CgZveEDXXrxi60E36BCvvxk2PGaiq/RSC/edU+77T0DcuO/858T+QyOWJ4diJZaCGrp3V2x08NNanN2DEni98H0t/V6KDtXwB0/I9H3IjX0eXvE5/yLiheEMfPYM+PzZ3J3aOxXajFrUjHZ3zJJWJa9kOejsvTCRzhZgZVzQaEfuuk1GuOfJ9rk8ofKHPnjz/nGON53oGjKvz/JG/6KLbUD574OO/zEwph1k+J+PSb9flGdFNQyvaH8e4iBYKqqCNu+rKVxGZfj2PXtZzaMzN3ibKOzqztZrKvzFdkW76KdH5lokRbVDXTGJvnA9OLykH8/sN33/U2FrYQzfjH3OU+S7vGyKaiDbgDdIeG5HhuNrOn33Pj87WE+/yQ7vdZ2zwGD08a8ZbdGLC4MQ9n51vGAaO6xq0Q9JvXJcbpD+iFsyUt+XR21NYrmzclZL9/4fWM3KfF9EAAD408yYAAEQ0AABENAAAEQ0AABENAEBEAwBARAMAENEAABDRAAAQ0QAARDQAAEQ0AAARDQAAEQ0AQEQDAEBEAwAQ0QAAENEAABDRAABENAAARDQAABENAAARDQBARAMAQEQDAEBEAwAQ0QAAENEAAEQ0AABENAAAEQ0AABENAEBEAwBARAMAQEQDABDRAAAQ0QAARDQAAEQ0AAARDQAAEQ0AABENAEBEAwBARAMAENEAABDRAABENAAARDQAABENAAARDQAAEQ0AQEQDAEBEAwAQ0QAAENEAAEQ0AABENAAARDQAABENAAARDQBARAMAQEQDABDRAAAQ0QAARDQAAEQ0AABENAAAEQ0AABENAEBEAwBARAMAENEAABDRAAAQ0QAARDQAAEQ0AAARDQAAEQ0AQEQDAEBEAwAQ0QAAENEAABDRAABENAAARDQAABENAAARDQBARAMAQEQDAEBEAwAQ0QAAENEAAEQ0AABENAAAEQ0AABENAEBEAwBARAMAQEQDABDRAAAQ0QAARDQAAEQ0AAARDQAAEQ0AABENAEBEAwBARAMAENEAABDRAABENAAARDQAABENAAARDQAAEQ0A4Hfg/wE8FEyyRv4yNgAAAABJRU5ErkJggg==;" vertex="1" parent="1">
          <mxGeometry x="1074" y="324.91" width="142" height="100.19" as="geometry" />
        </mxCell>
      </root>
    </mxGraphModel>
  </diagram>
</mxfile>
